<svg id="Layer_1" data-name="Layer 1" xmlns="http://www.w3.org/2000/svg" viewBox="0 0 418.93 376.24"><defs><style>.cls-1{fill:#ff4f5b;}.cls-2{fill:#fa5d11;}.cls-3{fill:#171717;}.cls-4{fill:#f5f5f5;}.cls-5{fill:#e1e1e1;}.cls-6{fill:#fafafa;}.cls-7{fill:#ececec;}.cls-8{font-size:51.34px;font-family:Poppins-Bold, Poppins;font-weight:700;}.cls-9{fill:#ffbf9d;}.cls-10{fill:#ff9a6c;}.cls-11{fill:#1a2e35;}.cls-12,.cls-13{opacity:0.3;}.cls-14{fill:#fff;}</style></defs><title>404</title><path class="cls-1" d="M40.3,333.93c-1.83,2.62-5.39,1.75-7,.16s-2.34-3.91-3-6.12c-1.45-5-2.91-10.32-1.83-15.45a8.56,8.56,0,0,1,2-4.2,4.46,4.46,0,0,1,4.25-1.41c1.79.47,2.91,2.23,3.71,3.9A36.65,36.65,0,0,1,42,326.61c0,2.55-.29,5.22-1.72,7.32"/><path class="cls-2" d="M40.3,333.93c-1.83,2.62-5.39,1.75-7,.16s-2.34-3.91-3-6.12c-1.45-5-2.91-10.32-1.83-15.45a8.56,8.56,0,0,1,2-4.2,4.46,4.46,0,0,1,4.25-1.41c1.79.47,2.91,2.23,3.71,3.9A36.65,36.65,0,0,1,42,326.61c0,2.55-.29,5.22-1.72,7.32"/><path class="cls-2" d="M33.44,347.17A15.82,15.82,0,0,0,23.6,346a8.24,8.24,0,0,0-4.86,2.17c-1.21,1.34-1.44,3.7,0,4.85a4.66,4.66,0,0,0,3.07.78c2.6,0,5.48-.49,7.56,1.08,1.19.89,2,2.37,3.39,2.81A3.36,3.36,0,0,0,36.4,356a5.75,5.75,0,0,0,.42-4.22A6.47,6.47,0,0,0,33.44,347.17Z"/><path class="cls-2" d="M45.32,337.68a9.51,9.51,0,0,1-1.48-8.75A16.88,16.88,0,0,1,49,321.41a27.9,27.9,0,0,1,9.28-5.47,9.67,9.67,0,0,1,4.17-.71,4.36,4.36,0,0,1,3.5,2.12c1,1.86,0,4.12-1,6a69.47,69.47,0,0,1-6.1,9.29c-1.82,2.35-3.92,4.68-6.7,5.74s-5.68.94-7.15-1"/><path class="cls-3" d="M40.42,373.36a6.26,6.26,0,0,1-.17-1.19c-.08-.87-.18-1.95-.31-3.24a46.19,46.19,0,0,0-.73-4.76,37.06,37.06,0,0,0-1.73-5.61,20.55,20.55,0,0,0-2.86-5.07,10.6,10.6,0,0,0-3.62-3,9.91,9.91,0,0,0-3.06-1,5.05,5.05,0,0,1-1.18-.18,5.65,5.65,0,0,1,1.21,0,9.2,9.2,0,0,1,3.18.82,10.8,10.8,0,0,1,3.82,3,20.41,20.41,0,0,1,3,5.18,34.35,34.35,0,0,1,1.71,5.7,38.58,38.58,0,0,1,.63,4.82c.11,1.37.15,2.49.17,3.26A6.33,6.33,0,0,1,40.42,373.36Z"/><path class="cls-3" d="M40.2,370.86a2,2,0,0,1,0-.55v-1.57c0-1.37,0-3.35-.07-5.79-.12-4.89-.54-11.64-1.36-19.05s-1.9-14.1-2.89-18.88c-.23-1.2-.47-2.28-.69-3.23s-.39-1.76-.57-2.42-.27-1.13-.36-1.54a2.13,2.13,0,0,1-.1-.54,2.2,2.2,0,0,1,.19.52l.46,1.51c.2.65.41,1.46.65,2.41s.5,2,.76,3.21a179,179,0,0,1,3,18.9c.82,7.43,1.18,14.2,1.22,19.1,0,2.45,0,4.43-.09,5.8,0,.64-.07,1.16-.1,1.58A2.5,2.5,0,0,1,40.2,370.86Z"/><path class="cls-3" d="M40.16,357.81a12,12,0,0,1,0-1.64,44.44,44.44,0,0,1,.5-4.46,60.46,60.46,0,0,1,1.45-6.5,58.07,58.07,0,0,1,2.72-7.69,40.6,40.6,0,0,1,8-12.42,20.68,20.68,0,0,1,1.87-1.75c.29-.24.55-.49.81-.68l.72-.5a10.43,10.43,0,0,1,1.39-.89,50.73,50.73,0,0,0-4.54,4.05,43.06,43.06,0,0,0-7.78,12.38,62.74,62.74,0,0,0-2.74,7.62c-.71,2.39-1.18,4.59-1.54,6.44s-.54,3.36-.65,4.41A9.32,9.32,0,0,1,40.16,357.81Z"/><path class="cls-4" d="M202.57,332.89l59.85-6.35-6.53-58.13L196,274.18l.81,4.51,1.79-.64c1.18-.06,1.71.7,1.88,1.88,0,0,0,.05,0,.07.13,1.19-.14,2.3-1.31,2.55l-2.26-.14.46,4.09s4-.91,4.16,1.62c0,0-.17,2.34-3.74,2.08l.38,3.41s4-1.08,4.19,1.54c.19,2.23-2.12,2.39-3.74,2.46l.4,3.59s4-.81,3.9,1.87-3.44,2.19-3.44,2.19l.51,4.58s3.66-1.6,4,1.13-2.63,2.53-3.57,2.31l.39,3.49s3.73-1.6,3.9,1.91c.13,2.63-3.51,1.56-3.51,1.56l.55,4.84s3.66-1.56,4,1.06c.21,1.86-2,2.74-3.63,1.85Z"/><rect class="cls-5" x="211.78" y="264.83" width="35.9" height="9.83" transform="translate(-9.65 8.53) rotate(-2.08)"/><path class="cls-5" d="M248.55,283.69a7.83,7.83,0,0,1-1.47.19l-4,.32c-3.4.25-8.11.57-13.3.89s-9.9.59-13.31.76l-4,.17a7,7,0,0,1-1.48,0,10.07,10.07,0,0,1,1.47-.18l4-.32c3.4-.25,8.1-.57,13.3-.89s9.9-.59,13.31-.76l4-.18A9.37,9.37,0,0,1,248.55,283.69Z"/><path class="cls-5" d="M250,291a7.83,7.83,0,0,1-1.47.19l-4,.32c-3.4.25-8.1.57-13.3.89s-9.9.59-13.31.76l-4,.17a8,8,0,0,1-1.48,0,10.07,10.07,0,0,1,1.47-.18l4-.32c3.4-.26,8.11-.57,13.3-.9s9.9-.58,13.31-.75l4-.18A9.37,9.37,0,0,1,250,291Z"/><path class="cls-5" d="M250.5,298.47a9.79,9.79,0,0,1-1.47.18l-4,.32c-3.4.26-8.1.57-13.3.9s-9.9.58-13.31.75l-4,.18a9.37,9.37,0,0,1-1.48,0,9.06,9.06,0,0,1,1.47-.19l4-.32c3.4-.25,8.11-.57,13.3-.89s9.9-.59,13.31-.76l4-.17A8,8,0,0,1,250.5,298.47Z"/><path class="cls-5" d="M251.41,306a8.35,8.35,0,0,1-1.47.18l-4,.33c-3.4.25-8.1.57-13.3.89s-9.9.59-13.31.76l-4,.17a9.47,9.47,0,0,1-1.49,0,10.07,10.07,0,0,1,1.47-.18l4-.33c3.4-.25,8.11-.57,13.3-.89s9.9-.58,13.31-.75l4-.18A9.37,9.37,0,0,1,251.41,306Z"/><path class="cls-5" d="M253.5,314a8.06,8.06,0,0,1-1.48.19l-4,.32c-3.41.25-8.11.57-13.3.89s-9.91.59-13.31.76l-4,.17a7.16,7.16,0,0,1-1.49,0,10.38,10.38,0,0,1,1.48-.18l4-.32c3.41-.26,8.11-.57,13.31-.89s9.9-.59,13.31-.76l4-.18A9.53,9.53,0,0,1,253.5,314Z"/><path class="cls-4" d="M23.21,208.39,83.06,202l-6.54-58.13-59.91,5.76.81,4.51,1.79-.63c1.19-.06,1.72.7,1.88,1.87a.25.25,0,0,1,0,.08c.14,1.19-.14,2.3-1.31,2.55l-2.25-.14L18,162s4-.91,4.16,1.62c0,0-.17,2.34-3.74,2.08l.38,3.41s4-1.08,4.19,1.54c.19,2.22-2.12,2.39-3.74,2.45l.41,3.6s4-.81,3.89,1.87-3.44,2.19-3.44,2.19l.52,4.58s3.65-1.6,4,1.13S21.94,189,21,188.78l.4,3.48s3.72-1.59,3.9,1.92c.13,2.63-3.51,1.56-3.51,1.56l.54,4.84s3.66-1.56,4,1.06c.21,1.85-2,2.74-3.62,1.85Z"/><rect class="cls-5" x="32.41" y="140.33" width="35.9" height="9.83" transform="translate(-5.24 1.93) rotate(-2.08)"/><path class="cls-5" d="M69.18,159.19a8.82,8.82,0,0,1-1.47.19l-4,.32c-3.4.25-8.1.57-13.3.89s-9.9.59-13.31.76l-4,.17a9.37,9.37,0,0,1-1.48,0,10.07,10.07,0,0,1,1.47-.18l4-.32c3.4-.26,8.11-.57,13.3-.9s9.9-.58,13.31-.75l4-.18A9.37,9.37,0,0,1,69.18,159.19Z"/><path class="cls-5" d="M70.61,166.48a8.35,8.35,0,0,1-1.47.18l-4,.33c-3.4.25-8.1.57-13.3.89s-9.9.59-13.31.76l-4,.17a9.47,9.47,0,0,1-1.49,0,10.1,10.1,0,0,1,1.48-.18l4-.33c3.41-.25,8.11-.57,13.31-.89s9.9-.58,13.3-.75l4-.18A9.37,9.37,0,0,1,70.61,166.48Z"/><path class="cls-5" d="M71.14,174a8.06,8.06,0,0,1-1.48.19l-4,.32c-3.4.25-8.1.57-13.3.89s-9.9.59-13.31.76l-4,.17a8.94,8.94,0,0,1-1.49,0,8.06,8.06,0,0,1,1.48-.19l4-.32c3.41-.25,8.11-.57,13.31-.89s9.9-.59,13.3-.76l4-.17A9,9,0,0,1,71.14,174Z"/><path class="cls-5" d="M72.05,181.45a10.38,10.38,0,0,1-1.48.18l-4,.33c-3.41.25-8.11.57-13.3.89s-9.91.58-13.31.75l-4,.18a9.53,9.53,0,0,1-1.49,0,8.81,8.81,0,0,1,1.48-.18l4-.33c3.41-.25,8.11-.57,13.31-.89s9.9-.59,13.31-.76l4-.17A9.53,9.53,0,0,1,72.05,181.45Z"/><path class="cls-5" d="M74.13,189.51a8.56,8.56,0,0,1-1.47.18l-4,.33c-3.4.25-8.11.57-13.3.89s-9.9.59-13.31.76l-4,.17a9.37,9.37,0,0,1-1.48,0,9.79,9.79,0,0,1,1.47-.18l4-.32c3.4-.26,8.1-.57,13.3-.9s9.9-.58,13.31-.75l4-.18A9.47,9.47,0,0,1,74.13,189.51Z"/><path class="cls-6" d="M164.78,8.6l-.38,60.18h58.5l1-60.18-4.58.31.44,1.85c-.08,1.18-.89,1.62-2.08,1.65h-.08c-1.19,0-2.26-.4-2.38-1.59l.39-2.23h-4.12s.47,4.05-2.07,4c0,0-2.31-.43-1.65-4H204.3s.63,4.07-2,4c-2.23-.06-2.13-2.37-2-4h-3.62s.36,4-2.3,3.67-1.78-3.67-1.78-3.67H188s1.18,3.81-1.57,3.81-2.22-2.9-1.89-3.81H181s1.17,3.88-2.34,3.67C176,12.1,177.5,8.6,177.5,8.6h-4.87s1.14,3.81-1.49,3.81c-1.87,0-2.5-2.33-1.44-3.81Z"/><rect class="cls-7" x="154.16" y="7.58" width="28.59" height="7.83" transform="translate(24.74 100.12) rotate(-35.57)"/><rect class="cls-7" x="206.3" y="62.68" width="28.59" height="7.83" transform="translate(2.42 140.73) rotate(-35.57)"/><path class="cls-5" d="M217.65,24.5a2.23,2.23,0,0,1-.45.05l-1.31,0-4.82.07c-4.07.05-9.69.07-15.9.07s-11.83,0-15.9-.07l-4.82-.07-1.31,0a2.43,2.43,0,0,1-.46-.05,1.7,1.7,0,0,1,.46-.05l1.31,0,4.82-.08c4.07,0,9.69-.07,15.9-.07s11.83,0,15.9.07l4.82.08,1.31,0A1.57,1.57,0,0,1,217.65,24.5Z"/><path class="cls-5" d="M216.62,35.33a1.89,1.89,0,0,1-.44,0l-1.25.05-4.6.07c-3.88,0-9.25.07-15.17.07s-11.29,0-15.18-.07l-4.59-.07-1.25-.05a1.89,1.89,0,0,1-.44,0,1.18,1.18,0,0,1,.44,0l1.25-.05,4.59-.07c3.89,0,9.25-.07,15.18-.07s11.29,0,15.17.07l4.6.07,1.25.05A1.18,1.18,0,0,1,216.62,35.33Z"/><path class="cls-5" d="M196.18,45.78a21.87,21.87,0,0,1-3.14.16c-1.94.05-4.63.07-7.59.07s-5.65,0-7.59-.07a21.87,21.87,0,0,1-3.14-.16,19.28,19.28,0,0,1,3.14-.17c1.94,0,4.63-.07,7.59-.07s5.65,0,7.59.07A19.28,19.28,0,0,1,196.18,45.78Z"/><text class="cls-8" transform="translate(203.5 218.27) rotate(18.36) scale(1.17 1)">404</text><path class="cls-4" d="M349.15,254.43c-5.09.82-7.36,7.07-6.92,12.2s2.56,10.15,2,15.27c-.71,6.5-5.63,12-6.2,18.51-.67,7.68,4.76,14.5,6.38,22,.79,3.67.68,7.55,2.05,11.05a13.81,13.81,0,0,0,26.66-4.77c.12-5.9-3.53-11.46-3.08-17.34.32-4.35,2.87-8.47,2.33-12.8-.65-5.15-5.42-8.8-7.11-13.71s-.06-10.32-.65-15.48c-1-9.26-6.17-15.71-15.45-15"/><path class="cls-7" d="M323.18,299.24c-.86,8.58,2.93,18.67,7.34,26.07A40.81,40.81,0,0,0,349.71,342c.9.38,2,.69,2.77.08a2.73,2.73,0,0,0,.7-2.2,42.11,42.11,0,0,0-30-40.61"/><path class="cls-5" d="M360.54,359.9a2,2,0,0,1-.25-.47l-.61-1.41c-.52-1.22-1.29-3-2.27-5.15a184.36,184.36,0,0,0-8.51-16.48,182.25,182.25,0,0,0-10.19-15.51c-1.4-1.92-2.56-3.46-3.37-4.51-.38-.49-.68-.89-.92-1.22a2.43,2.43,0,0,1-.3-.44s.14.12.37.38l1,1.17c.86,1,2.06,2.52,3.5,4.41a155.67,155.67,0,0,1,10.33,15.47,157.78,157.78,0,0,1,8.41,16.59c.94,2.19,1.66,4,2.12,5.22.22.58.39,1.06.53,1.44A2.85,2.85,0,0,1,360.54,359.9Z"/><path class="cls-5" d="M355,278.16a4.87,4.87,0,0,1,.1.82c0,.58.1,1.37.17,2.36.13,2.1.32,5.06.56,8.69.46,7.34,1.11,17.47,1.9,28.66s1.56,21.32,2.13,28.65c.28,3.63.5,6.59.67,8.68.06,1,.12,1.78.16,2.36a4.74,4.74,0,0,1,0,.83,4.52,4.52,0,0,1-.12-.82c-.06-.58-.15-1.36-.25-2.35-.2-2.09-.48-5-.82-8.67-.66-7.32-1.49-17.45-2.28-28.64s-1.38-21.34-1.76-28.68c-.17-3.64-.3-6.6-.4-8.7,0-1-.06-1.78-.08-2.37S355,278.16,355,278.16Z"/><path class="cls-5" d="M347.13,347.67H368.6v15.77a10.31,10.31,0,0,1-10.31,10.31h0A10.31,10.31,0,0,1,348,364Z"/><path class="cls-3" d="M418.93,373.31c0,.15-93.79.27-209.46.27S0,373.46,0,373.31,93.77,373,209.47,373,418.93,373.16,418.93,373.31Z"/><path class="cls-9" d="M92.54,359.77s26.05-82.75,26.6-85.44c.5-2.42-9.45-62-10.71-77.39l35.21,1.31v.26l15,.83L145.2,368.58H129l1.61-56.15c-10,26.82-24.31,54.16-24.31,54.16Z"/><path class="cls-10" d="M130,332.56c0-.51.19-18.81.19-18.81.21,1.09,6.22-15.89,6.07-16.92C136.13,296.29,130,332.56,130,332.56Z"/><path class="cls-10" d="M136.9,288.78a4.35,4.35,0,0,1,.1,1c0,.66,0,1.62,0,2.81,0,.59-.09,1.24-.16,1.93s-.19,1.44-.35,2.21a37.17,37.17,0,0,1-1.32,4.93c-1.18,3.42-2.48,6.41-3.4,8.59-.43,1-.81,1.84-1.13,2.56a3.64,3.64,0,0,1-.48.91,3.9,3.9,0,0,1,.29-1c.22-.63.55-1.52,1-2.63.83-2.21,2.07-5.22,3.24-8.62a43.85,43.85,0,0,0,1.35-4.85c.17-.76.28-1.49.38-2.17s.18-1.32.23-1.9c.11-1.17.16-2.12.19-2.78A3.56,3.56,0,0,1,136.9,288.78Z"/><path class="cls-2" d="M159.88,230.55c.63-23.6-2-48-4.12-55.45-.2-.71-.37-1.42-.54-2.14l-4-16.75s-1.66-1.37,2.79-7.29c2.06-2.75,1.68-13.25,1.68-13.25l-2,13.87,20.91-10.07s-8.78-25-11.62-28.67c-7.36-9.48-20.67-7.82-20.67-7.82l-17.43-.21a40.49,40.49,0,0,0-13,3.4l-.43.11v.09c-5,2.44-9.45,6.54-10.73,13.22-2.09,10.91-1.43,15.88-1.43,15.88l14.19-.25-1.26,30c-1.07,3.7-4.07,2.81-8.5,19.89a135.86,135.86,0,0,0-3.57,19.63,98.2,98.2,0,0,0,.32,23.49l8,60.51h48.23Z"/><polygon class="cls-2" points="120.33 130.32 122.92 141.34 98.52 141.34 100.12 122.87 120.33 130.32"/><path class="cls-11" d="M98.52,141.34a18.8,18.8,0,0,1,3.23-.32c2-.12,4.76-.22,7.82-.2s5.83.15,7.82.3a17.84,17.84,0,0,1,3.23.4,21.78,21.78,0,0,1-3.25,0c-2-.06-4.75-.13-7.8-.14s-5.81,0-7.81,0A20.13,20.13,0,0,1,98.52,141.34Z"/><path class="cls-11" d="M121.38,122.78a13.81,13.81,0,0,1,.08,2.8c0,1.73-.08,4.12-.18,6.75s-.23,5-.34,6.75a15.11,15.11,0,0,1-.3,2.78,14.8,14.8,0,0,1-.08-2.8c0-1.73.08-4.11.18-6.75s.23-5,.34-6.74A15.32,15.32,0,0,1,121.38,122.78Z"/><path class="cls-12" d="M143.38,139.61s-5.22,32.91-20.46,31.85c0,0-6.87-.08-9.07-4.64V165Z"/><path class="cls-2" d="M145.51,369.42V367.9l-16.59-.73,0,6.28,1,.07c4.55.27,23.18,1,26.23.12C159.53,372.62,145.51,369.42,145.51,369.42Z"/><path class="cls-3" d="M134.86,373.34a5.75,5.75,0,0,0-2.09-3.53,5.59,5.59,0,0,0-3.86-1.21l0,4.62Z"/><path class="cls-3" d="M152.36,371.23s4.91,1.43,4.29,2.24-19.46.74-27.78,0l0-.37,22,.27S151.39,371.27,152.36,371.23Z"/><g class="cls-13"><path class="cls-14" d="M128.64,373.07l.29,0,.81,0,3,.14c2.54.11,6,.2,9.91.21s7.37,0,9.91-.12l3-.11.82,0,.28,0h-1.1l-3,.05c-2.54,0-6,.08-9.91.06s-7.37-.08-9.9-.15l-3-.07-.82,0Z"/></g><g class="cls-13"><path class="cls-14" d="M150.88,373.61a6.36,6.36,0,0,1,.57-1.43,6.48,6.48,0,0,1,1-1.15,2.68,2.68,0,0,0-1.6,2.58Z"/></g><path class="cls-3" d="M146,371.12s.28-.26.52-.64a1.72,1.72,0,0,0,.36-.73c-.05,0-.28.25-.52.63S146,371.09,146,371.12Z"/><path class="cls-3" d="M144.69,370.4c0,.05.29-.13.58-.38s.49-.5.45-.54-.3.13-.58.39S144.65,370.36,144.69,370.4Z"/><path class="cls-3" d="M143.85,368.84c0,.06.38.11.86.12a2.15,2.15,0,0,0,.86-.09c0-.06-.38-.11-.86-.11A2,2,0,0,0,143.85,368.84Z"/><path class="cls-3" d="M143.56,367.74a2.38,2.38,0,0,0,1.95.16,4.54,4.54,0,0,0-1-.07A6.36,6.36,0,0,0,143.56,367.74Z"/><path class="cls-3" d="M146.59,369.68a3.25,3.25,0,0,0,1.06,0,6.71,6.71,0,0,0,1.13-.25,3.66,3.66,0,0,0,.65-.26.59.59,0,0,0,.26-.33.44.44,0,0,0-.16-.43,2,2,0,0,0-2.41.56,2,2,0,0,0-.35.71.71.71,0,0,0,0,.29,3.24,3.24,0,0,1,.49-.91,1.89,1.89,0,0,1,.91-.58,1.63,1.63,0,0,1,1.26.09c.17.12.11.32-.08.43a4,4,0,0,1-.6.26,9.26,9.26,0,0,1-1.09.28C147,369.65,146.59,369.65,146.59,369.68Z"/><path class="cls-3" d="M146.86,369.73A1,1,0,0,0,147,369a1.75,1.75,0,0,0-.29-.78,1.06,1.06,0,0,0-.88-.54.41.41,0,0,0-.33.48,1.15,1.15,0,0,0,.18.48,2.85,2.85,0,0,0,.5.64,1.47,1.47,0,0,0,.6.43s-.21-.19-.5-.52a4.43,4.43,0,0,1-.44-.64c-.15-.23-.24-.63,0-.68s.54.24.7.46a1.79,1.79,0,0,1,.3.69A3.07,3.07,0,0,1,146.86,369.73Z"/><path class="cls-3" d="M129,368.55s.47,0,1.22.05a5.21,5.21,0,0,1,4.31,3.46c.25.71.27,1.19.31,1.18a.94.94,0,0,0,0-.33,4.77,4.77,0,0,0-.18-.89,5.09,5.09,0,0,0-1.66-2.47,5.15,5.15,0,0,0-2.77-1.09,4.26,4.26,0,0,0-.91,0A1,1,0,0,0,129,368.55Z"/><path class="cls-3" d="M136.94,371.76a13.36,13.36,0,0,0,4.83,0c0-.06-1.08,0-2.41,0S137,371.7,136.94,371.76Z"/><g class="cls-13"><path class="cls-14" d="M133.71,371.72s.09.23.2.48.16.46.22.46.09-.26,0-.54S133.74,371.68,133.71,371.72Z"/></g><g class="cls-13"><path class="cls-14" d="M132.5,370.2s.06.21.23.38.34.29.38.25-.07-.21-.24-.39S132.53,370.16,132.5,370.2Z"/></g><g class="cls-13"><path class="cls-14" d="M130.75,369.5c0,.05.23.05.48.14s.41.22.46.18-.1-.27-.4-.37S130.74,369.45,130.75,369.5Z"/></g><g class="cls-13"><path class="cls-14" d="M129.51,369.17c0,.05.08.13.21.19s.27.05.29,0-.08-.14-.21-.19S129.53,369.12,129.51,369.17Z"/></g><path class="cls-2" d="M106.63,368l.63-1.39-14.84-7.46-2.62,5.71.91.48c4.05,2.11,20.72,10.44,23.88,10.86C118.11,376.62,106.63,368,106.63,368Z"/><path class="cls-3" d="M95.31,367.17a5.67,5.67,0,0,0-.47-4.08,5.55,5.55,0,0,0-3-2.68l-1.9,4.2Z"/><path class="cls-3" d="M112.14,372.41s3.89,3.32,3,3.8-18.06-7.29-25.34-11.39l.18-.33,20,9.25S111.24,372.05,112.14,372.41Z"/><path class="cls-11" d="M91.92,360.4s.45.16,1.09.55a5.17,5.17,0,0,1,2.52,4.92c-.06.75-.24,1.19-.2,1.2a1.09,1.09,0,0,0,.14-.3,4.49,4.49,0,0,0,.2-.88,5.18,5.18,0,0,0-.51-2.94,5.08,5.08,0,0,0-2.08-2.13,4.43,4.43,0,0,0-.83-.35A1.17,1.17,0,0,0,91.92,360.4Z"/><path class="cls-3" d="M106.4,369.71c0,.05.36-.11.74-.36s.65-.48.62-.53a1.88,1.88,0,0,0-.73.36C106.65,369.43,106.37,369.67,106.4,369.71Z"/><path class="cls-3" d="M105.48,368.52c0,.05.32,0,.69-.12s.64-.25.63-.3-.33,0-.69.11S105.46,368.47,105.48,368.52Z"/><path class="cls-3" d="M105.35,366.75c0,.05.31.25.74.46a1.93,1.93,0,0,0,.82.27c0-.05-.3-.25-.74-.46A1.93,1.93,0,0,0,105.35,366.75Z"/><path class="cls-3" d="M105.54,365.63s.27.38.76.65a1.7,1.7,0,0,0,1,.29,5,5,0,0,0-.86-.46A5.21,5.21,0,0,0,105.54,365.63Z"/><path class="cls-3" d="M107.51,368.63a3,3,0,0,0,1,.44,7.86,7.86,0,0,0,1.13.24,4,4,0,0,0,.7,0,.56.56,0,0,0,.37-.19.43.43,0,0,0,0-.46,2,2,0,0,0-2.43-.47,1.89,1.89,0,0,0-.6.5c-.12.15-.16.25-.15.25a3.06,3.06,0,0,1,.82-.62,1.91,1.91,0,0,1,1.07-.17,1.69,1.69,0,0,1,1.11.6c.1.19,0,.34-.25.37a2.83,2.83,0,0,1-.65,0,7.42,7.42,0,0,1-1.12-.19C107.89,368.77,107.52,368.6,107.51,368.63Z"/><path class="cls-3" d="M107.74,368.79a1,1,0,0,0,.41-.62,1.8,1.8,0,0,0,.06-.82,1.09,1.09,0,0,0-.58-.86c-.24-.07-.79.41-.83.58s.28.09.29.24a3.14,3.14,0,0,0,.2.79,1.4,1.4,0,0,0,.37.64s-.11-.26-.24-.69a3.69,3.69,0,0,1-.14-.76c0-.26,0-.67.3-.6s.39.43.45.69a1.74,1.74,0,0,1,0,.76A4,4,0,0,1,107.74,368.79Z"/><path class="cls-3" d="M97.86,366.58a9.6,9.6,0,0,0,2.1,1.2,9.75,9.75,0,0,0,2.29.8c0-.06-1-.43-2.2-1S97.89,366.53,97.86,366.58Z"/><g class="cls-13"><path class="cls-14" d="M89.75,364.38l.24.14.73.39,2.68,1.35c2.27,1.13,5.42,2.65,8.95,4.25s6.74,3,9.09,3.95l2.78,1.12.76.3.28.09a1.63,1.63,0,0,0-.26-.13l-.75-.33-2.76-1.18c-2.33-1-5.54-2.4-9.06-4s-6.69-3.1-9-4.2l-2.71-1.29-.74-.35Z"/><path class="cls-14" d="M109.82,374a4.28,4.28,0,0,1,2.51-1.7,2.67,2.67,0,0,0-2.51,1.7Z"/><path class="cls-14" d="M94.92,365.22s0,.25,0,.52,0,.49,0,.51.19-.2.19-.51S95,365.2,94.92,365.22Z"/><path class="cls-14" d="M94.44,363.34s0,.22.06.44.19.4.24.38,0-.22-.06-.45S94.49,363.32,94.44,363.34Z"/><path class="cls-14" d="M93.14,362c0,.06.18.15.37.33s.29.36.35.35,0-.28-.21-.5S93.14,361.93,93.14,362Z"/><path class="cls-14" d="M92.14,361.17s0,.16.11.26.22.16.26.12,0-.15-.11-.26S92.18,361.13,92.14,361.17Z"/></g><path class="cls-9" d="M154.66,110.52c.13-1.38.41-3.24.47-4.1.19-2.62.64-3.2,1.51-2.81,1.42.63-.07,7.31,1,7.4.55,0,1.28-3.86,1.57-5.78s.53-4.85.66-5.85,2-1.34,1.94.6-.16,7.55.31,7.76c1.29.6,1.24-7.3,1.55-9.88A3.34,3.34,0,0,1,164,96.6a1,1,0,0,1,1.78.4c.34,2.52-.16,9.33,0,10.43.06.34.91.51,1.12-.62.28-1.51.15-8.77,1.64-8.12s-.12,9.28.55,10.16c1.25,1.63,1.39-7.7,2.94-7.3.78.21.77.5,0,5.48-.37,2.29-1.9,7.26-2.73,11.51,3.59,12.67,9.88,36.42,9,44.25-.53,4.48-10.93,7.58-15.39,4.24s-7.57-18.25-7.57-18.25l5.36-3.17-5.24-28.73h0c-.22-.6-.32-2.16-.64-2.9A8.55,8.55,0,0,1,154.66,110.52Z"/><path class="cls-9" d="M163.69,160.75a53.59,53.59,0,0,1-1.74-7.5,53.64,53.64,0,0,1-1.21-7.61,57.19,57.19,0,0,1,1.74,7.5A55.19,55.19,0,0,1,163.69,160.75Z"/><path class="cls-3" d="M150.91,91.45a67.14,67.14,0,0,1,13.74-.55,5,5,0,0,0-2.78-7.19,4.2,4.2,0,0,1-1.63-.71,2.76,2.76,0,0,1-.37-2.73,4.08,4.08,0,0,0,.12-2.83c-.67-1.36-2.64-1.38-3.74-2.42-1.26-1.2-1-3.23-1.2-5A7.36,7.36,0,0,0,148.77,64"/><path class="cls-3" d="M134.22,56.07A12.36,12.36,0,0,0,120.85,62c-1.37,2.49-2.07,5.7-4.61,7-1.55.78-3.39.59-5.11.75s-3.68,1-4.09,2.65.88,3.79-.27,5.12c-.73.85-2,.8-3.08,1.24-2.1.89-2.7,3.61-2.47,5.88s1,4.56.45,6.78a29,29,0,0,0,7,1.54A10,10,0,0,0,115.53,91a2.53,2.53,0,0,0,1.3,2.52,6.35,6.35,0,0,0,2.91.71,28.55,28.55,0,0,0,9.81-1.09"/><path class="cls-9" d="M145.56,104.2c-.07-4.3-.13-8.57-.13-8.57s7-.68,7.46-7.76.25-23.41.25-23.41L140.53,58,127.1,68.84l.54,35.79a9,9,0,0,0,9.41,8.66h0A9,9,0,0,0,145.56,104.2Z"/><path class="cls-3" d="M116.54,75.32c.08-.5-.07.54,0-.24h0a26.47,26.47,0,0,1,.46-2.86c3.92-14.73,16.6-17.36,19.1-17.33,2.68,0,10.36-.2,14.63,5.15a14,14,0,0,1,2.44,14.06h0l-11.18-2c.83-2.79-.31-6.27-1-7.89l-.06-.06c-2.13,10.58-13.53,13-13.53,13l-.14,15.51c-8.3-1.2-11-11.17-10.79-17.3Z"/><path class="cls-9" d="M127.61,83.56c.07-1.07.56-3.61.2-4.61s-1.47-1.23-2.69-1.22a2.75,2.75,0,0,0-2.65,2.64A3.6,3.6,0,0,0,124,83.49a4,4,0,0,0,3.54.19"/><path class="cls-10" d="M126.29,82.16c0-.07-.35.08-.8-.07a1.44,1.44,0,0,1-.92-1.39,1.12,1.12,0,0,1,.25-.84,1,1,0,0,1,.71-.19c.47.06.81.2.84.11s-.21-.3-.78-.48a1.24,1.24,0,0,0-1.07.18,1.45,1.45,0,0,0-.48,1.25,2,2,0,0,0,.44,1.2,1.45,1.45,0,0,0,.93.52C126,82.53,126.34,82.2,126.29,82.16Z"/><path class="cls-3" d="M151.63,76.55a.88.88,0,0,1-.89.89.89.89,0,0,1-.88-.91.89.89,0,1,1,1.77,0Z"/><path class="cls-3" d="M152.5,75.57c-.12.11-.77-.46-1.72-.52s-1.67.4-1.76.26.07-.27.38-.49a2.32,2.32,0,0,1,2.78.21C152.46,75.29,152.55,75.52,152.5,75.57Z"/><path class="cls-3" d="M141.4,76.55a.91.91,0,0,1-.9.9.91.91,0,0,1,0-1.82A.91.91,0,0,1,141.4,76.55Z"/><path class="cls-3" d="M142,75.57c-.11.11-.76-.46-1.71-.52s-1.67.4-1.76.26.07-.27.38-.49a2.32,2.32,0,0,1,2.78.21C141.92,75.29,142,75.52,142,75.57Z"/><path class="cls-3" d="M145.3,83.54a5.57,5.57,0,0,1,1.56-.19c.24,0,.47,0,.52-.23a1.34,1.34,0,0,0-.13-.78l-.63-2A38.37,38.37,0,0,1,145.23,75,35.71,35.71,0,0,1,147,80.19l.6,2a1.55,1.55,0,0,1,.08,1,.57.57,0,0,1-.41.35,1.59,1.59,0,0,1-.42,0A5.81,5.81,0,0,1,145.3,83.54Z"/><path class="cls-3" d="M145.24,85.58c-.05,0,.18-.32.66-.22a.83.83,0,0,1,.61.6.91.91,0,0,1-1.4,1,.8.8,0,0,1-.34-.79c.1-.5.47-.58.48-.51s-.13.24-.1.53a.43.43,0,0,0,.23.35.51.51,0,0,0,.48,0,.52.52,0,0,0,.17-.46.47.47,0,0,0-.26-.35C145.51,85.57,145.28,85.64,145.24,85.58Z"/><path class="cls-3" d="M142.51,72.77c0,.15-1.08,0-2.3.29s-2.1.85-2.19.73.7-1,2.07-1.26A3,3,0,0,1,142.51,72.77Z"/><g class="cls-13"><path class="cls-14" d="M137.93,55a9.75,9.75,0,0,1-1.17,0,9.32,9.32,0,0,0-3.06.6,10.85,10.85,0,0,0-3.86,2.48,13.59,13.59,0,0,0-3,4.75,26.51,26.51,0,0,0-1.38,10.24c0,1.25.08,2.32.12,3.18a4.85,4.85,0,0,1,0,1.17,5.35,5.35,0,0,1-.19-1.15c-.09-.75-.21-1.83-.29-3.18a34.21,34.21,0,0,1,0-4.75,20.22,20.22,0,0,1,1.25-5.7,13.66,13.66,0,0,1,3.17-4.92,11,11,0,0,1,4.09-2.48,8.56,8.56,0,0,1,3.19-.45,5.91,5.91,0,0,1,.87.11C137.83,54.93,137.93,55,137.93,55Z"/></g><path class="cls-10" d="M146.2,95.48a4.18,4.18,0,0,1-1.67.31,11.92,11.92,0,0,1-4.07-.47,9.16,9.16,0,0,1-3.59-2c-.78-.71-1.11-1.29-1.06-1.32s.5.42,1.3,1a11,11,0,0,0,3.51,1.76C143.6,95.7,146.19,95.29,146.2,95.48Z"/><path class="cls-3" d="M151.21,157a4.36,4.36,0,0,1-.14-1.08,6.9,6.9,0,0,1,.1-1.27,7.2,7.2,0,0,1,.42-1.64,12.6,12.6,0,0,1,.85-1.86c.35-.65.77-1.31,1.2-2a21,21,0,0,0,2.41-4.65,10.75,10.75,0,0,0,.52-2.63,13.87,13.87,0,0,0-.08-2.51,25.22,25.22,0,0,0-.88-4.2c-.69-2.36-1.28-3.78-1.19-3.81a4,4,0,0,1,.5,1c.28.63.66,1.56,1.05,2.74a21.79,21.79,0,0,1,1,4.25,13.13,13.13,0,0,1,.11,2.61,11.28,11.28,0,0,1-.52,2.76,20.37,20.37,0,0,1-2.51,4.74c-.44.69-.87,1.33-1.23,2a14,14,0,0,0-.89,1.77,9.35,9.35,0,0,0-.48,1.56,10.15,10.15,0,0,0-.18,1.23A4,4,0,0,1,151.21,157Z"/><path class="cls-3" d="M108.43,288.78s0-.12.1-.34.19-.59.33-1c.31-.91.76-2.2,1.33-3.85s1.33-3.7,2.19-6.06,1.88-5,3-8l8-20.71,4.7-12.24c1.63-4.25,3.27-8.66,4.94-13.18s3.28-9,4.75-13.26l2.17-6.33q1-3.12,2-6.1c1.33-4,2.36-7.79,3.44-11.35.51-1.79.94-3.53,1.38-5.19s.91-3.26,1.22-4.81.66-3,1-4.4c.16-.69.31-1.36.45-2s.22-1.3.32-1.92q.3-1.85.57-3.45a27.37,27.37,0,0,0,.4-2.9q.26-2.61.39-4c0-.44.08-.79.11-1.06s.05-.36.05-.35a1.63,1.63,0,0,1,0,.36q0,.39-.06,1.05c-.06,1-.16,2.33-.28,4.07a26.62,26.62,0,0,1-.36,2.92c-.16,1.07-.33,2.22-.52,3.46-.1.63-.2,1.27-.3,1.93s-.28,1.34-.43,2c-.3,1.4-.61,2.87-.93,4.42s-.77,3.14-1.18,4.82-.86,3.42-1.36,5.21c-1.06,3.57-2.08,7.41-3.4,11.38l-2,6.12q-1.06,3.11-2.16,6.34c-1.47,4.3-3.09,8.73-4.74,13.26s-3.32,8.94-5,13.18L123.84,249c-3,7.77-5.79,14.78-8.1,20.67l-3.08,8c-.89,2.35-1.68,4.36-2.28,6s-1.08,2.91-1.42,3.82c-.16.41-.28.74-.38,1A1.21,1.21,0,0,1,108.43,288.78Z"/><path class="cls-3" d="M151.21,156.21a52.58,52.58,0,0,1-7.39.54,51.68,51.68,0,0,1-7.41,0,52,52,0,0,1,7.4-.55A50.52,50.52,0,0,1,151.21,156.21Z"/><path class="cls-3" d="M145.63,156.43s-.23.07-.53-.15a3.35,3.35,0,0,1-.82-1.22c-.29-.61-.6-1.24-.91-1.9a6.48,6.48,0,0,1-.49-1.21,1.3,1.3,0,0,1,.58-1.46,1,1,0,0,1,.9,0,1.79,1.79,0,0,1,.56.53,6.12,6.12,0,0,1,.6,1.16,7.49,7.49,0,0,1,.48,2.11,3.61,3.61,0,0,1-.25,2c-.08,0,0-.75-.13-1.92a7.87,7.87,0,0,0-.56-2,6.62,6.62,0,0,0-.57-1c-.22-.32-.55-.53-.79-.4a.78.78,0,0,0-.3.87,6.6,6.6,0,0,0,.42,1.11l.81,2a3.88,3.88,0,0,0,.61,1.22C145.45,156.35,145.64,156.39,145.63,156.43Z"/><path class="cls-3" d="M145.66,157a8.22,8.22,0,0,1,.66-2.16c.25-.65.58-1.42,1-2.25.2-.42.42-.85.65-1.29a2.55,2.55,0,0,1,.49-.7.87.87,0,0,1,1-.18,1.07,1.07,0,0,1,.53.85,2.41,2.41,0,0,1-.11.84,6,6,0,0,1-.53,1.4,6.33,6.33,0,0,1-1.6,1.93,3.86,3.86,0,0,1-2,1,18.23,18.23,0,0,0,1.79-1.29,6.45,6.45,0,0,0,1.41-1.87,6.34,6.34,0,0,0,.46-1.29c.13-.46.13-.94-.16-1.1s-.59.23-.8.65-.45.86-.66,1.27c-.42.81-.77,1.55-1.07,2.18A10.89,10.89,0,0,1,145.66,157Z"/><polygon class="cls-12" points="121.38 125.15 124.3 144.86 122.41 148.31 120.1 141.61 120.62 141.52 121.38 125.15"/><path class="cls-9" d="M111.93,141.16l8.17.45a41.72,41.72,0,0,0,2.31,6.71c6.58-11.42,11.68-26.73,13-32.88-.19-.61-.41-1.29-.68-2a9,9,0,0,1,.1-3.46c.23-1.37.61-3.21.72-4.06.35-2.6.77-3,1.68-2.71,1.23.4-.51,7.29.5,7.44.55.08,1.21-2.28,1.4-4.22s1.07-7.9,1.71-8.3c.94-.58,1.76.34,1.52,2.27s-.54,7.78.49,7.86,1.85-9.81,1.85-9.81-.16-2.15,1-2.1c2.14.09.47,10.52.29,11.51-.13.68,1,.81,1.08.06s.61-9.88,2.79-9.81c1.67.06-1.29,8.59-.35,10.57s1.59-6.72,3.18-6.6c.6,0,1,.16,0,5.08a113.46,113.46,0,0,1-3.82,11.54c-2.53,13.64-13.64,57.3-31.05,49.31-9.74-4.47-14.29-26.61-14.29-26.61Z"/><path class="cls-10" d="M146.49,108.38a.53.53,0,0,1-.22,0,.49.49,0,0,1-.36-.54c0-.59.12-1.44.25-2.55a38.52,38.52,0,0,0,.44-4c0-.79,0-1.64-.06-2.54a8.82,8.82,0,0,0-.13-1.36c-.08-.43-.36-.92-.7-.86h-.05c-.33,0-.6.24-.7.64a3.82,3.82,0,0,0-.13,1.27h0v0a76.36,76.36,0,0,1-1,7.88,10.41,10.41,0,0,1-.26,1.07c-.06.18-.12.36-.2.54a1.64,1.64,0,0,1-.16.28.52.52,0,0,1-.39.25.71.71,0,0,1-.6-.5,2.55,2.55,0,0,1-.17-.58,7.57,7.57,0,0,1-.16-1.15,34.13,34.13,0,0,1,.07-4.73,11.14,11.14,0,0,0,.09-2.36,1.28,1.28,0,0,0-.46-.88.49.49,0,0,0-.41,0,1,1,0,0,0-.22.09.32.32,0,0,0-.1.14,11.82,11.82,0,0,0-.66,2.38c-.17.83-.31,1.68-.45,2.55s-.25,1.73-.35,2.61a19.43,19.43,0,0,1-.44,2.68,9.43,9.43,0,0,1-.42,1.34,2.76,2.76,0,0,1-.39.67.53.53,0,0,1-.95-.22,4.43,4.43,0,0,1-.1-1.47c0-.47,0-.93.09-1.4.07-.79.15-1.58.17-2.36a7.07,7.07,0,0,0,0-1.13,2.07,2.07,0,0,0-.12-.49.33.33,0,0,0-.09-.14s0,0,0,0l-.12,0c-.63-.26-.83.61-1,1.31s-.24,1.49-.39,2.24c-.24,1.48-.56,3-.73,4.38a4.93,4.93,0,0,0,.09,2l.66,2,0,.06,0,.07a109.19,109.19,0,0,1-4.22,13.65c-1.5,4-3,7.52-4.31,10.36s-2.5,5.05-3.31,6.55l-1,1.69a4.59,4.59,0,0,1-.36.57,4.42,4.42,0,0,1,.29-.61c.22-.43.53-1,.91-1.73.77-1.52,1.9-3.73,3.17-6.6S129.51,133,131,129a112.9,112.9,0,0,0,4.13-13.61v.13c-.21-.66-.43-1.33-.66-2a5.42,5.42,0,0,1-.11-2.26c.16-1.48.47-2.91.72-4.41.15-.74.24-1.5.39-2.27a4.69,4.69,0,0,1,.38-1.17,1.14,1.14,0,0,1,.52-.52,1.09,1.09,0,0,1,.75,0l.16,0a.72.72,0,0,1,.21.12,1,1,0,0,1,.24.34,2.23,2.23,0,0,1,.16.64,8.35,8.35,0,0,1,0,1.22c0,.8-.1,1.6-.17,2.39,0,.46-.08.92-.1,1.37a4.68,4.68,0,0,0,.07,1.27c0,.1.07.08,0,.13h0s0,.05,0,0h0v0s0,0,0,0a.1.1,0,0,0,.05,0,1.9,1.9,0,0,0,.29-.51,8.8,8.8,0,0,0,.4-1.26,17.54,17.54,0,0,0,.43-2.61c.1-.89.23-1.77.36-2.64s.29-1.72.46-2.57a11.37,11.37,0,0,1,.72-2.52.76.76,0,0,1,.29-.33,1.94,1.94,0,0,1,.36-.15,1,1,0,0,1,.79.11,1.75,1.75,0,0,1,.7,1.23,4.37,4.37,0,0,1,0,1.3c-.05.4-.09.79-.12,1.19a34.69,34.69,0,0,0-.09,4.65,9.43,9.43,0,0,0,.14,1.1,3,3,0,0,0,.14.48.5.5,0,0,0,.11.18c0,.08.06,0,.06.11-.05-.1,0,0,0-.12a1,1,0,0,0,.12-.2l.18-.48c.1-.34.18-.69.26-1a78,78,0,0,0,1.06-7.82v0a4.16,4.16,0,0,1,.16-1.41,1.46,1.46,0,0,1,.37-.63,1,1,0,0,1,.7-.25h-.05a.8.8,0,0,1,.81.39,2.19,2.19,0,0,1,.29.74,10.13,10.13,0,0,1,.13,1.42c0,.9,0,1.76,0,2.56a33.42,33.42,0,0,1-.52,4c-.16,1.1-.29,2-.34,2.52a.45.45,0,0,0,.28.5C146.42,108.36,146.5,108.36,146.49,108.38Z"/><path class="cls-2" d="M291.48,99.89l-51.35,46.75a12,12,0,0,0,4.31,20.28c18.42,6.1,46,15.19,65.18,21.48A12.76,12.76,0,0,0,326,173.29l-16.31-67.8A11.08,11.08,0,0,0,291.48,99.89Z"/><path class="cls-6" d="M291,104.38s.13-.18.46-.47c.17-.15.36-.34.62-.54l1-.61c.37-.22.83-.39,1.31-.62a11.43,11.43,0,0,1,1.69-.46,9.94,9.94,0,0,1,4.37.16,10.5,10.5,0,0,1,4.77,2.71,10.31,10.31,0,0,1,1.84,2.6c.12.25.24.5.37.75s.18.54.27.81c.19.56.31,1.1.45,1.66l3.76,15.1,9.65,39.35,1.36,5.64a12,12,0,0,1-.17,6.24,12.25,12.25,0,0,1-15.69,8.17l-6.06-2-12.38-4.08-24.39-8.05-11.6-3.85L249.8,166l-1.4-.47-1.45-.59a11.36,11.36,0,0,1-4.58-4.07,11.64,11.64,0,0,1-.7-11.35,13.9,13.9,0,0,1,.71-1.25c.28-.38.55-.78.85-1.14l1-1c.33-.32.65-.6,1-.9l3.84-3.46,14-12.63c8.57-7.71,15.53-13.93,20.37-18.2L289,106a15.43,15.43,0,0,1,2-1.62,15.84,15.84,0,0,1-1.81,1.86c-1.24,1.19-3.06,2.91-5.39,5.12-4.7,4.41-11.55,10.76-20,18.58l-13.88,12.77-3.81,3.5c-.32.29-.66.59-1,.89l-.86.9c-.26.33-.49.67-.74,1s-.41.73-.62,1.1a10.23,10.23,0,0,0,.67,9.92,9.86,9.86,0,0,0,4,3.51l1.27.51,1.4.46,2.83.93,11.61,3.81,24.41,8,12.37,4.08,6.06,2a10.7,10.7,0,0,0,13.72-7.1,10.54,10.54,0,0,0,.16-5.46c-.44-1.9-.89-3.78-1.33-5.63-3.5-14.84-6.66-28.2-9.31-39.43-1.3-5.62-2.49-10.7-3.52-15.16a16.37,16.37,0,0,0-.42-1.61c-.07-.25-.14-.51-.23-.75s-.21-.47-.32-.71a9.64,9.64,0,0,0-1.64-2.42,9.85,9.85,0,0,0-4.38-2.64,9.34,9.34,0,0,0-4.13-.29,11.59,11.59,0,0,0-1.63.36c-.48.2-.92.34-1.3.53l-1,.53c-.27.17-.48.34-.66.46A2.18,2.18,0,0,1,291,104.38Z"/><path class="cls-6" d="M289.16,119.47l-6.57,24.85a4.15,4.15,0,0,0,2.48,4.92h0a4.14,4.14,0,0,0,5.32-2.12l10.86-23.55a3.27,3.27,0,0,0-2-4.48l-6-1.89A3.27,3.27,0,0,0,289.16,119.47Z"/><path class="cls-6" d="M286.87,164a6.26,6.26,0,1,1-1.26-8.77A6.27,6.27,0,0,1,286.87,164Z"/><path class="cls-3" d="M270.65,74.08,244,82.91a4.85,4.85,0,0,0-1.73,8.19c5.79,5.27,14.49,13.15,20.52,18.61a5.15,5.15,0,0,0,8.53-2.88l5.1-27.69A4.47,4.47,0,0,0,270.65,74.08Z"/><path class="cls-6" d="M269.75,75.67s.3-.26,1-.36a4,4,0,0,1,3,.82A4.38,4.38,0,0,1,275.17,78a4.9,4.9,0,0,1,.17,2.75c-.3,1.83-.64,3.91-1,6.2-.79,4.6-1.74,10.06-2.79,16.12-.14.76-.28,1.53-.41,2.31a5.42,5.42,0,0,1-6.37,4.3,5.37,5.37,0,0,1-2.61-1.32l-1.91-1.73c-1.29-1.16-2.59-2.33-3.9-3.53l-7.68-7L245,92.77l-.88-.81-.44-.4-.48-.51a4.94,4.94,0,0,1-1.12-2.47,5.12,5.12,0,0,1,1.77-4.69,5,5,0,0,1,1.06-.68l.58-.23.51-.17,2-.64,7.26-2.3c4.44-1.4,8.05-2.5,10.55-3.23a18.66,18.66,0,0,1,3.94-1A20.26,20.26,0,0,1,266,77.24c-2.44.91-6,2.18-10.39,3.71l-7.2,2.49-2,.68-.49.17-.42.18a3.77,3.77,0,0,0-.75.5,3.71,3.71,0,0,0-1.22,3.38,3.5,3.5,0,0,0,.81,1.73l.34.35.44.4.9.8,3.67,3.3,7.69,7,3.89,3.53,1.91,1.74a3.86,3.86,0,0,0,5.55-.32,3.78,3.78,0,0,0,.87-1.77c.14-.77.29-1.53.44-2.29,1.17-6,2.24-11.47,3.13-16,.46-2.28.89-4.34,1.26-6.16a4.26,4.26,0,0,0,0-2.33,3.84,3.84,0,0,0-1.09-1.63,3.94,3.94,0,0,0-2.58-1C270.12,75.63,269.77,75.74,269.75,75.67Z"/><path class="cls-6" d="M266.58,80.93,260.08,89a1.69,1.69,0,0,0,.1,2.23h0a1.69,1.69,0,0,0,2.32.09l7.87-6.91a1.33,1.33,0,0,0,0-2l-1.89-1.67A1.31,1.31,0,0,0,266.58,80.93Z"/><path class="cls-6" d="M258.43,97A2.52,2.52,0,0,1,256,92.55,2.52,2.52,0,1,1,258.43,97Z"/><path class="cls-3" d="M340.71,111.86l-13,17.61a3.79,3.79,0,0,0,2.58,6c6.07.76,15.17,1.87,21.48,2.65a4,4,0,0,0,4.15-5.68l-9.2-20A3.5,3.5,0,0,0,340.71,111.86Z"/><path class="cls-6" d="M340.85,113.27s.06-.31.46-.71a3.15,3.15,0,0,1,2.31-.86,3.39,3.39,0,0,1,1.78.54,3.8,3.8,0,0,1,1.39,1.71l2.17,4.4,5.5,11.54c.26.54.52,1.1.78,1.66a4.34,4.34,0,0,1,.38,2.2,4.38,4.38,0,0,1-4.94,4l-2-.24-4.08-.5-8-1-3.82-.5-.93-.12-.47-.06-.55-.11a4.08,4.08,0,0,1-1.9-1.12,4.18,4.18,0,0,1-1-4,4.33,4.33,0,0,1,.39-.94l.28-.42.25-.34,1-1.3,3.61-4.73c2.22-2.88,4-5.19,5.33-6.77a12.58,12.58,0,0,1,2.13-2.36,11.74,11.74,0,0,1-1.62,2.73c-1.14,1.69-2.82,4.11-4.92,7.08l-3.46,4.84-1,1.33-.24.33-.17.29a2.75,2.75,0,0,0-.24.62A2.71,2.71,0,0,0,330,133a2.58,2.58,0,0,0,1.22.7l.35.06.46.06.94.11,3.82.45,8.05,1,4.08.51,2,.25a2.79,2.79,0,0,0,1.52-.21,2.89,2.89,0,0,0,1.7-2.33,2.85,2.85,0,0,0-.23-1.44l-.75-1.66c-1.95-4.38-3.7-8.34-5.19-11.68L346,114.32a2.85,2.85,0,0,0-2.39-2,3.1,3.1,0,0,0-2.06.49C341.09,113.1,340.91,113.32,340.85,113.27Z"/><path class="cls-6" d="M341.2,118.06l-.51,8.09a1.31,1.31,0,0,0,1.06,1.37h0a1.31,1.31,0,0,0,1.52-1l1.92-8a1,1,0,0,0-.89-1.26l-2-.22A1,1,0,0,0,341.2,118.06Z"/><path class="cls-6" d="M343.21,132a2,2,0,1,1-.92-2.63A2,2,0,0,1,343.21,132Z"/><path class="cls-3" d="M221.91,162.48a3.84,3.84,0,0,1-.39-.91,10.65,10.65,0,0,1-.35-1.11c-.11-.44-.26-.93-.35-1.5a22.33,22.33,0,0,1-.39-4,23,23,0,0,1,2-9.55,22.37,22.37,0,0,1,2-3.49c.31-.48.65-.87.93-1.23a8.08,8.08,0,0,1,.77-.87c.44-.46.69-.7.72-.67s-.89,1.09-2.1,3a24.48,24.48,0,0,0-1.83,3.47,24.65,24.65,0,0,0-2,9.36,25,25,0,0,0,.27,3.92C221.54,161.12,222,162.44,221.91,162.48Z"/><path class="cls-3" d="M229.6,167.34s-.24-.29-.58-.87a8.27,8.27,0,0,1-.57-1.09,13.79,13.79,0,0,1-.64-1.5,21.19,21.19,0,0,1-1.11-4.09,25.63,25.63,0,0,1-.26-5.2,25,25,0,0,1,.91-5.11,22.15,22.15,0,0,1,1.61-3.93,13,13,0,0,1,.83-1.4,7.52,7.52,0,0,1,.7-1c.41-.53.65-.82.68-.79s-.83,1.23-1.87,3.37a24,24,0,0,0-1.47,3.89,25.88,25.88,0,0,0-.85,5,27,27,0,0,0,.21,5.08,24.26,24.26,0,0,0,1,4C228.93,166,229.69,167.29,229.6,167.34Z"/><path class="cls-3" d="M321.8,196.54c-.06-.08,1.26-1.07,3.11-3a34.76,34.76,0,0,0,3-3.54,37.56,37.56,0,0,0,3-4.82A36.88,36.88,0,0,0,333,180a32.9,32.9,0,0,0,1.07-4.5c.44-2.61.45-4.26.55-4.26a4.41,4.41,0,0,1,.06,1.16,23.66,23.66,0,0,1-.23,3.15,30.17,30.17,0,0,1-1,4.6,33.42,33.42,0,0,1-2.12,5.34,34.28,34.28,0,0,1-3.05,4.88,31,31,0,0,1-3.13,3.51,22.45,22.45,0,0,1-2.4,2.05A5.13,5.13,0,0,1,321.8,196.54Z"/><path class="cls-3" d="M330.24,198c-.06-.08,1-.89,2.47-2.46a25.81,25.81,0,0,0,2.33-2.94,25.43,25.43,0,0,0,3.68-8.37,26.34,26.34,0,0,0,.58-3.71c.17-2.14,0-3.48.14-3.49a3.24,3.24,0,0,1,.16.94,16,16,0,0,1,.08,2.57,22.51,22.51,0,0,1-.48,3.8,25.84,25.84,0,0,1-1.44,4.46,25.35,25.35,0,0,1-2.31,4.08,21.56,21.56,0,0,1-2.47,2.92,17.15,17.15,0,0,1-1.94,1.69A3.26,3.26,0,0,1,330.24,198Z"/></svg>