<svg id="Layer_1" data-name="Layer 1" xmlns="http://www.w3.org/2000/svg" viewBox="0 0 88 88"><defs><style>.cls-1{fill:#f3e7fb;}.cls-2{fill:#e2b8fd;}</style></defs><title>address</title><circle class="cls-1" cx="44" cy="44" r="44"/><g id="Location"><path class="cls-2" d="M44.57,44.21a7.29,7.29,0,1,1,7.28-7.28A7.28,7.28,0,0,1,44.57,44.21Zm0-12.95a5.67,5.67,0,1,0,5.66,5.67A5.67,5.67,0,0,0,44.57,31.26Z" transform="translate(0.1)"/><path class="cls-2" d="M68.75,67.29l-8.1-14.57a.8.8,0,0,0-.7-.42H53.8c4-4.93,7.77-10.86,7.77-15.37a17,17,0,0,0-34,0c0,4.51,3.81,10.44,7.76,15.37H29.19a.8.8,0,0,0-.71.42L20.39,67.29a.81.81,0,0,0,.31,1.1.78.78,0,0,0,.39.1H68a.81.81,0,0,0,.81-.81A.78.78,0,0,0,68.75,67.29ZM44.57,21.55A15.4,15.4,0,0,1,60,36.93C60,44.5,47.39,57.3,44.57,60.08,41.75,57.3,29.19,44.5,29.19,36.93A15.4,15.4,0,0,1,44.57,21.55ZM34.21,63.64l1.1-2.43h4.41l-.87,2.43Zm-6.24,0,1.35-2.43h4.22l-1.11,2.43ZM40.7,58.45l-.41,1.14H36.05l1.11-2.43H39.5l1.2,1.29Zm-6.43,1.14H30.22l1.35-2.43h3.81Zm7.68.16c1.14,1.17,1.92,1.91,2.06,2a.82.82,0,0,0,1.11,0c.14-.14.92-.88,2.06-2l1.38,3.89h-8Zm8.33,3.89-.86-2.43h4.4l1.11,2.43Zm6.42,0-1.1-2.43h4.21l1.35,2.43Zm-1.84-4-1.1-2.43h3.81l1.35,2.43ZM52,57.16l1.1,2.43H48.84l-.4-1.14c.38-.41.78-.83,1.19-1.29ZM22.47,66.87l7.19-13h7c.47.56.93,1.1,1.39,1.62h-7a.81.81,0,0,0-.71.42l-4.49,8.09a.82.82,0,0,0,.71,1.21H62.54a.82.82,0,0,0,.81-.81.91.91,0,0,0-.1-.4L58.75,56a.8.8,0,0,0-.7-.42h-7c.46-.52.92-1.06,1.39-1.62h7l7.2,13Z" transform="translate(0.1)"/></g></svg>