<?xml version="1.0" encoding="utf-8"?>
<!-- Generator: Adobe Illustrator 23.0.5, SVG Export Plug-In . SVG Version: 6.00 Build 0)  -->
<svg version="1.1" id="Layer_1" xmlns="http://www.w3.org/2000/svg" xmlns:xlink="http://www.w3.org/1999/xlink" x="0px" y="0px"
	 viewBox="0 0 405.7 59.9" style="enable-background:new 0 0 405.7 59.9;" xml:space="preserve">
<style type="text/css">
	.st0{fill:#457E62;}
	.st1{fill:#D5DDE3;}
	.st2{fill:#4285F4;}
</style>
<path class="st0" d="M126.5,29.1H13.4c-1.9,0-3.5-1.6-3.5-3.5v0c0-1.9,1.6-3.5,3.5-3.5h113.2c1.9,0,3.5,1.6,3.5,3.5v0
	C130.1,27.5,128.5,29.1,126.5,29.1z"/>
<path class="st1" d="M263,29.1H149.8c-1.9,0-3.5-1.6-3.5-3.5v0c0-1.9,1.6-3.5,3.5-3.5H263c1.9,0,3.5,1.6,3.5,3.5v0
	C266.5,27.5,264.9,29.1,263,29.1z"/>
<path class="st1" d="M397.6,42.1H137.2c-1.9,0-3.5-1.6-3.5-3.5v0c0-1.9,1.6-3.5,3.5-3.5h260.4c1.9,0,3.5,1.6,3.5,3.5v0
	C401.1,40.5,399.5,42.1,397.6,42.1z"/>
<path class="st1" d="M126.5,42.1H13.5c-1.9,0-3.5-1.6-3.5-3.5v0c0-1.9,1.6-3.5,3.5-3.5h113.1c1.9,0,3.5,1.6,3.5,3.5v0
	C130.1,40.5,128.5,42.1,126.5,42.1z"/>
<path class="st1" d="M269.9,55.1H13.5c-1.9,0-3.5-1.6-3.5-3.5v0c0-1.9,1.6-3.5,3.5-3.5h256.4c1.9,0,3.5,1.6,3.5,3.5v0
	C273.4,53.6,271.8,55.1,269.9,55.1z"/>
<g>
	<path class="st2" d="M15.4,9.3l1.8,0.6c-0.3,1-0.7,1.8-1.4,2.3c-0.6,0.5-1.5,0.8-2.5,0.8c-1.2,0-2.3-0.4-3-1.3
		c-0.8-0.9-1.2-2-1.2-3.5c0-1.6,0.4-2.8,1.2-3.7c0.8-0.9,1.9-1.3,3.2-1.3c1.1,0,2.1,0.3,2.8,1c0.4,0.4,0.7,1,1,1.7l-1.9,0.5
		c-0.1-0.5-0.3-0.9-0.7-1.2s-0.8-0.4-1.3-0.4c-0.7,0-1.2,0.3-1.7,0.8S11.1,6.8,11.1,8c0,1.2,0.2,2,0.6,2.5c0.4,0.5,1,0.8,1.7,0.8
		c0.5,0,0.9-0.2,1.3-0.5C15,10.5,15.3,10,15.4,9.3z"/>
	<path class="st2" d="M18.5,9.2c0-0.6,0.1-1.2,0.4-1.7c0.3-0.6,0.7-1,1.2-1.3c0.5-0.3,1.1-0.4,1.8-0.4c1,0,1.9,0.3,2.5,1
		c0.7,0.7,1,1.5,1,2.5c0,1-0.3,1.9-1,2.6c-0.7,0.7-1.5,1-2.5,1c-0.6,0-1.2-0.1-1.8-0.4c-0.6-0.3-1-0.7-1.3-1.2S18.5,10,18.5,9.2z
		 M20.3,9.3c0,0.7,0.2,1.2,0.5,1.6s0.7,0.5,1.2,0.5c0.5,0,0.9-0.2,1.2-0.5c0.3-0.4,0.5-0.9,0.5-1.6c0-0.7-0.2-1.2-0.5-1.5
		c-0.3-0.4-0.7-0.5-1.2-0.5c-0.5,0-0.9,0.2-1.2,0.5C20.4,8.1,20.3,8.6,20.3,9.3z"/>
	<path class="st2" d="M26.7,5.9h1.6v0.9c0.6-0.7,1.3-1.1,2.1-1.1c0.4,0,0.8,0.1,1.1,0.3c0.3,0.2,0.6,0.5,0.8,0.8
		c0.3-0.4,0.6-0.6,1-0.8s0.7-0.3,1.1-0.3c0.5,0,0.9,0.1,1.3,0.3C36,6.3,36.2,6.6,36.4,7c0.1,0.3,0.2,0.8,0.2,1.4v4.4h-1.8V8.8
		c0-0.7-0.1-1.1-0.2-1.3c-0.2-0.3-0.4-0.4-0.8-0.4c-0.2,0-0.5,0.1-0.7,0.2c-0.2,0.2-0.4,0.4-0.5,0.7c-0.1,0.3-0.1,0.8-0.1,1.4v3.3
		h-1.8V9c0-0.7,0-1.1-0.1-1.3c-0.1-0.2-0.2-0.3-0.3-0.4c-0.1-0.1-0.3-0.1-0.5-0.1c-0.3,0-0.5,0.1-0.7,0.2c-0.2,0.2-0.4,0.4-0.5,0.6
		c-0.1,0.3-0.1,0.8-0.1,1.4v3.3h-1.8V5.9z"/>
	<path class="st2" d="M38.3,5.9H40v1c0.2-0.3,0.5-0.6,0.9-0.8c0.4-0.2,0.8-0.3,1.2-0.3c0.8,0,1.4,0.3,2,0.9s0.8,1.5,0.8,2.6
		c0,1.1-0.3,2-0.8,2.7c-0.6,0.6-1.2,0.9-2,0.9c-0.4,0-0.7-0.1-1-0.2c-0.3-0.1-0.6-0.4-1-0.8v3.4h-1.8V5.9z M40.1,9.2
		c0,0.8,0.1,1.3,0.5,1.7c0.3,0.4,0.7,0.6,1.1,0.6c0.4,0,0.8-0.2,1-0.5c0.3-0.3,0.4-0.9,0.4-1.7c0-0.7-0.1-1.2-0.4-1.6
		c-0.3-0.3-0.6-0.5-1.1-0.5c-0.4,0-0.8,0.2-1.1,0.5C40.2,8,40.1,8.5,40.1,9.2z"/>
	<path class="st2" d="M50.2,10.6l1.8,0.3c-0.2,0.7-0.6,1.2-1.1,1.5c-0.5,0.3-1.1,0.5-1.9,0.5c-1.2,0-2-0.4-2.6-1.2
		c-0.4-0.6-0.7-1.4-0.7-2.4c0-1.1,0.3-2,0.9-2.7c0.6-0.6,1.3-1,2.2-1c1,0,1.8,0.3,2.4,1c0.6,0.7,0.9,1.7,0.8,3.1h-4.5
		c0,0.5,0.2,1,0.4,1.3c0.3,0.3,0.6,0.4,1,0.4c0.3,0,0.5-0.1,0.7-0.2S50.1,10.9,50.2,10.6z M50.3,8.7c0-0.5-0.1-0.9-0.4-1.2
		S49.4,7.1,49,7.1c-0.4,0-0.7,0.1-1,0.4c-0.3,0.3-0.4,0.7-0.4,1.2H50.3z"/>
	<path class="st2" d="M56.6,5.9v1.4h-1.2v2.8c0,0.6,0,0.9,0,1s0.1,0.2,0.2,0.2s0.2,0.1,0.3,0.1c0.2,0,0.4-0.1,0.7-0.2l0.2,1.4
		c-0.4,0.2-0.9,0.3-1.4,0.3c-0.3,0-0.6-0.1-0.9-0.2c-0.3-0.1-0.4-0.3-0.6-0.4s-0.2-0.4-0.3-0.7c0-0.2-0.1-0.6-0.1-1.3v-3h-0.8V5.9
		h0.8V4.6l1.8-1.1v2.4H56.6z"/>
	<path class="st2" d="M57.9,5V3.3h1.8V5H57.9z M57.9,12.7V5.9h1.8v6.8H57.9z"/>
	<path class="st2" d="M64.6,5.9v1.4h-1.2v2.8c0,0.6,0,0.9,0,1s0.1,0.2,0.2,0.2s0.2,0.1,0.3,0.1c0.2,0,0.4-0.1,0.7-0.2l0.2,1.4
		c-0.4,0.2-0.9,0.3-1.4,0.3c-0.3,0-0.6-0.1-0.9-0.2c-0.3-0.1-0.4-0.3-0.6-0.4s-0.2-0.4-0.3-0.7c0-0.2-0.1-0.6-0.1-1.3v-3h-0.8V5.9
		h0.8V4.6l1.8-1.1v2.4H64.6z"/>
	<path class="st2" d="M65.4,9.2c0-0.6,0.1-1.2,0.4-1.7c0.3-0.6,0.7-1,1.2-1.3c0.5-0.3,1.1-0.4,1.8-0.4c1,0,1.9,0.3,2.5,1
		c0.7,0.7,1,1.5,1,2.5c0,1-0.3,1.9-1,2.6c-0.7,0.7-1.5,1-2.5,1c-0.6,0-1.2-0.1-1.8-0.4c-0.6-0.3-1-0.7-1.3-1.2S65.4,10,65.4,9.2z
		 M67.2,9.3c0,0.7,0.2,1.2,0.5,1.6s0.7,0.5,1.2,0.5c0.5,0,0.9-0.2,1.2-0.5c0.3-0.4,0.5-0.9,0.5-1.6c0-0.7-0.2-1.2-0.5-1.5
		c-0.3-0.4-0.7-0.5-1.2-0.5c-0.5,0-0.9,0.2-1.2,0.5C67.4,8.1,67.2,8.6,67.2,9.3z"/>
	<path class="st2" d="M75.5,12.7h-1.8V5.9h1.7v1c0.3-0.5,0.5-0.8,0.8-0.9c0.2-0.1,0.5-0.2,0.8-0.2c0.4,0,0.8,0.1,1.2,0.3l-0.6,1.6
		c-0.3-0.2-0.6-0.3-0.8-0.3c-0.3,0-0.5,0.1-0.6,0.2c-0.2,0.1-0.3,0.4-0.4,0.8c-0.1,0.4-0.1,1.1-0.1,2.3V12.7z"/>
	<path class="st2" d="M88.4,9.3l1.8,0.6c-0.3,1-0.7,1.8-1.4,2.3c-0.6,0.5-1.5,0.8-2.5,0.8c-1.2,0-2.3-0.4-3-1.3
		c-0.8-0.9-1.2-2-1.2-3.5c0-1.6,0.4-2.8,1.2-3.7c0.8-0.9,1.9-1.3,3.2-1.3c1.1,0,2.1,0.3,2.8,1c0.4,0.4,0.7,1,1,1.7l-1.9,0.5
		c-0.1-0.5-0.3-0.9-0.7-1.2s-0.8-0.4-1.3-0.4c-0.7,0-1.2,0.3-1.7,0.8S84.1,6.8,84.1,8c0,1.2,0.2,2,0.6,2.5c0.4,0.5,1,0.8,1.7,0.8
		c0.5,0,0.9-0.2,1.3-0.5C88,10.5,88.2,10,88.4,9.3z"/>
	<path class="st2" d="M91.4,9.2c0-0.6,0.1-1.2,0.4-1.7c0.3-0.6,0.7-1,1.2-1.3c0.5-0.3,1.1-0.4,1.8-0.4c1,0,1.9,0.3,2.5,1
		c0.7,0.7,1,1.5,1,2.5c0,1-0.3,1.9-1,2.6c-0.7,0.7-1.5,1-2.5,1c-0.6,0-1.2-0.1-1.8-0.4c-0.6-0.3-1-0.7-1.3-1.2S91.4,10,91.4,9.2z
		 M93.2,9.3c0,0.7,0.2,1.2,0.5,1.6s0.7,0.5,1.2,0.5c0.5,0,0.9-0.2,1.2-0.5c0.3-0.4,0.5-0.9,0.5-1.6c0-0.7-0.2-1.2-0.5-1.5
		c-0.3-0.4-0.7-0.5-1.2-0.5c-0.5,0-0.9,0.2-1.2,0.5C93.4,8.1,93.2,8.6,93.2,9.3z"/>
	<path class="st2" d="M99.6,5.9h1.6v0.9c0.6-0.7,1.3-1.1,2.1-1.1c0.4,0,0.8,0.1,1.1,0.3c0.3,0.2,0.6,0.5,0.8,0.8
		c0.3-0.4,0.6-0.6,1-0.8s0.7-0.3,1.1-0.3c0.5,0,0.9,0.1,1.3,0.3c0.3,0.2,0.6,0.5,0.8,0.9c0.1,0.3,0.2,0.8,0.2,1.4v4.4h-1.8V8.8
		c0-0.7-0.1-1.1-0.2-1.3c-0.2-0.3-0.4-0.4-0.8-0.4c-0.2,0-0.5,0.1-0.7,0.2c-0.2,0.2-0.4,0.4-0.5,0.7c-0.1,0.3-0.1,0.8-0.1,1.4v3.3
		h-1.8V9c0-0.7,0-1.1-0.1-1.3c-0.1-0.2-0.2-0.3-0.3-0.4c-0.1-0.1-0.3-0.1-0.5-0.1c-0.3,0-0.5,0.1-0.7,0.2c-0.2,0.2-0.4,0.4-0.5,0.6
		c-0.1,0.3-0.1,0.8-0.1,1.4v3.3h-1.8V5.9z"/>
	<path class="st2" d="M111.3,5.9h1.7v1c0.2-0.3,0.5-0.6,0.9-0.8c0.4-0.2,0.8-0.3,1.2-0.3c0.8,0,1.4,0.3,2,0.9s0.8,1.5,0.8,2.6
		c0,1.1-0.3,2-0.8,2.7c-0.6,0.6-1.2,0.9-2,0.9c-0.4,0-0.7-0.1-1-0.2c-0.3-0.1-0.6-0.4-1-0.8v3.4h-1.8V5.9z M113,9.2
		c0,0.8,0.1,1.3,0.5,1.7c0.3,0.4,0.7,0.6,1.1,0.6c0.4,0,0.8-0.2,1-0.5c0.3-0.3,0.4-0.9,0.4-1.7c0-0.7-0.1-1.2-0.4-1.6
		c-0.3-0.3-0.6-0.5-1.1-0.5c-0.4,0-0.8,0.2-1.1,0.5C113.2,8,113,8.5,113,9.2z"/>
	<path class="st2" d="M120.6,8L119,7.7c0.2-0.7,0.5-1.1,0.9-1.5c0.4-0.3,1.1-0.5,2-0.5c0.8,0,1.4,0.1,1.8,0.3
		c0.4,0.2,0.7,0.4,0.8,0.7s0.2,0.8,0.2,1.6l0,2.1c0,0.6,0,1,0.1,1.3c0.1,0.3,0.2,0.6,0.3,0.9h-1.8c0-0.1-0.1-0.3-0.2-0.5
		c0-0.1-0.1-0.2-0.1-0.2c-0.3,0.3-0.6,0.5-1,0.7s-0.7,0.2-1.1,0.2c-0.7,0-1.2-0.2-1.6-0.6s-0.6-0.9-0.6-1.4c0-0.4,0.1-0.7,0.3-1
		c0.2-0.3,0.4-0.5,0.8-0.7c0.3-0.2,0.8-0.3,1.4-0.4c0.8-0.2,1.4-0.3,1.7-0.4V8.1c0-0.3-0.1-0.6-0.3-0.7s-0.5-0.2-1-0.2
		c-0.3,0-0.6,0.1-0.7,0.2C120.9,7.5,120.7,7.7,120.6,8z M123,9.5c-0.2,0.1-0.6,0.2-1.1,0.3c-0.5,0.1-0.8,0.2-1,0.3
		c-0.2,0.2-0.3,0.4-0.3,0.6c0,0.3,0.1,0.5,0.3,0.7c0.2,0.2,0.4,0.3,0.7,0.3c0.3,0,0.6-0.1,0.9-0.3c0.2-0.2,0.4-0.4,0.4-0.6
		c0-0.2,0.1-0.4,0.1-0.9V9.5z"/>
	<path class="st2" d="M132.6,12.7h-1.8V9.3c0-0.7,0-1.2-0.1-1.4c-0.1-0.2-0.2-0.4-0.4-0.5s-0.4-0.2-0.6-0.2c-0.3,0-0.6,0.1-0.8,0.3
		c-0.2,0.2-0.4,0.4-0.5,0.7c-0.1,0.3-0.1,0.8-0.1,1.6v3.1h-1.8V5.9h1.7v1c0.6-0.8,1.3-1.2,2.2-1.2c0.4,0,0.8,0.1,1.1,0.2
		c0.3,0.1,0.6,0.3,0.7,0.6c0.2,0.2,0.3,0.5,0.3,0.8c0.1,0.3,0.1,0.7,0.1,1.2V12.7z"/>
	<path class="st2" d="M133.6,5.9h1.9l1.6,4.9l1.6-4.9h1.8l-2.4,6.6l-0.4,1.2c-0.2,0.4-0.3,0.7-0.4,0.9c-0.1,0.2-0.3,0.4-0.5,0.5
		s-0.4,0.2-0.7,0.3c-0.3,0.1-0.6,0.1-0.9,0.1c-0.3,0-0.7,0-1-0.1L134,14c0.3,0.1,0.5,0.1,0.8,0.1c0.4,0,0.7-0.1,0.9-0.4
		c0.2-0.2,0.4-0.6,0.5-0.9L133.6,5.9z"/>
	<path class="st2" d="M150.9,11.1v1.7h-6.3c0.1-0.6,0.3-1.2,0.6-1.8c0.3-0.6,1-1.3,2-2.3c0.8-0.8,1.3-1.3,1.5-1.5
		c0.2-0.4,0.4-0.7,0.4-1.1c0-0.4-0.1-0.7-0.3-0.9c-0.2-0.2-0.5-0.3-0.9-0.3c-0.4,0-0.7,0.1-0.9,0.3c-0.2,0.2-0.3,0.6-0.4,1.1
		l-1.8-0.2c0.1-1,0.4-1.7,1-2.1c0.6-0.4,1.3-0.6,2.1-0.6c0.9,0,1.6,0.3,2.2,0.8c0.5,0.5,0.8,1.1,0.8,1.9c0,0.4-0.1,0.8-0.2,1.2
		c-0.2,0.4-0.4,0.8-0.7,1.2c-0.2,0.3-0.6,0.7-1.2,1.2c-0.6,0.5-0.9,0.9-1.1,1c-0.1,0.2-0.3,0.3-0.4,0.5H150.9z"/>
</g>
</svg>
