<?xml version="1.0" encoding="utf-8"?>
<!-- Generator: Adobe Illustrator 23.0.5, SVG Export Plug-In . SVG Version: 6.00 Build 0)  -->
<svg version="1.1" id="Layer_1" xmlns="http://www.w3.org/2000/svg" xmlns:xlink="http://www.w3.org/1999/xlink" x="0px" y="0px"
	 viewBox="0 0 88 88" style="enable-background:new 0 0 88 88;" xml:space="preserve">
<style type="text/css">
	.st0{fill:#FDF9C9;}
	.st1{fill:#FFDF86;}
</style>
<g>
	<circle class="st0" cx="43.9" cy="44" r="44"/>
</g>
<g>
	<path class="st1" d="M37.7,68.9c-3.2,0-5.8-2.6-5.8-5.8s2.6-5.8,5.8-5.8s5.8,2.6,5.8,5.8C43.5,66.3,40.9,68.9,37.7,68.9z M37.7,59
		c-2.3,0-4.1,1.9-4.1,4.1c0,2.3,1.9,4.1,4.1,4.1c2.3,0,4.1-1.9,4.1-4.1C41.9,60.9,40,59,37.7,59z"/>
	<path class="st1" d="M57.7,68.9c-3.2,0-5.8-2.6-5.8-5.8s2.6-5.8,5.8-5.8c3.2,0,5.8,2.6,5.8,5.8C63.5,66.3,60.9,68.9,57.7,68.9z
		 M57.7,59c-2.3,0-4.1,1.9-4.1,4.1c0,2.3,1.9,4.1,4.1,4.1c2.3,0,4.1-1.9,4.1-4.1C61.8,60.9,59.9,59,57.7,59z"/>
	<path class="st1" d="M68.2,30.8H27.9l-2.6-11c-0.1-0.4-0.4-0.6-0.8-0.6h-4.1c-0.5,0-0.8,0.4-0.8,0.8c0,0.5,0.4,0.8,0.8,0.8h3.5
		l7.3,30.9c0.1,0.4,0.4,0.6,0.8,0.6h31.5c0.5,0,0.8-0.4,0.8-0.8c0-0.5-0.4-0.8-0.8-0.8H32.6l-1.2-5H65c0.5,0,0.9-0.3,0.9-0.7
		c0-0.5-0.3-0.9-0.7-0.9c-0.1,0-0.1,0-0.2,0H31l-1.2-5h36.8c0.5,0,0.8-0.4,0.8-0.8c0-0.5-0.4-0.8-0.8-0.8H29.4l-1.2-5h39.9
		c0.5,0,0.8-0.4,0.8-0.8S68.6,30.8,68.2,30.8z"/>
</g>
</svg>
