<?xml version="1.0" encoding="utf-8"?>
<!-- Generator: Adobe Illustrator 23.0.5, SVG Export Plug-In . SVG Version: 6.00 Build 0)  -->
<svg version="1.1" id="Layer_1" xmlns="http://www.w3.org/2000/svg" xmlns:xlink="http://www.w3.org/1999/xlink" x="0px" y="0px"
	 viewBox="0 0 88 88" style="enable-background:new 0 0 88 88;" xml:space="preserve">
<style type="text/css">
	.st0{fill:#DDFBED;}
	.st1{fill:#97F5D1;}
</style>
<g>
	<circle class="st0" cx="44.1" cy="44" r="44"/>
</g>
<g>
	<path class="st1" d="M60,49.4l-9.6,5.6c-0.4-0.7-1.1-1.2-1.9-1.4l-11-2.9c-1.9-0.5-3.9-0.3-5.5,0.7L28,53.4v-1.9
		c0-0.5-0.4-0.8-0.8-0.8h-6.6c-0.5,0-0.8,0.4-0.8,0.8V68c0,0.5,0.4,0.8,0.8,0.8h6.6c0.5,0,0.8-0.4,0.8-0.8v-2.3
		c1.3,0.9,2.8,1.4,4.4,1.4h7.9c1.3,0,2.6-0.3,3.7-1l19.3-11.1c1-0.6,1.6-1.7,1.6-2.9c0-1.8-1.5-3.3-3.3-3.3
		C61,48.9,60.5,49.1,60,49.4L60,49.4z M26.3,67.2h-5V52.3h5V67.2z M62.5,53.7L43.2,64.8c-0.9,0.5-1.9,0.8-2.9,0.8h-7.9
		c-1.5,0-3-0.6-4.1-1.7L28,63.5v-8.3l4.7-2.6c1.3-0.7,2.9-0.9,4.3-0.5l11,2.9c0.9,0.2,1.4,1.1,1.2,2c-0.2,0.9-1.1,1.4-2,1.2
		c0,0,0,0-0.1,0l-7.3-1.9c-0.4-0.1-0.9,0.1-1,0.6c-0.1,0.4,0.1,0.9,0.6,1c0,0,7.8,2.1,8.1,2.1c1.8,0,3.3-1.4,3.3-3.2
		c0-0.1,0-0.2,0-0.2l10-5.8c0.8-0.5,1.8-0.2,2.2,0.6c0.1,0.3,0.2,0.5,0.2,0.8C63.3,52.8,63,53.4,62.5,53.7z"/>
	<path class="st1" d="M49.5,52.3c5.5,0,9.9-4.4,9.9-9.9s-4.4-9.9-9.9-9.9s-9.9,4.4-9.9,9.9C39.6,47.9,44,52.3,49.5,52.3z M49.5,34.1
		c4.6,0,8.3,3.7,8.3,8.3s-3.7,8.3-8.3,8.3s-8.3-3.7-8.3-8.3C41.2,37.8,44.9,34.1,49.5,34.1z"/>
	<path class="st1" d="M32.1,30c-0.5,0-0.8-0.4-0.8-0.8s-0.4-0.8-0.8-0.8c-0.5,0-0.8,0.4-0.8,0.8c0,1,0.7,2,1.7,2.3v1
		c0,0.5,0.4,0.8,0.8,0.8s0.8-0.4,0.8-0.8v-1c1.3-0.5,2-1.9,1.5-3.2c-0.3-1-1.3-1.7-2.3-1.7c-0.5,0-0.8-0.4-0.8-0.8
		c0-0.5,0.4-0.8,0.8-0.8s0.8,0.4,0.8,0.8c0,0.5,0.4,0.8,0.8,0.8s0.8-0.4,0.8-0.8c0-1-0.7-2-1.7-2.3v-1c0-0.5-0.4-0.8-0.8-0.8
		s-0.8,0.4-0.8,0.8v1c-1.3,0.5-2,1.9-1.5,3.2c0.3,1,1.3,1.7,2.3,1.7c0.5,0,0.8,0.4,0.8,0.8S32.6,30,32.1,30z"/>
	<path class="st1" d="M32.1,35.8c4.6,0,8.3-3.7,8.3-8.3s-3.7-8.3-8.3-8.3s-8.3,3.7-8.3,8.3C23.9,32.1,27.6,35.8,32.1,35.8z
		 M32.1,20.9c3.7,0,6.6,3,6.6,6.6s-3,6.6-6.6,6.6s-6.6-3-6.6-6.6C25.5,23.9,28.5,20.9,32.1,20.9z"/>
	<path class="st1" d="M49.5,46.5c-0.9,0-1.7-0.7-1.7-1.7c0-0.5-0.4-0.8-0.8-0.8c-0.5,0-0.8,0.4-0.8,0.8c0,1.5,1,2.8,2.5,3.2V49
		c0,0.5,0.4,0.8,0.8,0.8c0.5,0,0.8-0.4,0.8-0.8v-0.9c1.8-0.5,2.8-2.3,2.4-4c-0.4-1.5-1.7-2.5-3.2-2.5c-0.9,0-1.7-0.7-1.7-1.7
		c0-0.9,0.7-1.7,1.7-1.7c0.9,0,1.7,0.7,1.7,1.7c0,0.5,0.4,0.8,0.8,0.8c0.5,0,0.8-0.4,0.8-0.8c0-1.5-1-2.8-2.5-3.2v-0.9
		c0-0.5-0.4-0.8-0.8-0.8c-0.5,0-0.8,0.4-0.8,0.8v0.9c-1.8,0.5-2.8,2.3-2.4,4c0.4,1.5,1.7,2.5,3.2,2.5c0.9,0,1.7,0.7,1.7,1.7
		C51.1,45.8,50.4,46.5,49.5,46.5z"/>
	<path class="st1" d="M61.9,19.2c-3.7,0-6.6,3-6.6,6.6s3,6.6,6.6,6.6c3.7,0,6.6-3,6.6-6.6C68.5,22.2,65.5,19.2,61.9,19.2z
		 M61.9,28.3c-0.5,0-0.8-0.4-0.8-0.8s-0.4-0.8-0.8-0.8s-0.8,0.4-0.8,0.8c0,1,0.7,2,1.7,2.3v0.9c-2.7-0.5-4.5-3-4.1-5.7
		c0.4-2.1,2-3.7,4.1-4.1v0.9c-1.3,0.5-2,1.9-1.5,3.2c0.3,1,1.3,1.7,2.3,1.7c0.5,0,0.8,0.4,0.8,0.8S62.3,28.3,61.9,28.3z M62.7,30.7
		v-0.9c1.3-0.5,2-1.9,1.5-3.2c-0.3-1-1.3-1.7-2.3-1.7c-0.5,0-0.8-0.4-0.8-0.8c0-0.5,0.4-0.8,0.8-0.8s0.8,0.4,0.8,0.8
		c0,0.5,0.4,0.8,0.8,0.8s0.8-0.4,0.8-0.8c0-1-0.7-2-1.7-2.3V21c2.7,0.5,4.5,3,4.1,5.7C66.4,28.8,64.8,30.4,62.7,30.7z"/>
</g>
</svg>
