<?xml version="1.0" encoding="utf-8"?>
<!-- Generator: Adobe Illustrator 23.0.5, SVG Export Plug-In . SVG Version: 6.00 Build 0)  -->
<svg version="1.1" id="Layer_1" xmlns="http://www.w3.org/2000/svg" xmlns:xlink="http://www.w3.org/1999/xlink" x="0px" y="0px"
	 viewBox="0 0 345.7 111.9" style="enable-background:new 0 0 345.7 111.9;" xml:space="preserve">
<style type="text/css">
	.st0{fill:#4285F4;}
	.st1{fill:#D5DDE3;}
</style>
<path class="st0" d="M85.8,15.8H19.1c-2.5,0-4.5-2-4.5-4.5v-0.1c0-2.5,2-4.5,4.5-4.5h66.7c2.5,0,4.5,2,4.5,4.5v0.1
	C90.3,13.8,88.3,15.8,85.8,15.8z"/>
<path class="st1" d="M123.1,27.8H17.9c-1.8,0-3.3-1.5-3.3-3.3v-0.1c0-1.8,1.5-3.3,3.3-3.3h105.3c1.8,0,3.3,1.5,3.3,3.3v0.1
	C126.4,26.4,125,27.8,123.1,27.8z"/>
<path class="st1" d="M123.1,40.1H18c-1.8,0-3.3-1.5-3.3-3.3v-0.1c0-1.8,1.5-3.3,3.3-3.3h105.2c1.8,0,3.3,1.5,3.3,3.3v0.1
	C126.4,38.7,125,40.1,123.1,40.1z"/>
<path class="st0" d="M294.7,15.8h-66.7c-2.5,0-4.5-2-4.5-4.5v-0.1c0-2.5,2-4.5,4.5-4.5h66.7c2.5,0,4.5,2,4.5,4.5v0.1
	C299.2,13.8,297.2,15.8,294.7,15.8z"/>
<path class="st1" d="M332.1,27.8H226.8c-1.8,0-3.3-1.5-3.3-3.3v-0.1c0-1.8,1.5-3.3,3.3-3.3h105.3c1.8,0,3.3,1.5,3.3,3.3v0.1
	C335.3,26.4,333.9,27.8,332.1,27.8z"/>
<path class="st1" d="M332.1,40.1H226.9c-1.8,0-3.3-1.5-3.3-3.3v-0.1c0-1.8,1.5-3.3,3.3-3.3h105.2c1.8,0,3.3,1.5,3.3,3.3v0.1
	C335.3,38.7,333.9,40.1,332.1,40.1z"/>
<path class="st0" d="M294.7,61.9h-66.7c-2.5,0-4.5-2-4.5-4.5v-0.1c0-2.5,2-4.5,4.5-4.5h66.7c2.5,0,4.5,2,4.5,4.5v0.1
	C299.2,59.9,297.2,61.9,294.7,61.9z"/>
<path class="st1" d="M332.1,73.9H226.8c-1.8,0-3.3-1.5-3.3-3.3v-0.1c0-1.8,1.5-3.3,3.3-3.3h105.3c1.8,0,3.3,1.5,3.3,3.3v0.1
	C335.3,72.4,333.9,73.9,332.1,73.9z"/>
<path class="st1" d="M332.1,86.2H226.9c-1.8,0-3.3-1.5-3.3-3.3v-0.1c0-1.8,1.5-3.3,3.3-3.3h105.2c1.8,0,3.3,1.5,3.3,3.3v0.1
	C335.3,84.7,333.9,86.2,332.1,86.2z"/>
<path class="st0" d="M85.8,61.9H19.2c-2.5,0-4.5-2-4.5-4.5v-0.1c0-2.5,2-4.5,4.5-4.5h66.7c2.5,0,4.5,2,4.5,4.5v0.1
	C90.3,59.9,88.3,61.9,85.8,61.9z"/>
<path class="st1" d="M123.2,73.9H17.9c-1.8,0-3.3-1.5-3.3-3.3v-0.1c0-1.8,1.5-3.3,3.3-3.3h105.3c1.8,0,3.3,1.5,3.3,3.3v0.1
	C126.4,72.4,125,73.9,123.2,73.9z"/>
<path class="st1" d="M123.2,86.2H18c-1.8,0-3.3-1.5-3.3-3.3v-0.1c0-1.8,1.5-3.3,3.3-3.3h105.2c1.8,0,3.3,1.5,3.3,3.3v0.1
	C126.4,84.7,125,86.2,123.2,86.2z"/>
<path class="st1" d="M148.5,105.4H18c-1.8,0-3.3-1.5-3.3-3.3v-0.1c0-1.8,1.5-3.3,3.3-3.3h130.5c1.8,0,3.3,1.5,3.3,3.3v0.1
	C151.8,104,150.3,105.4,148.5,105.4z"/>
</svg>
