<?xml version="1.0" encoding="utf-8"?>
<!-- Generator: Adobe Illustrator 23.0.5, SVG Export Plug-In . SVG Version: 6.00 Build 0)  -->
<svg version="1.1" id="Layer_1" xmlns="http://www.w3.org/2000/svg" xmlns:xlink="http://www.w3.org/1999/xlink" x="0px" y="0px"
	 viewBox="0 0 88 88" style="enable-background:new 0 0 88 88;" xml:space="preserve">
<style type="text/css">
	.st0{fill:#EEF5FD;}
	.st1{fill:#A5CEFC;}
</style>
<g>
	<circle class="st0" cx="43.9" cy="44" r="44"/>
</g>
<g>
	<path class="st1" d="M50.3,42.6V31.5h-3.7v11.1H46V34h-3.7v8.6h-0.6v-6.2H38v6.2h-1.2v1.2h14.8v-1.2H50.3z M39.3,42.6v-4.9h1.2v4.9
		H39.3z M43.6,42.6v-7.4h1.2v7.4H43.6z M47.9,42.6v-9.8h1.2v9.8H47.9z"/>
	<path class="st1" d="M44.3,68.4c-0.2,0-0.4-0.1-0.6-0.3C43,67.3,25.5,48.2,25.5,38c0-10.4,8.4-18.9,18.9-18.9S63.2,27.6,63.2,38
		c0,10.1-17.5,29.3-18.3,30.1C44.8,68.3,44.6,68.4,44.3,68.4z M44.3,20.8c-9.5,0-17.2,7.7-17.2,17.2c0,8.5,14.1,24.8,17.2,28.3
		c3.1-3.5,17.2-19.8,17.2-28.3C61.5,28.5,53.8,20.8,44.3,20.8z"/>
	<path class="st1" d="M44.3,52c-7.7,0-13.9-6.2-13.9-13.9s6.2-13.9,13.9-13.9S58.3,30.3,58.3,38C58.3,45.7,52,52,44.3,52z
		 M44.3,25.7C37.5,25.7,32,31.2,32,38s5.5,12.3,12.3,12.3S56.6,44.8,56.6,38C56.6,31.2,51.1,25.7,44.3,25.7z"/>
</g>
</svg>
