<?xml version="1.0" encoding="utf-8"?>
<!-- Generator: Adobe Illustrator 23.0.5, SVG Export Plug-In . SVG Version: 6.00 Build 0)  -->
<svg version="1.1" id="Layer_1" xmlns="http://www.w3.org/2000/svg" xmlns:xlink="http://www.w3.org/1999/xlink" x="0px" y="0px"
	 viewBox="0 0 88 88" style="enable-background:new 0 0 88 88;" xml:space="preserve">
<style type="text/css">
	.st0{fill:#F3E7FB;}
	.st1{fill:#E2B8FD;}
</style>
<g>
	<circle class="st0" cx="44.3" cy="44.2" r="44"/>
</g>
<g>
	<path class="st1" d="M44.3,49.2c-1,0-2-0.2-2.9-0.7c-2.4-1.1-3.8-3.5-3.8-6.1c0-2.6,1.5-5,3.9-6.1c1.8-0.9,4-0.9,5.8,0
		c2.4,1.1,3.8,3.5,3.8,6.1c0,2.6-1.5,5-3.9,6.1C46.3,49,45.3,49.2,44.3,49.2z M44.3,37.4c-0.7,0-1.5,0.2-2.2,0.5
		c-2.1,1-3.3,3.4-2.8,5.7c0.5,2.3,2.6,3.9,4.9,3.9c2.4,0,4.4-1.6,4.9-3.9c0.5-2.3-0.6-4.7-2.8-5.7C45.8,37.6,45,37.4,44.3,37.4z"/>
	<path class="st1" d="M30.8,32.4c-3.7,0-6.7-3-6.7-6.7s3-6.7,6.7-6.7s6.7,3,6.7,6.7C37.5,29.4,34.5,32.4,30.8,32.4z M30.8,20.6
		c-2.8,0-5.1,2.3-5.1,5.1s2.3,5.1,5.1,5.1s5.1-2.3,5.1-5.1C35.9,22.9,33.6,20.6,30.8,20.6z"/>
	<path class="st1" d="M57.8,32.4c-3.7,0-6.7-3-6.7-6.7s3-6.7,6.7-6.7c3.7,0,6.7,3,6.7,6.7C64.5,29.4,61.5,32.4,57.8,32.4z
		 M57.8,20.6c-2.8,0-5.1,2.3-5.1,5.1s2.3,5.1,5.1,5.1c2.8,0,5.1-2.3,5.1-5.1C62.8,22.9,60.6,20.6,57.8,20.6z"/>
	<path class="st1" d="M40.7,33.1c-0.7-0.5-1.5-0.7-2.4-0.7H35c-0.3,0-0.3-0.1-0.6,0.3L30.8,37l-3.6-4.3c-0.2-0.2-0.4-0.3-0.6-0.3
		h-3.4c-2.3,0-4.2,1.9-4.2,4.2v15.2c0,0.5,0.4,0.8,0.8,0.8h10.6c0.5,0,0.8-0.4,0.8-0.8s-0.4-0.8-0.8-0.8h-4.7v-9.3
		c0-0.5-0.4-0.8-0.8-0.8c-0.5,0-0.8,0.4-0.8,0.8v9.3h-3.4V36.6c0-1.4,1.1-2.5,2.5-2.5h3l4,4.8c0.2,0.2,0.4,0.3,0.6,0.3
		s0.5-0.1,0.6-0.3l4-4.8h3c0.5,0,1,0.1,1.4,0.4c0.4,0.3,0.9,0.2,1.2-0.2C41.2,33.9,41.1,33.4,40.7,33.1z"/>
	<path class="st1" d="M55.5,51.3c-0.8-1.3-2.1-2.1-3.6-2.1h-3.4c-0.3,0-0.3-0.1-0.6,0.3l-3.6,4.3l-3.6-4.3c-0.2-0.2-0.4-0.3-0.6-0.3
		h-3.4c-2.3,0-4.2,1.9-4.2,4.2v15.2c0,0.5,0.4,0.8,0.8,0.8h21.9c0.5,0,0.8-0.4,0.8-0.8V53.4C56.1,52.7,55.9,52,55.5,51.3z
		 M54.4,67.8H51V57.7c0-0.5-0.4-0.8-0.8-0.8c-0.5,0-0.8,0.4-0.8,0.8v10.1H39.2v-9.3c0-0.5-0.4-0.8-0.8-0.8c-0.5,0-0.8,0.4-0.8,0.8
		v9.3h-3.4V53.4c0-1.4,1.1-2.5,2.5-2.5h3l4,4.8c0.2,0.2,0.4,0.3,0.6,0.3c0.3,0,0.5-0.1,0.6-0.3l4-4.8h3c1.4,0,2.5,1.1,2.5,2.5V67.8z
		"/>
	<path class="st1" d="M65.3,32.4H62c-0.3,0-0.3-0.1-0.6,0.3L57.8,37l-3.6-4.3c-0.3-0.4-0.4-0.3-0.6-0.3h-3.4c-1.1,0-2.2,0.4-3,1.2
		c-0.3,0.3-0.3,0.9,0,1.2c0.3,0.3,0.9,0.3,1.2,0c0.5-0.5,1.1-0.7,1.8-0.7h3l4,4.8c0.2,0.2,0.4,0.3,0.6,0.3c0.3,0,0.5-0.1,0.6-0.3
		l4-4.8h3c1.4,0,2.5,1.1,2.5,2.5v14.3h-3.4V40.8c0-0.5-0.4-0.8-0.8-0.8s-0.8,0.4-0.8,0.8v10.1h-4.7c-0.5,0-0.8,0.4-0.8,0.8
		s0.4,0.8,0.8,0.8h10.6c0.5,0,0.8-0.4,0.8-0.8V36.6C69.6,34.3,67.7,32.4,65.3,32.4z"/>
</g>
</svg>
