<svg id="Layer_1" data-name="Layer 1" xmlns="http://www.w3.org/2000/svg" viewBox="0 0 88 88"><defs><style>.cls-1{fill:#fdf9c9;}.cls-2{fill:#ffdf86;}</style></defs><title>mail</title><circle class="cls-1" cx="44" cy="44" r="44"/><g id="Email"><path class="cls-2" d="M68.33,37.42h0L63,33.33V25.85a.82.82,0,0,0-.81-.82H52l-6.31-4.78a2.46,2.46,0,0,0-3,0L36.45,25H26.33a.82.82,0,0,0-.81.82v7.48l-5.38,4.08h0a.8.8,0,0,0-.33.64v29.3a.82.82,0,0,0,.81.82H67.85a.82.82,0,0,0,.81-.82V38.06A.81.81,0,0,0,68.33,37.42ZM63,35.37l3.58,2.71L63,41ZM43.75,21.55a.78.78,0,0,1,1,0L49.33,25H39.15ZM27.14,26.66H61.33V42.39L50.14,51.65,45.8,48.06a2.44,2.44,0,0,0-3.12,0l-4.34,3.59-11.2-9.26Zm-5.2,11.43,3.58-2.72V41Zm-.49,1.7L37.06,52.71,21.45,65.63Zm1.44,26.76L43.72,49.31a.8.8,0,0,1,1,0L65.59,66.55ZM67,65.63,51.42,52.71,67,39.79Z" transform="translate(0.1)"/><path class="cls-2" d="M44.24,44.57h4.07a.81.81,0,0,0,.81-.81.82.82,0,0,0-.81-.82H44.24a5.7,5.7,0,1,1,0-11.39h1.63a4.08,4.08,0,0,1,4.07,4.07v3.25a.82.82,0,0,1-.82.82.82.82,0,0,1-.81-.82V35.62a2.45,2.45,0,0,0-2.44-2.45H44.24a4.07,4.07,0,1,0,0,8.14,4,4,0,0,0,2.84-1.14,2.44,2.44,0,0,0,4.51-1.3V35.62a5.71,5.71,0,0,0-5.7-5.7H44.24a7.33,7.33,0,1,0,0,14.65Zm0-4.88a2.45,2.45,0,0,1,0-4.89h1.63a.82.82,0,0,1,.81.82v1.62A2.45,2.45,0,0,1,44.24,39.69Z" transform="translate(0.1)"/></g></svg>