<svg id="Layer_1" data-name="Layer 1" xmlns="http://www.w3.org/2000/svg" viewBox="0 0 88 88"><defs><style>.cls-1{fill:#dcfbec;}.cls-2{fill:#97f5d1;}</style></defs><title>mobile</title><circle class="cls-1" cx="44" cy="44" r="44"/><g id="Call"><path class="cls-2" d="M60,49.46a2.44,2.44,0,0,0-3.46,0l-4.62,4.61a4.07,4.07,0,0,1-5.77,0L34.55,42.53a4.09,4.09,0,0,1,0-5.77l4.62-4.62a2.45,2.45,0,0,0,0-3.47l-6.93-6.92a2.44,2.44,0,0,0-3.46,0h0l-4.62,4.61a13.9,13.9,0,0,0,0,19.63L42.63,64.47a13.9,13.9,0,0,0,19.63,0l4.62-4.62a2.45,2.45,0,0,0,0-3.47h0Zm-30-26.56a.82.82,0,0,1,1.16,0h0L38,29.83A.81.81,0,0,1,38,31l-2.88,2.89-4-4-4-4ZM61.11,63.31a12.25,12.25,0,0,1-17.32,0L25.32,44.84a12.23,12.23,0,0,1,0-17.32l.57-.58,4,4,4,4-.57.58a5.71,5.71,0,0,0,0,8.08h0L44.94,55.23a5.72,5.72,0,0,0,8.08,0l.58-.58,4,4,4,4Zm4.62-4.62-2.89,2.89-4-4-4-4,2.88-2.89a.82.82,0,0,1,1.16,0l6.93,6.93a.83.83,0,0,1,0,1.15Z" transform="translate(0.1)"/><path class="cls-2" d="M47.76,20a.81.81,0,1,0-.22,1.61A22.88,22.88,0,0,1,67,41.09a.82.82,0,0,0,.81.7h.11a.82.82,0,0,0,.7-.92h0A24.5,24.5,0,0,0,47.76,20Z" transform="translate(0.1)"/><path class="cls-2" d="M47.51,26.56A18,18,0,0,1,62.06,41.12a.82.82,0,0,0,.81.67H63a.81.81,0,0,0,.66-.94A19.58,19.58,0,0,0,47.79,25a.81.81,0,1,0-.3,1.6Z" transform="translate(0.1)"/><path class="cls-2" d="M47.46,31.55a13.18,13.18,0,0,1,9.62,9.62.8.8,0,0,0,1,.6.81.81,0,0,0,.6-1A14.81,14.81,0,0,0,47.84,30a.82.82,0,1,0-.38,1.59Z" transform="translate(0.1)"/><path class="cls-2" d="M47.65,45.06A4.08,4.08,0,1,0,43.57,41,4.08,4.08,0,0,0,47.65,45.06Zm0-6.53A2.45,2.45,0,1,1,45.2,41,2.45,2.45,0,0,1,47.65,38.53Z" transform="translate(0.1)"/></g></svg>