<?xml version="1.0" encoding="utf-8"?>
<!-- Generator: Adobe Illustrator 23.0.5, SVG Export Plug-In . SVG Version: 6.00 Build 0)  -->
<svg version="1.1" id="Layer_1" xmlns="http://www.w3.org/2000/svg" xmlns:xlink="http://www.w3.org/1999/xlink" x="0px" y="0px"
	 viewBox="0 0 88 88" style="enable-background:new 0 0 88 88;" xml:space="preserve">
<style type="text/css">
	.st0{fill:#DCFBEC;}
	.st1{fill:#97F5D1;}
</style>
<g>
	<circle class="st0" cx="44.1" cy="44" r="44"/>
</g>
<g>
	<path class="st1" d="M52.3,37.3c0-8.2-6.6-14.9-14.9-14.9c-8.2,0-14.9,6.6-14.9,14.9c0,8.2,6.6,14.9,14.9,14.9
		C45.6,52.1,52.2,45.5,52.3,37.3z M37.4,50.5c-7.3,0-13.2-5.9-13.2-13.2c0-7.3,5.9-13.2,13.2-13.2c7.3,0,13.2,5.9,13.2,13.2
		C50.6,44.6,44.7,50.5,37.4,50.5z"/>
	<path class="st1" d="M67.7,60.5l-9-9l0.6-0.6l-3.5-3.5l-1.2,1.2l-1.8-1.8c4.9-7.9,3.1-18.1-4.1-23.9c-7.2-5.8-17.7-5.2-24.2,1.4
		c-6.5,6.5-7.1,17-1.4,24.2c5.8,7.2,16,9,23.9,4.1l1.8,1.8l-1.2,1.2l3.5,3.5l0.6-0.6l9,9c1.9,1.9,5.1,1.9,7,0
		C69.6,65.6,69.6,62.5,67.7,60.5L67.7,60.5z M20.9,37.3c0-9.1,7.4-16.5,16.5-16.5s16.5,7.4,16.5,16.5c0,9.1-7.4,16.5-16.5,16.5
		C28.3,53.8,20.9,46.4,20.9,37.3z M49.9,53.3l-1.6-1.6c1.3-1,2.5-2.2,3.5-3.5l1.6,1.6L49.9,53.3z M55.8,49.8l1.2,1.2l-5.8,5.8
		l-1.2-1.2L55.8,49.8z M66.5,66.4c-1.3,1.3-3.4,1.3-4.7,0l-9-9l4.7-4.7l9,9C67.8,63,67.8,65.1,66.5,66.4z"/>
	<path class="st1" d="M45.7,43.1V28.2h-5v14.9h-0.8V31.5h-5v11.6h-0.8v-8.3h-5v8.3h-1.7v1.7h19.8v-1.7H45.7z M30.8,43.1v-6.6h1.7
		v6.6H30.8z M36.6,43.1v-9.9h1.7v9.9H36.6z M42.4,43.1V29.9H44v13.2H42.4z"/>
</g>
</svg>
