<?xml version="1.0" encoding="utf-8"?>
<!-- Generator: Adobe Illustrator 23.0.5, SVG Export Plug-In . SVG Version: 6.00 Build 0)  -->
<svg version="1.1" id="Layer_1" xmlns="http://www.w3.org/2000/svg" xmlns:xlink="http://www.w3.org/1999/xlink" x="0px" y="0px"
	 viewBox="0 0 88 88" style="enable-background:new 0 0 88 88;" xml:space="preserve">
<style type="text/css">
	.st0{fill:#F3E7FB;}
	.st1{fill:#E2B8FD;}
</style>
<g>
	<circle class="st0" cx="44.1" cy="44" r="44"/>
</g>
<g>
	<g>
		<path class="st1" d="M49.8,48.2h-0.9c-0.3,0-0.6-0.2-0.7-0.5c-0.1-0.3-0.2-0.5-0.3-0.8c-0.1-0.3-0.1-0.7,0.2-0.9l0.6-0.6
			c0.9-0.9,0.9-2.5,0-3.4l-2.3-2.3c-0.9-0.9-2.5-0.9-3.4,0l-0.6,0.6c-0.2,0.2-0.6,0.3-0.9,0.2c-0.2-0.1-0.5-0.2-0.8-0.3
			c-0.3-0.1-0.5-0.4-0.5-0.7v-0.9c0-1.3-1.1-2.4-2.4-2.4h-3.2c-1.3,0-2.4,1.1-2.4,2.4v0.9c0,0.3-0.2,0.6-0.5,0.7
			c-0.3,0.1-0.5,0.2-0.8,0.3c-0.3,0.1-0.7,0.1-0.9-0.2l-0.6-0.6c-0.9-0.9-2.5-0.9-3.4,0L23.7,42c-0.9,0.9-0.9,2.5,0,3.4l0.6,0.6
			c0.2,0.2,0.3,0.6,0.2,0.9c-0.1,0.2-0.2,0.5-0.3,0.8c-0.1,0.3-0.4,0.5-0.7,0.5h-0.9c-1.3,0-2.4,1.1-2.4,2.4v3.2
			c0,1.3,1.1,2.4,2.4,2.4h0.9c0.3,0,0.6,0.2,0.7,0.5c0.1,0.3,0.2,0.5,0.3,0.8c0.1,0.3,0.1,0.7-0.2,0.9L23.7,59
			c-0.9,0.9-0.9,2.5,0,3.4l2.3,2.3c0.9,0.9,2.5,0.9,3.4,0L30,64c0.2-0.2,0.6-0.3,0.9-0.2c0.2,0.1,0.5,0.2,0.8,0.3
			c0.3,0.1,0.5,0.4,0.5,0.7v0.9c0,1.3,1.1,2.4,2.4,2.4l0,0h3.2c1.3,0,2.4-1.1,2.4-2.4l0,0v-0.9c0-0.3,0.2-0.6,0.5-0.7
			c0.3-0.1,0.5-0.2,0.8-0.3c0.3-0.1,0.7-0.1,0.9,0.2l0.6,0.6c0.9,0.9,2.5,0.9,3.4,0l2.3-2.3c0.9-0.9,0.9-2.5,0-3.4L48,58.3
			c-0.2-0.2-0.3-0.6-0.2-0.9c0.1-0.2,0.2-0.5,0.3-0.8c0.1-0.3,0.4-0.5,0.7-0.5h0.9c1.3,0,2.4-1.1,2.4-2.4v-3.2
			C52.2,49.2,51.1,48.2,49.8,48.2L49.8,48.2z M50.6,53.8c0,0.4-0.4,0.8-0.8,0.8h-0.9c-1,0-1.9,0.6-2.2,1.5c-0.1,0.2-0.2,0.4-0.3,0.7
			c-0.4,0.9-0.2,2,0.5,2.7l0.6,0.6c0.3,0.3,0.3,0.8,0,1.1c0,0,0,0,0,0l-2.3,2.3c-0.3,0.3-0.8,0.3-1.1,0l-0.6-0.6
			c-0.7-0.7-1.8-0.9-2.7-0.5c-0.2,0.1-0.4,0.2-0.7,0.3c-0.9,0.4-1.5,1.2-1.5,2.2v0.9c0,0.4-0.4,0.8-0.8,0.8h-3.2
			c-0.4,0-0.8-0.4-0.8-0.8v-0.9c0-1-0.6-1.9-1.5-2.2c-0.2-0.1-0.4-0.2-0.7-0.3c-0.9-0.4-2-0.2-2.7,0.5l-0.6,0.6
			c-0.3,0.3-0.8,0.3-1.1,0c0,0,0,0,0,0l-2.3-2.3c-0.3-0.3-0.3-0.8,0-1.1l0.6-0.6c0.7-0.7,0.9-1.8,0.5-2.7c-0.1-0.2-0.2-0.4-0.3-0.7
			c-0.4-0.9-1.2-1.5-2.2-1.6h-0.9c-0.4,0-0.8-0.4-0.8-0.8v-3.2c0-0.4,0.4-0.8,0.8-0.8h0.9c1,0,1.9-0.6,2.2-1.5
			c0.1-0.2,0.2-0.4,0.3-0.7c0.4-0.9,0.2-2-0.5-2.7l-0.6-0.6c-0.3-0.3-0.3-0.8,0-1.1c0,0,0,0,0,0l2.3-2.3c0.3-0.3,0.8-0.3,1.1,0
			l0.6,0.6c0.7,0.7,1.8,0.9,2.7,0.5c0.2-0.1,0.4-0.2,0.7-0.3c0.9-0.4,1.5-1.2,1.6-2.2v-0.9c0-0.4,0.4-0.8,0.8-0.8h3.2
			c0.4,0,0.8,0.4,0.8,0.8v0.9c0,1,0.6,1.9,1.5,2.2c0.2,0.1,0.4,0.2,0.7,0.3c0.9,0.4,2,0.2,2.7-0.5l0.6-0.6c0.3-0.3,0.8-0.3,1.1,0
			l2.3,2.3c0.3,0.3,0.3,0.8,0,1.1l-0.6,0.6c-0.7,0.7-0.9,1.8-0.5,2.7c0.1,0.2,0.2,0.4,0.3,0.7c0.4,0.9,1.2,1.5,2.2,1.5h0.9
			c0.4,0,0.8,0.4,0.8,0.8V53.8z"/>
		<path class="st1" d="M43.3,51.8c0-0.2,0-0.4,0-0.6c0-0.2-0.1-0.4-0.1-0.6c0-0.1-0.1-0.3-0.1-0.4c0-0.2-0.1-0.3-0.2-0.5
			c0-0.1-0.1-0.2-0.1-0.3c-0.1-0.3-0.2-0.5-0.4-0.8c0,0,0,0,0-0.1c-0.2-0.4-0.4-0.7-0.7-1.1c0,0,0-0.1-0.1-0.1
			c-0.1-0.1-0.2-0.3-0.3-0.4c-0.1-0.1-0.1-0.1-0.2-0.2c-0.1-0.1-0.2-0.1-0.2-0.2c-0.1-0.1-0.2-0.2-0.3-0.2l-0.1-0.1
			c-1.2-0.9-2.7-1.4-4.3-1.4c-0.1,0-0.2,0-0.2,0c-0.2,0-0.3,0-0.5,0c-0.1,0-0.2,0-0.3,0c-0.3,0-0.5,0.1-0.8,0.1
			c-3.9,1-6.2,4.9-5.2,8.8c0.7,2.5,2.6,4.5,5.2,5.2c0,0,0,0,0,0c0.3,0.1,0.6,0.1,0.8,0.2c0.2,0,0.4,0,0.6,0c0.1,0,0.2,0,0.4,0
			c0.2,0,0.5,0,0.7,0c0,0,0.1,0,0.1,0c0.2,0,0.4-0.1,0.6-0.1c0.1,0,0.2,0,0.2-0.1c0.1,0,0.3-0.1,0.4-0.1c0.1,0,0.2-0.1,0.3-0.1
			s0.2-0.1,0.3-0.1c0.1,0,0.2-0.1,0.3-0.1c0.1-0.1,0.3-0.1,0.4-0.2h0c0.7-0.4,1.4-0.9,2.1-1.5c0.2-0.2,0.3-0.3,0.4-0.5
			c0.6-1,1-2.1,1.2-3.3c0-0.2,0-0.3,0.1-0.5c0-0.1,0-0.3,0-0.4c0,0,0-0.1,0-0.1C43.3,52.1,43.3,52,43.3,51.8L43.3,51.8z M34.7,46.7
			c0.5-0.1,0.9-0.2,1.4-0.2c0.2,0,0.5,0,0.7,0c0.1,0,0.1,0,0.2,0c0.2,0,0.3,0.1,0.5,0.1c0.1,0,0.1,0,0.2,0c0.4,0.1,0.8,0.3,1.2,0.5
			c0.1,0,0.1,0.1,0.2,0.1c0.1,0.1,0.2,0.2,0.4,0.3c0.1,0,0.1,0.1,0.2,0.1c0.2,0.1,0.3,0.3,0.5,0.4c0.1,0.1,0.1,0.1,0.2,0.2
			c0.1,0.1,0.2,0.2,0.3,0.3c0.1,0.1,0.1,0.2,0.2,0.2c0.1,0.1,0.2,0.2,0.2,0.4c0,0.1,0.1,0.1,0.1,0.2c0.1,0.2,0.2,0.4,0.3,0.6
			c0,0.1,0.1,0.2,0.1,0.2c0.1,0.1,0.1,0.3,0.1,0.4c0,0.1,0,0.2,0.1,0.2c0,0.2,0.1,0.4,0.1,0.7c0,0.1,0,0.1,0,0.2c0,0.2,0,0.4,0,0.6
			c0,0.1,0,0.1,0,0.2c0,0.2,0,0.4-0.1,0.6c-0.3,1.7-1.3,3.1-2.8,3.9c-0.1,0.1-0.2,0.1-0.3,0.1l-0.1,0c-0.5,0.2-1,0.4-1.5,0.4
			c0,0-0.1,0-0.1,0c-0.1,0-0.2,0-0.3,0c-0.1,0-0.3,0-0.4,0c-0.1,0-0.1,0-0.2,0c-0.2,0-0.4,0-0.6,0l-0.1,0c-0.2,0-0.4-0.1-0.7-0.1
			c-3-0.8-4.8-3.8-4-6.8C31.2,48.8,32.7,47.2,34.7,46.7L34.7,46.7z"/>
	</g>
</g>
<g>
	<g>
		<path class="st1" d="M65.8,36.9h-2.5c-0.3,0-0.6-0.2-0.7-0.5c-0.2-0.7-0.5-1.5-0.9-2.2c-0.1-0.3-0.1-0.7,0.2-0.9l1.8-1.8
			c0.9-0.9,0.9-2.5,0-3.4l-3.4-3.4c-0.9-0.9-2.5-0.9-3.4,0L55,26.5c-0.2,0.2-0.6,0.3-0.9,0.2c-0.7-0.4-1.4-0.7-2.2-0.9
			c-0.3-0.1-0.5-0.4-0.5-0.7v-2.5c0-1.3-1.1-2.4-2.4-2.4h-4.8c-1.3,0-2.4,1.1-2.4,2.4V25c0,0.3-0.2,0.6-0.5,0.7
			c-0.7,0.2-1.5,0.6-2.2,0.9c-0.3,0.1-0.7,0.1-0.9-0.2l-1.8-1.8c-0.9-0.9-2.5-0.9-3.4,0l-3.4,3.4c-0.9,0.9-0.9,2.5,0,3.4l2.6,2.6
			c0.3,0.3,0.8,0.3,1.1,0c0.3-0.3,0.3-0.8,0-1.1l-2.6-2.6c-0.3-0.3-0.3-0.8,0-1.1l3.4-3.4c0.3-0.3,0.8-0.3,1.1,0l1.8,1.8
			c0.7,0.7,1.8,0.9,2.8,0.5c0.6-0.3,1.3-0.6,2-0.8c1-0.3,1.6-1.2,1.6-2.3v-2.5c0-0.4,0.4-0.8,0.8-0.8H49c0.4,0,0.8,0.4,0.8,0.8V25
			c0,1,0.6,1.9,1.6,2.3c0.7,0.2,1.3,0.5,2,0.8c0.9,0.5,2,0.3,2.8-0.5l1.8-1.8c0.3-0.3,0.8-0.3,1.1,0l3.4,3.4c0.3,0.3,0.3,0.8,0,1.1
			l-1.8,1.8c-0.7,0.7-0.9,1.8-0.5,2.8c0.3,0.6,0.6,1.3,0.8,2c0.3,1,1.2,1.6,2.3,1.6h2.5c0.4,0,0.8,0.4,0.8,0.8v4.8
			c0,0.4-0.4,0.8-0.8,0.8h-2.5c-1,0-1.9,0.6-2.3,1.6c-0.2,0.7-0.5,1.3-0.8,2c-0.5,0.9-0.3,2,0.5,2.8l1.8,1.8c0.3,0.3,0.3,0.8,0,1.1
			L59,57.6c-0.3,0.3-0.8,0.3-1.1,0L55.3,55c-0.3-0.3-0.8-0.3-1.1,0c-0.3,0.3-0.3,0.8,0,1.1c0,0,0,0,0,0l2.6,2.6
			c0.9,0.9,2.5,0.9,3.4,0l3.4-3.4c0.9-0.9,0.9-2.5,0-3.4l-1.8-1.8c-0.2-0.2-0.3-0.6-0.2-0.9c0.4-0.7,0.7-1.4,0.9-2.2
			c0.1-0.3,0.4-0.5,0.7-0.5h2.5c1.3,0,2.4-1.1,2.4-2.4v-4.8C68.2,38,67.1,36.9,65.8,36.9L65.8,36.9z"/>
		<path class="st1" d="M53.9,34.4c-4.1-4.1-10.7-4.1-14.7,0c-0.3,0.3-0.3,0.8,0,1.1c0.3,0.3,0.8,0.3,1.1,0c3.4-3.5,9-3.5,12.5-0.1
			c3.5,3.4,3.5,9,0.1,12.5c0,0-0.1,0.1-0.1,0.1c-0.3,0.3-0.3,0.8,0,1.1c0.3,0.3,0.8,0.3,1.1,0c0,0,0,0,0,0C58,45,58,38.4,53.9,34.4z
			"/>
	</g>
</g>
</svg>
