<svg id="Layer_1" data-name="Layer 1" xmlns="http://www.w3.org/2000/svg" viewBox="0 0 88 88"><defs><style>.cls-1{fill:#fee3ea;}.cls-2{fill:#ff477d;}</style></defs><title>timing</title><circle class="cls-1" cx="44" cy="44" r="44"/><g id="Clock"><path class="cls-2" d="M44.52,68.66A24.47,24.47,0,1,1,69,44.19,24.48,24.48,0,0,1,44.52,68.66Zm0-47.31A22.84,22.84,0,1,0,67.35,44.19,22.85,22.85,0,0,0,44.52,21.35Z" transform="translate(0.1)"/><path class="cls-2" d="M51.2,49.46l-2.82-4a3.81,3.81,0,0,0,.21-1.25A4,4,0,0,0,47,41V29.51a2.45,2.45,0,1,0-4.89,0V41a3.94,3.94,0,0,0-1.4,4.52L30,51.64a.81.81,0,0,0-.3,1.11.82.82,0,0,0,1.11.31h0l10.68-6.16a4,4,0,0,0,2.9,1.36l2.82,4a2.45,2.45,0,0,0,4-2.8v0ZM43.7,29.51a.82.82,0,0,1,.82-.82.79.79,0,0,1,.58.25.81.81,0,0,1,.23.57V40.19a4.07,4.07,0,0,0-1.63,0ZM42.07,44.19a2.45,2.45,0,1,1,2.45,2.45A2.45,2.45,0,0,1,42.07,44.19Zm7.6,7.34a.83.83,0,0,1-1.14-.19l-2.39-3.41a4.32,4.32,0,0,0,1.33-1l2.39,3.42A.9.9,0,0,1,50,51a.83.83,0,0,1-.33.51Z" transform="translate(0.1)"/><path class="cls-2" d="M44.52,25.43a.82.82,0,0,1-.82-.81V23a.82.82,0,0,1,.82-.82.82.82,0,0,1,.81.82v1.63A.81.81,0,0,1,44.52,25.43Z" transform="translate(0.1)"/><path class="cls-2" d="M34.73,28.05a.83.83,0,0,1-.71-.4l-.81-1.42a.81.81,0,1,1,1.41-.81l.82,1.41a.81.81,0,0,1-.3,1.11A.77.77,0,0,1,34.73,28.05Z" transform="translate(0.1)"/><path class="cls-2" d="M27.57,35.22a.81.81,0,0,1-.41-.11l-1.41-.82a.81.81,0,1,1,.81-1.41L28,33.7a.81.81,0,0,1-.4,1.52Z" transform="translate(0.1)"/><path class="cls-2" d="M24.94,45H23.31a.81.81,0,0,1-.81-.81.82.82,0,0,1,.81-.82h1.63a.82.82,0,0,1,.82.82A.82.82,0,0,1,24.94,45Z" transform="translate(0.1)"/><path class="cls-2" d="M26.15,55.61a.82.82,0,0,1-.4-1.53l1.41-.81a.82.82,0,0,1,1.12.29.83.83,0,0,1-.3,1.12h0l-1.41.82a.81.81,0,0,1-.41.11Z" transform="translate(0.1)"/><path class="cls-2" d="M33.92,63.37a.82.82,0,0,1-.82-.82.87.87,0,0,1,.11-.41L34,60.73a.81.81,0,1,1,1.41.81h0L34.62,63A.81.81,0,0,1,33.92,63.37Z" transform="translate(0.1)"/><path class="cls-2" d="M44.52,66.21a.82.82,0,0,1-.82-.82V63.76a.82.82,0,0,1,.82-.81.81.81,0,0,1,.81.81v1.63A.82.82,0,0,1,44.52,66.21Z" transform="translate(0.1)"/><path class="cls-2" d="M55.12,63.37a.84.84,0,0,1-.71-.41l-.81-1.41a.82.82,0,0,1,.29-1.12.8.8,0,0,1,1.11.29h0l.81,1.41a.82.82,0,0,1-.29,1.12.87.87,0,0,1-.41.11Z" transform="translate(0.1)"/><path class="cls-2" d="M62.88,55.61a.87.87,0,0,1-.41-.11l-1.41-.82a.82.82,0,0,1-.31-1.11.83.83,0,0,1,1.12-.31h0l1.42.81a.82.82,0,0,1-.41,1.53Z" transform="translate(0.1)"/><path class="cls-2" d="M65.72,45H64.09a.82.82,0,0,1-.82-.81.82.82,0,0,1,.82-.82h1.63a.82.82,0,0,1,.82.82A.82.82,0,0,1,65.72,45Z" transform="translate(0.1)"/><path class="cls-2" d="M61.47,35.22a.82.82,0,0,1-.82-.82.81.81,0,0,1,.41-.7l1.41-.82a.83.83,0,0,1,1.12.31.81.81,0,0,1-.3,1.1l-1.41.82a.87.87,0,0,1-.41.11Z" transform="translate(0.1)"/><path class="cls-2" d="M54.3,28.05a.81.81,0,0,1-.7-1.22l.81-1.41a.82.82,0,0,1,1.42.81L55,27.65a.81.81,0,0,1-.71.4Z" transform="translate(0.1)"/></g></svg>