<?xml version="1.0" encoding="utf-8"?>
<!-- Generator: Adobe Illustrator 23.0.5, SVG Export Plug-In . SVG Version: 6.00 Build 0)  -->
<svg version="1.1" id="Layer_1" xmlns="http://www.w3.org/2000/svg" xmlns:xlink="http://www.w3.org/1999/xlink" x="0px" y="0px"
	 viewBox="0 0 88 88" style="enable-background:new 0 0 88 88;" xml:space="preserve">
<style type="text/css">
	.st0{fill:#FDF7E1;}
	.st1{fill:#FFDF86;}
</style>
<g>
	<circle class="st0" cx="44" cy="44" r="44"/>
</g>
<path class="st1" d="M69.3,67.9L57.5,37.6c-0.1-0.3-0.4-0.5-0.8-0.5c-0.3,0-0.7,0.2-0.8,0.5l-4.4,11.2l-6.3-17.7l1,0.7
	c0.6,0.4,1.4,0.4,2,0c0.6-0.4,0.8-1.2,0.6-1.9L48,27.4l2.2-1.6c0.6-0.4,0.8-1.2,0.6-1.9c-0.2-0.7-0.9-1.2-1.6-1.2h-2.7l-0.8-2.6
	c-0.2-0.7-0.9-1.2-1.6-1.2c-0.7,0-1.4,0.5-1.6,1.2l-0.8,2.6h-2.7c-0.7,0-1.4,0.5-1.6,1.2c-0.2,0.7,0,1.5,0.6,1.9l2.2,1.6L39.3,30
	c-0.2,0.7,0,1.5,0.6,1.9c0.6,0.4,1.4,0.4,2,0l1-0.7l-6.3,17.7l-4.4-11.2c-0.1-0.3-0.4-0.5-0.8-0.5c-0.3,0-0.7,0.2-0.8,0.5L18.9,67.9
	c-0.1,0.3-0.1,0.6,0.1,0.8c0.2,0.2,0.4,0.4,0.7,0.4h48.8c0.3,0,0.5-0.1,0.7-0.4C69.3,68.4,69.4,68.1,69.3,67.9z M40.9,30.5l0.8-2.6
	c0.2-0.7,0-1.5-0.6-1.9l-2.2-1.6h2.7c0.7,0,1.4-0.5,1.6-1.2l0.8-2.6v0l0.8,2.6c0.2,0.7,0.9,1.2,1.6,1.2h2.7L47,26
	c-0.6,0.4-0.8,1.2-0.6,1.9l0.8,2.6l-2.2-1.6c-0.6-0.4-1.4-0.4-2,0L40.9,30.5z M31.5,40.2l4.3,11L30,67.4h-9.1L31.5,40.2z M31.8,67.4
	l12.3-34.5l12.3,34.5H31.8z M58.1,67.4l-5.7-16.1l4.3-11l10.5,27.1H58.1z"/>
</svg>
