<svg id="Layer_1" data-name="Layer 1" xmlns="http://www.w3.org/2000/svg" viewBox="0 0 408.5 296.87"><defs><style>.cls-1{fill:#fafafa;}.cls-2{opacity:0.29;}.cls-3{fill:#e1e1e1;}.cls-4{fill:#ececec;}.cls-5{fill:#f5f5f5;}.cls-6{fill:#171717;}.cls-7{fill:#4b4b4b;}.cls-8{fill:#fd5d11;}.cls-9{fill:#ff4f5b;}.cls-10{fill:#e14504;}.cls-11{opacity:0.3;}.cls-12{fill:#fff;}.cls-13{opacity:0.2;}.cls-14{fill:#ffbf9d;}.cls-15{fill:#ff9a6c;}.cls-16{opacity:0.4;}.cls-17{fill:#1a2e35;}.cls-18{fill:#375a64;}</style></defs><title>we-are-hiring</title><polygon class="cls-1" points="336.79 148.27 336.24 142.12 361.58 143.98 361.58 148.27 336.79 148.27"/><polygon class="cls-1" points="337.65 142.22 337.65 138.64 361.21 138.64 360.75 143.92 337.65 142.22"/><polygon class="cls-1" points="335.33 135.34 335.81 138.64 359.08 138.64 359.08 135.34 335.33 135.34"/><g class="cls-2"><polygon class="cls-3" points="337.65 138.64 337.65 139.41 360.4 138.64 337.65 138.64"/></g><g class="cls-2"><polygon class="cls-3" points="337.65 142.22 360.75 143.92 360.82 143.07 337.65 142.22"/></g><g class="cls-2"><polygon class="cls-3" points="350.35 140.83 354.34 140.32 360.4 140.83 350.35 140.83"/></g><g class="cls-2"><polygon class="cls-3" points="336.56 145.72 344.1 145.72 336.61 146.25 336.56 145.72"/></g><g class="cls-2"><path class="cls-3" d="M343.58,137l15.5-.48C359.1,136.88,343.58,137,343.58,137Z"/></g><rect class="cls-3" x="317.15" y="113.53" width="3.54" height="26.49" transform="translate(192.15 445.69) rotate(-90)"/><path class="cls-1" d="M309.28,125.15a8.14,8.14,0,0,1,0,3.31,8.14,8.14,0,0,1,0-3.31Z"/><path class="cls-1" d="M308.7,125.08a8.14,8.14,0,0,1,0,3.31,8.64,8.64,0,0,1,0-3.31Z"/><path class="cls-1" d="M330.11,125.15a8.14,8.14,0,0,1,0,3.31,8.64,8.64,0,0,1,0-3.31Z"/><path class="cls-1" d="M329.54,125.08a8.64,8.64,0,0,1,0,3.31,8.14,8.14,0,0,1,0-3.31Z"/><path class="cls-1" d="M326.08,126.88c0,.09-3,.16-6.78.16s-6.78-.07-6.78-.16,3-.17,6.78-.17S326.08,126.79,326.08,126.88Z"/><rect class="cls-3" x="315.26" y="131.23" width="7.08" height="26.49" transform="translate(174.33 463.28) rotate(-90)"/><path class="cls-1" d="M332.39,146l-.15.08-.44.21a8,8,0,0,1-1.79.51,4.77,4.77,0,0,1-2.92-.41,3.83,3.83,0,0,1-1.38-1.26,2.88,2.88,0,0,1-.48-2,2.19,2.19,0,0,1,.48-1.05,1.39,1.39,0,0,1,1.12-.51,1.62,1.62,0,0,1,1.12.61,2.17,2.17,0,0,1,.51,1.2,3.19,3.19,0,0,1-.91,2.51,4,4,0,0,1-2.54,1.25,6.84,6.84,0,0,1-3-.37,5.41,5.41,0,0,1-2.58-1.74,2.76,2.76,0,0,1-.6-1.52,2,2,0,0,1,.56-1.59,1.35,1.35,0,0,1,.83-.37,1.57,1.57,0,0,1,.87.25,2.29,2.29,0,0,1,1,1.42,3.34,3.34,0,0,1-1,3.12,5.3,5.3,0,0,1-3,1.22,7.47,7.47,0,0,1-3.09-.31,4.23,4.23,0,0,1-2.35-1.83,3.12,3.12,0,0,1-.29-2.81,1.47,1.47,0,0,1,1.08-.91,1.7,1.7,0,0,1,1.33.32,2.2,2.2,0,0,1,.63,2.38,4.06,4.06,0,0,1-1.33,1.88,6.09,6.09,0,0,1-3.64,1.42,6,6,0,0,1-4.38-1.77,4.62,4.62,0,0,1-.31-.37l-.1-.14a6.66,6.66,0,0,0,2,1.51,5.75,5.75,0,0,0,6.3-.82,3.84,3.84,0,0,0,1.24-1.78,1.94,1.94,0,0,0-.55-2.09,1.4,1.4,0,0,0-1.11-.26,1.19,1.19,0,0,0-.87.75,2.88,2.88,0,0,0,.29,2.54,3.94,3.94,0,0,0,2.2,1.68,6.94,6.94,0,0,0,3,.28,4.93,4.93,0,0,0,2.79-1.13,3,3,0,0,0,.95-2.8,2,2,0,0,0-.83-1.22,1,1,0,0,0-1.29.08,1.64,1.64,0,0,0-.46,1.32,2.49,2.49,0,0,0,.53,1.36,5.2,5.2,0,0,0,2.42,1.63,6.41,6.41,0,0,0,2.82.36,3.73,3.73,0,0,0,2.37-1.14,2.94,2.94,0,0,0,.85-2.28,1.68,1.68,0,0,0-1.37-1.58,1.12,1.12,0,0,0-.92.41,1.87,1.87,0,0,0-.44.93,2.74,2.74,0,0,0,.42,1.89,3.79,3.79,0,0,0,1.3,1.2,4.59,4.59,0,0,0,2.81.45,8.32,8.32,0,0,0,1.79-.45C332.18,146.1,332.38,146,332.39,146Z"/><rect class="cls-4" x="313.85" y="122.72" width="12.28" height="24.12" transform="translate(185.2 454.77) rotate(-90)"/><path class="cls-3" d="M311.93,129.06a53.25,53.25,0,0,1,.17,5.95,53.14,53.14,0,0,1-.17,5.94,53.14,53.14,0,0,1-.17-5.94A53.25,53.25,0,0,1,311.93,129.06Z"/><path class="cls-3" d="M313.76,128.91a51.92,51.92,0,0,1,.17,5.87,51.92,51.92,0,0,1-.17,5.87,51.92,51.92,0,0,1-.17-5.87A51.92,51.92,0,0,1,313.76,128.91Z"/><path class="cls-3" d="M329.32,128.52a57.4,57.4,0,0,1,.17,6.18,57.28,57.28,0,0,1-.17,6.17,57.28,57.28,0,0,1-.17-6.17A57.4,57.4,0,0,1,329.32,128.52Z"/><path class="cls-3" d="M327.17,128.68a54.64,54.64,0,0,1,.17,6,54.49,54.49,0,0,1-.17,6,54.49,54.49,0,0,1-.17-6A54.64,54.64,0,0,1,327.17,128.68Z"/><rect class="cls-5" x="298.16" y="147.83" width="35.89" height="116.16"/><rect class="cls-3" x="334.04" y="147.85" width="30.47" height="116.12"/><rect class="cls-3" x="300.96" y="152.53" width="28.79" height="25.02"/><rect class="cls-3" x="300.96" y="180.39" width="28.79" height="25.02"/><rect class="cls-3" x="300.96" y="208.25" width="28.79" height="25.02"/><rect class="cls-3" x="300.96" y="236.11" width="28.79" height="25.02"/><path class="cls-1" d="M315.36,157.15a1,1,0,1,1-1-1A1,1,0,0,1,315.36,157.15Z"/><path class="cls-1" d="M315.36,185.33a1,1,0,1,1-1-1A1,1,0,0,1,315.36,185.33Z"/><path class="cls-1" d="M315.36,213.52a1,1,0,1,1-1-1A1,1,0,0,1,315.36,213.52Z"/><path class="cls-1" d="M315.36,241.7a1,1,0,1,1-1-1A1,1,0,0,1,315.36,241.7Z"/><rect class="cls-3" x="298.16" y="263.99" width="4.15" height="23.3"/><rect class="cls-3" x="329.75" y="263.99" width="4.15" height="23.3"/><rect class="cls-3" x="359.92" y="263.99" width="4.15" height="23.3"/><rect class="cls-3" x="23.17" y="37.22" width="5.65" height="251.05" transform="translate(-0.87 0.14) rotate(-0.31)"/><rect class="cls-3" x="36.69" y="37.14" width="5.65" height="251.05" transform="translate(-0.87 0.21) rotate(-0.31)"/><rect class="cls-3" x="154.86" y="36.51" width="5.65" height="251.05" transform="translate(-0.87 0.85) rotate(-0.31)"/><rect class="cls-3" x="168.38" y="36.44" width="5.65" height="251.05" transform="translate(-0.86 0.92) rotate(-0.31)"/><rect class="cls-3" x="22.51" y="36.83" width="150.87" height="5.73" transform="translate(-0.21 0.53) rotate(-0.31)"/><rect class="cls-3" x="22.77" y="88.37" width="150.87" height="1.71" transform="translate(-0.48 0.53) rotate(-0.31)"/><rect class="cls-3" x="23.03" y="136.95" width="150.87" height="1.71" transform="translate(-0.74 0.53) rotate(-0.31)"/><rect class="cls-3" x="23.29" y="185.53" width="150.87" height="1.71" transform="translate(-1 0.53) rotate(-0.31)"/><rect class="cls-3" x="23.55" y="234.12" width="150.87" height="1.71" transform="translate(-1.26 0.53) rotate(-0.31)"/><rect class="cls-4" x="84.72" y="205.77" width="26.73" height="28.35" transform="translate(-1.18 0.53) rotate(-0.31)"/><rect class="cls-5" x="111.32" y="205.63" width="26.73" height="28.35" transform="translate(-1.18 0.67) rotate(-0.31)"/><path class="cls-3" d="M84.69,213.61c17.75.17,35.56,0,53.32-.26a.21.21,0,0,0,0-.42c-17.76-.09-35.57-.05-53.33.32-.23,0-.22.35,0,.36Z"/><rect class="cls-4" x="84.13" y="99.03" width="19.57" height="20.76" transform="matrix(1, -0.01, 0.01, 1, -0.58, 0.5)"/><rect class="cls-5" x="103.61" y="98.93" width="19.57" height="20.76" transform="translate(-0.58 0.61) rotate(-0.31)"/><path class="cls-3" d="M84.1,104.82q19.52.15,39.06-.18a.21.21,0,0,0,0-.42q-19.51-.1-39.06.24a.18.18,0,0,0,0,.36Z"/><rect class="cls-4" x="71.91" y="119.49" width="35.56" height="16.92" transform="translate(-0.68 0.48) rotate(-0.31)"/><rect class="cls-5" x="107.31" y="119.3" width="35.56" height="16.92" transform="translate(-0.68 0.67) rotate(-0.31)"/><path class="cls-3" d="M71.89,124.29c23.63.27,47.34,0,71-.35a.21.21,0,0,0,0-.41c-23.63-.13-47.34-.12-71,.41a.18.18,0,0,0,0,.35Z"/><rect class="cls-4" x="72.93" y="53.74" width="8.93" height="34.83" transform="translate(-0.38 0.42) rotate(-0.31)"/><rect class="cls-3" x="63.85" y="63.21" width="8.93" height="25.33" transform="translate(-0.41 0.37) rotate(-0.31)"/><rect class="cls-3" x="81.99" y="60.21" width="13.88" height="28.23" transform="translate(-0.4 0.48) rotate(-0.31)"/><rect class="cls-4" x="95.66" y="60.16" width="4.41" height="28.23" transform="translate(-0.4 0.52) rotate(-0.31)"/><rect class="cls-3" x="100.09" y="66.66" width="4.41" height="21.7" transform="translate(-0.41 0.55) rotate(-0.31)"/><rect class="cls-3" x="65.09" y="152.8" width="8.93" height="32.66" transform="translate(69.36 -13.74) rotate(22.29)"/><rect class="cls-4" x="78.78" y="151" width="8.93" height="34.83" transform="translate(-0.9 0.45) rotate(-0.31)"/><rect class="cls-3" x="92.31" y="157.44" width="13.88" height="28.23" transform="translate(-0.92 0.53) rotate(-0.31)"/><rect class="cls-4" x="89.24" y="147.02" width="3.04" height="38.69" transform="translate(-0.89 0.49) rotate(-0.31)"/><rect class="cls-5" x="87.74" y="153.06" width="1.52" height="32.66" transform="translate(-0.91 0.48) rotate(-0.31)"/><rect class="cls-5" x="121.97" y="168.53" width="1.52" height="32.66" transform="translate(-61.47 308.58) rotate(-90.31)"/><rect class="cls-4" x="106.23" y="175.06" width="35.6" height="9.03" transform="translate(-0.96 0.67) rotate(-0.31)"/><rect class="cls-3" x="106.18" y="165.98" width="28.59" height="9.03" transform="translate(-0.91 0.65) rotate(-0.31)"/><path class="cls-1" d="M267.2,3.32a4.48,4.48,0,0,1,.18,1.77,4.56,4.56,0,0,1-.18,1.78A4.56,4.56,0,0,1,267,5.09,4.48,4.48,0,0,1,267.2,3.32Z"/><path class="cls-1" d="M252.19,21.12a7.35,7.35,0,0,1-2.28.18,7.44,7.44,0,0,1-2.29-.18,7.26,7.26,0,0,1,2.29-.19A7.17,7.17,0,0,1,252.19,21.12Z"/><circle class="cls-3" cx="267.25" cy="21.13" r="21.13" transform="translate(12.44 104.43) rotate(-22.62)"/><path class="cls-1" d="M276.84,21.62a2.58,2.58,0,0,1-.74.07l-2.06,0c-1.74,0-4.17.06-6.91.06H267V20.25c0-3.06,0-5.83.05-7.83,0-.95.05-1.74.06-2.38a4.37,4.37,0,0,1,.07-.87,3.58,3.58,0,0,1,.07.87c0,.64,0,1.43.06,2.38,0,2,.06,4.77.06,7.83v1.37l-.19-.18c2.74,0,5.17,0,6.91.06l2.06.06A3.64,3.64,0,0,1,276.84,21.62Z"/><path class="cls-1" d="M276.82,6.17c.08.07-.42.68-1.1,1.36s-1.3,1.18-1.37,1.11.43-.68,1.11-1.37S276.75,6.09,276.82,6.17Z"/><path class="cls-1" d="M282.45,12.31c.05.1-.61.52-1.43,1a5.4,5.4,0,0,1-1.56.8A4,4,0,0,1,280.83,13,4,4,0,0,1,282.45,12.31Z"/><path class="cls-1" d="M285.75,21.44a16.36,16.36,0,0,1-4.84,0,16.36,16.36,0,0,1,4.84,0Z"/><path class="cls-1" d="M254.57,27.91a7.82,7.82,0,0,1-1.7,1.6,7.49,7.49,0,0,1-1.93,1.32,7.55,7.55,0,0,1,1.7-1.6A7.31,7.31,0,0,1,254.57,27.91Z"/><path class="cls-1" d="M260.42,33.16a9.8,9.8,0,0,1-1.13,2.06,10.27,10.27,0,0,1-1.29,2A6.26,6.26,0,0,1,259,35,6.26,6.26,0,0,1,260.42,33.16Z"/><path class="cls-1" d="M267.2,39.94a8.3,8.3,0,0,1-.18-2.42,8.25,8.25,0,0,1,.18-2.42,8.25,8.25,0,0,1,.18,2.42A8.3,8.3,0,0,1,267.2,39.94Z"/><path class="cls-1" d="M277.63,36.71a5.71,5.71,0,0,1-2-1.33A5.81,5.81,0,0,1,274,33.56a12.42,12.42,0,0,1,1.83,1.55A12.84,12.84,0,0,1,277.63,36.71Z"/><path class="cls-1" d="M282.52,31.44a6.27,6.27,0,0,1-1.63-1.38,6.52,6.52,0,0,1-1.38-1.63,6.22,6.22,0,0,1,1.64,1.38A6.1,6.1,0,0,1,282.52,31.44Z"/><path class="cls-1" d="M254.35,14.61c-.08.07-.72-.46-1.45-1.19s-1.26-1.37-1.19-1.45a5,5,0,0,1,1.45,1.19A5,5,0,0,1,254.35,14.61Z"/><path class="cls-1" d="M260.39,8.24c-.07.08-.71-.44-1.42-1.15s-1.24-1.35-1.17-1.42.71.45,1.42,1.16S260.46,8.17,260.39,8.24Z"/><rect class="cls-3" x="201.41" y="80.19" width="61.44" height="40.39"/><rect class="cls-1" x="203.54" y="81.85" width="57.13" height="36.94"/><rect class="cls-3" x="222.79" y="95.31" width="18.64" height="10.16"/><path class="cls-6" d="M408.5,287.59c0,.1-91.45.18-204.24.18S0,287.69,0,287.59s91.43-.19,204.26-.19S408.5,287.48,408.5,287.59Z"/><rect class="cls-7" x="234.33" y="172.98" width="44.01" height="2.14" transform="translate(512.68 348.11) rotate(180)"/><polygon class="cls-7" points="285.17 175.13 293.42 144.19 259.06 144.19 251.58 175.13 285.17 175.13"/><polygon class="cls-3" points="253.64 172.78 284.34 172.78 291.49 145.62 260.63 145.62 253.64 172.78"/><rect class="cls-7" x="216.93" y="181.46" width="2.22" height="106.12"/><rect class="cls-6" x="219.15" y="181.77" width="2.22" height="105.82"/><rect class="cls-6" x="280.65" y="184" width="74.33" height="14.41"/><rect class="cls-6" x="353.86" y="181.46" width="2.22" height="106.12"/><rect class="cls-7" x="356.09" y="181.77" width="2.22" height="105.82"/><rect class="cls-6" x="207.33" y="175.3" width="168.84" height="8.7"/><path class="cls-7" d="M321.13,190.21a1.66,1.66,0,1,1-1.66-1.66A1.66,1.66,0,0,1,321.13,190.21Z"/><path class="cls-8" d="M190.31,221.89l-15.13-61.56a7,7,0,0,1,6.81-8.68h35.75a7,7,0,0,1,6.79,5.24l15.9,61.21a7,7,0,0,1-6.72,8.77l-36.53.35A7,7,0,0,1,190.31,221.89Z"/><path class="cls-9" d="M182.21,151.62a7.46,7.46,0,0,0-7.25,9.21l16.12,66.42h12Z"/><rect class="cls-8" x="207.64" y="208.03" width="48.97" height="19.25" rx="9.59"/><path class="cls-10" d="M214.37,227.26,210,208H197.78l-15.57-56.41a7.46,7.46,0,0,0-7.25,9.21l16.12,66.42h.55v0Z"/><g class="cls-11"><path class="cls-12" d="M243.41,208c0,.1-10.11.19-22.58.19s-22.58-.09-22.58-.19,10.11-.18,22.58-.18S243.41,207.93,243.41,208Z"/></g><g class="cls-11"><path class="cls-12" d="M201.15,176.24a1.86,1.86,0,0,0,0,1.09,1.35,1.35,0,0,0,.79.78,1.14,1.14,0,0,0,1.2-.42,1.12,1.12,0,0,0,.19-1.25,1.33,1.33,0,0,0-.9-.64,1.77,1.77,0,0,0-1.07.17s0-.12.22-.24a1.33,1.33,0,0,1,.89-.18,1.54,1.54,0,0,1,1.16.72,1.55,1.55,0,0,1-1.8,2.16,1.56,1.56,0,0,1-.92-1,1.37,1.37,0,0,1,0-.91C201,176.31,201.13,176.23,201.15,176.24Z"/><path class="cls-12" d="M200.66,185.38a3,3,0,0,1-.4-1.23,6.2,6.2,0,0,1,2.09-5.66,2.91,2.91,0,0,1,1.11-.68c0,.05-.38.32-.93.87a7,7,0,0,0-1.62,2.5,7.12,7.12,0,0,0-.39,2.94A11.75,11.75,0,0,1,200.66,185.38Z"/><path class="cls-12" d="M197.85,171.13a10.85,10.85,0,0,0,1.1,2.92,10.68,10.68,0,0,0,2.16,2.25s-.37-.07-.87-.39a5.85,5.85,0,0,1-1.6-1.67,5.5,5.5,0,0,1-.8-2.16A1.89,1.89,0,0,1,197.85,171.13Z"/><path class="cls-12" d="M196.13,176.75c.06-.09,1,.49,2.31.76s2.41.14,2.42.25a5,5,0,0,1-4.73-1Z"/></g><g class="cls-11"><path class="cls-12" d="M219.86,176.24a1.86,1.86,0,0,0,0,1.09,1.35,1.35,0,0,0,.79.78,1.14,1.14,0,0,0,1.2-.42,1.12,1.12,0,0,0,.19-1.25,1.33,1.33,0,0,0-.9-.64,1.8,1.8,0,0,0-1.07.17s0-.12.22-.24a1.33,1.33,0,0,1,.89-.18,1.53,1.53,0,0,1,1.16.72,1.55,1.55,0,0,1-1.8,2.16,1.56,1.56,0,0,1-.92-1,1.37,1.37,0,0,1,0-.91C219.74,176.31,219.84,176.23,219.86,176.24Z"/><path class="cls-12" d="M219.38,185.38a2.71,2.71,0,0,1-.41-1.23,6.2,6.2,0,0,1,2.09-5.66,2.91,2.91,0,0,1,1.11-.68c0,.05-.38.32-.93.87a6.88,6.88,0,0,0-1.61,2.5,7,7,0,0,0-.4,2.94C219.29,184.89,219.43,185.36,219.38,185.38Z"/><path class="cls-12" d="M216.56,171.13a10.85,10.85,0,0,0,1.1,2.92,10.68,10.68,0,0,0,2.16,2.25s-.37-.07-.87-.39a5.85,5.85,0,0,1-1.6-1.67,5.5,5.5,0,0,1-.8-2.16A1.89,1.89,0,0,1,216.56,171.13Z"/><path class="cls-12" d="M214.84,176.75c.06-.09,1,.49,2.31.76s2.41.14,2.42.25a5,5,0,0,1-4.73-1Z"/></g><path class="cls-6" d="M251.87,232.67H194.46a2.83,2.83,0,0,1-2.83-2.83h0a2.83,2.83,0,0,1,2.83-2.83h57.41a2.83,2.83,0,0,1,2.83,2.83h0A2.83,2.83,0,0,1,251.87,232.67Z"/><polygon class="cls-6" points="198.49 232.67 189.04 287.58 191.63 287.58 204.06 232.67 198.49 232.67"/><polygon class="cls-6" points="220.77 232.67 210.73 287.58 213.32 287.58 226.33 232.67 220.77 232.67"/><polygon class="cls-6" points="245.41 232.67 256.61 287.58 254.02 287.58 239.85 232.67 245.41 232.67"/><path class="cls-7" d="M205.5,47.79s3.51.06,9.26-3.32,9.39-8.82,10-8.65,3.34-.4,5.62,11.09-.18,13.44-1.12,13.19-6.94-3.58-11.06-4.09a44.73,44.73,0,0,0-9.79.35Z"/><path class="cls-6" d="M197.09,51.73l.62,2.43.27,1.09a2.9,2.9,0,0,0,3.37,2.13l7.72-.78L207.2,46.13l-8,2.09A2.9,2.9,0,0,0,197.09,51.73Z"/><path class="cls-6" d="M200.37,56.17l1.2,5,1.21-.05,6,7.81,3.05-3.56s-3.93-2.93-4.37-4.69.59-1.89.59-1.89L206.52,56Z"/><path class="cls-6" d="M229.91,47c1.18,6.21,1,11.46-.33,11.72S226.15,54.16,225,48s-1-11.46.33-11.72S228.72,40.79,229.91,47Z"/><polygon class="cls-7" points="195.73 54.7 197.81 54.56 197.16 52 195.49 52.55 195.73 54.7"/><polygon class="cls-7" points="207.03 56.92 201.05 58.99 200.71 57.57 207.03 56.92"/><polygon class="cls-6" points="197.16 52 197.81 54.56 197.38 54.59 196.96 52.07 197.16 52"/><g class="cls-13"><path d="M208.93,55.82l1.43-.17"/></g><path class="cls-7" d="M198.36,52.84A22,22,0,0,0,203,52a22.3,22.3,0,0,0-4.66.89Z"/><path class="cls-7" d="M198.09,51.35a9.1,9.1,0,0,0,2.15-.36,9.21,9.21,0,0,0,2.09-.6,9.38,9.38,0,0,0-2.15.35A9.52,9.52,0,0,0,198.09,51.35Z"/><path class="cls-7" d="M198.77,54.44s.24,0,.64,0l.69-.05c.26,0,.53-.1.83-.15a8.74,8.74,0,0,0,2.08-.59,9.59,9.59,0,0,0-2.13.34l-.82.16-.67.12A2,2,0,0,0,198.77,54.44Z"/><path class="cls-7" d="M225.05,44.52s3.32-1.1,4,3.18-2.55,4.2-2.55,4.2A26.72,26.72,0,0,1,225.05,44.52Z"/><path class="cls-6" d="M223.09,39.13a4.33,4.33,0,0,0-.07.77c0,.5-.06,1.23-.08,2.12,0,.45.05.94.08,1.46,0,.27,0,.54,0,.82l0,.42c0,.15,0,.29,0,.44.08.58.17,1.2.25,1.84,0,.16.05.32.07.48a4.74,4.74,0,0,0,.1.49q.1.48.21,1c.08.33.15.66.22,1s.07.33.12.49.09.31.14.46c.19.62.37,1.21.55,1.78,0,.14.08.28.13.42s.11.26.16.39l.31.76c.19.49.38.94.55,1.36.39.8.72,1.44.95,1.88a4.79,4.79,0,0,0,.39.68,4.67,4.67,0,0,0-.3-.72c-.21-.47-.51-1.12-.88-1.92l-.52-1.36-.29-.76-.15-.39c0-.14-.09-.28-.13-.42-.17-.56-.35-1.15-.53-1.77,0-.15-.09-.3-.14-.46s-.07-.32-.11-.48c-.07-.32-.14-.65-.22-1l-.21-1a4.1,4.1,0,0,1-.1-.48l-.07-.48c-.09-.63-.18-1.25-.26-1.83,0-.14-.05-.29-.06-.43l0-.42c0-.28,0-.55-.05-.81,0-.52-.07-1-.11-1.45V39.91A4,4,0,0,0,223.09,39.13Z"/><path class="cls-14" d="M156.25,123.22s9.28,20.32,9.88,21.1,12.21,8.21,12.21,8.21l11.27-.63-12.89-13.54L165.88,116.9Z"/><path class="cls-6" d="M128.38,74.9a1.12,1.12,0,0,1-1.5,1.41c-.76-.33-.91-1.34-.81-2.17a4.18,4.18,0,0,0,0-2.43,5.64,5.64,0,0,0-1.34-1.33,3.56,3.56,0,0,1-1.16-3A3,3,0,0,1,125.45,65c1.07-.37,2.42-.11,3.18-.93.56-.6.54-1.54,1-2.24.64-1.09,2.11-1.34,3.38-1.23a10.19,10.19,0,0,0,3.77.06,17.47,17.47,0,0,0,2.75-1.56,5.54,5.54,0,0,1,7.62,7.2A3.56,3.56,0,0,1,145.48,68"/><path class="cls-14" d="M129.64,96.39l11.92-1c.08-1.39,0-6.78,0-6.78s5-.77,5-5.73-.8-16.36-.8-16.36h0a17.26,17.26,0,0,0-17.32,2.18l-.74.57Z"/><path class="cls-6" d="M144.09,75a.72.72,0,0,1-.05-1,.72.72,0,0,1,1.07,1A.72.72,0,0,1,144.09,75Z"/><path class="cls-6" d="M145.82,74c-.07.08-.56-.29-1.25-.29s-1.17.35-1.25.26,0-.2.26-.36a1.69,1.69,0,0,1,1-.32,1.64,1.64,0,0,1,1,.34C145.79,73.77,145.86,73.93,145.82,74Z"/><path class="cls-6" d="M137.51,74.56a.72.72,0,1,1-1,.24A.73.73,0,0,1,137.51,74.56Z"/><path class="cls-6" d="M138.4,74.57c-.08.09-.56-.29-1.25-.29s-1.18.35-1.25.26,0-.19.25-.36a1.68,1.68,0,0,1,2,0C138.37,74.37,138.44,74.53,138.4,74.57Z"/><path class="cls-6" d="M141.14,80.21a3.24,3.24,0,0,1,1.11-.24c.17,0,.31-.06.33-.15a1,1,0,0,0-.13-.52l-.54-1.38a19,19,0,0,1-1.17-3.65,18.45,18.45,0,0,1,1.53,3.51c.18.48.35.94.51,1.4a1.13,1.13,0,0,1,.1.74.47.47,0,0,1-.31.29,1.77,1.77,0,0,1-.3,0A3.65,3.65,0,0,1,141.14,80.21Z"/><path class="cls-12" d="M138.92,81a13,13,0,0,0,3.35,1,1.9,1.9,0,0,1-2.23.75C138.56,82.14,138.92,81,138.92,81Z"/><path class="cls-15" d="M141.55,88.59a11.58,11.58,0,0,1-6.47-1.84s1.53,3.57,6.48,3.12Z"/><path class="cls-6" d="M145.86,67.82a8.27,8.27,0,0,1-7,0c-2.67-1.1-5.71-1.5-6.33-.94s-.57,3.23-3.06,4.19c0,0,.55,5-1.48,5s-1.35-7.95-1.35-7.95l4.76-2.77,5.3-1.42,5.12.34,4,.79Z"/><path class="cls-14" d="M128.31,74.46c-.08,0-3.41-1-3.3,2.38s3.49,2.58,3.5,2.49S128.31,74.46,128.31,74.46Z"/><path class="cls-15" d="M127.43,78.07s-.06.05-.16.1a.63.63,0,0,1-.44,0,1.48,1.48,0,0,1-.72-1.29,2,2,0,0,1,.14-.85.7.7,0,0,1,.43-.47.31.31,0,0,1,.36.15c0,.09,0,.16,0,.17s.07-.06,0-.2a.34.34,0,0,0-.14-.21.44.44,0,0,0-.33-.07.81.81,0,0,0-.6.54,2.09,2.09,0,0,0-.17,1,1.52,1.52,0,0,0,.91,1.44.58.58,0,0,0,.53-.11C127.43,78.16,127.44,78.08,127.43,78.07Z"/><path class="cls-6" d="M126,64c0-.1.53-.34,1.21-.12s1,.73.92.78-.46-.26-1-.43S126,64.05,126,64Z"/><path class="cls-6" d="M127.94,61.81c.11,0,.1.71.26,1.53s.54,1.41.46,1.47-.64-.48-.81-1.39A2.31,2.31,0,0,1,127.94,61.81Z"/><path class="cls-6" d="M142.5,72.85c-.11-.16.52-.71,1.5-.75s1.66.44,1.57.62-.75.07-1.53.11S142.6,73,142.5,72.85Z"/><path class="cls-6" d="M134.89,72.22c-.11-.17.52-.72,1.5-.76s1.66.45,1.57.62-.75.07-1.54.11S135,72.4,134.89,72.22Z"/><path class="cls-8" d="M106.81,281.86l-1.18,5s-8.12,10.55-10.63,10c-1.64-.33.38-3.08,3.47-11.1l.65-3.31Z"/><path class="cls-6" d="M94.67,295.3a1.11,1.11,0,0,0,.44.41,1.48,1.48,0,0,0,1.55-.21,45.45,45.45,0,0,0,4-3.83c1.51-1.58,2.77-3.1,3.66-4.22l1-1.33.29-.37.1-.12s0,.05-.08.14l-.26.38c-.23.33-.57.8-1,1.37a53.05,53.05,0,0,1-3.63,4.25,39.7,39.7,0,0,1-4.09,3.81,1.86,1.86,0,0,1-.92.34,1.3,1.3,0,0,1-.72-.16.87.87,0,0,1-.34-.31A.55.55,0,0,1,94.67,295.3Z"/><path class="cls-6" d="M95.82,291.91a1.24,1.24,0,0,1,.67-.08,3.59,3.59,0,0,1,1.53.53,2.84,2.84,0,0,1,1.11,1.18,1.48,1.48,0,0,1,.18.65s-.08-.25-.27-.6a3,3,0,0,0-1.1-1.1,3.7,3.7,0,0,0-1.46-.55A5.25,5.25,0,0,0,95.82,291.91Z"/><path class="cls-6" d="M103.51,289.43a1.13,1.13,0,0,1-.1-.24,4.63,4.63,0,0,1-.16-.68,3.75,3.75,0,0,1,.38-2.26,3.49,3.49,0,0,1,1.64-1.59,3.22,3.22,0,0,1,.67-.21.74.74,0,0,1,.26,0,5.59,5.59,0,0,0-.88.31,3.61,3.61,0,0,0-1.56,1.57,3.75,3.75,0,0,0-.4,2.18C103.42,289.08,103.54,289.42,103.51,289.43Z"/><path class="cls-6" d="M106.29,282.7s-.14.71-.3,1.58a5.17,5.17,0,0,1-.42,1.57s.13-.71.28-1.59A5.15,5.15,0,0,1,106.29,282.7Z"/><path class="cls-6" d="M98.32,286.45a2,2,0,0,1,1.05,0,1.9,1.9,0,0,1,.94.44s-.43-.18-1-.3S98.33,286.5,98.32,286.45Z"/><path class="cls-6" d="M98.16,287.3a1.29,1.29,0,0,1,.87,0,1.26,1.26,0,0,1,.77.43s-.34-.18-.8-.29S98.16,287.35,98.16,287.3Z"/><path class="cls-6" d="M97.51,288.37a1.11,1.11,0,0,1,.91-.12,1.17,1.17,0,0,1,.77.5,4.47,4.47,0,0,0-.8-.35A3.4,3.4,0,0,0,97.51,288.37Z"/><path class="cls-6" d="M98.88,286.1s.38-.1,1-.33a6.55,6.55,0,0,0,1-.47l.54-.34c.16-.13.34-.31.34-.5s-.25-.3-.44-.25a1.28,1.28,0,0,0-.5.34c-.3.28-.55.55-.76.78-.41.46-.64.77-.66.76s0-.09.13-.24.25-.35.45-.59a10.26,10.26,0,0,1,.75-.81,1.27,1.27,0,0,1,.56-.38.47.47,0,0,1,.61.38.79.79,0,0,1-.4.62,5.72,5.72,0,0,1-.56.35,6.08,6.08,0,0,1-1,.45,4.9,4.9,0,0,1-.72.19A.78.78,0,0,1,98.88,286.1Z"/><path class="cls-6" d="M99.31,286s-.06-.35-.15-.9a3.52,3.52,0,0,0-.28-.94,1.75,1.75,0,0,0-.3-.48c-.12-.14-.31-.26-.46-.17s-.18.31-.15.49a2.48,2.48,0,0,0,.15.55,3.24,3.24,0,0,0,.54.82c.37.41.67.61.65.63s-.08,0-.22-.12a4,4,0,0,1-.51-.44,3,3,0,0,1-.58-.84,2.46,2.46,0,0,1-.18-.58.62.62,0,0,1,.23-.64c.26-.14.51.06.64.2a2.44,2.44,0,0,1,.32.52,3.53,3.53,0,0,1,.25,1c0,.29,0,.52.06.68A.87.87,0,0,1,99.31,286Z"/><path class="cls-8" d="M147.18,284.37l0-6.63-12.4-.15-.16,9.69.77.06c3.42.23,17.41.94,19.7.27C157.7,286.87,147.18,284.37,147.18,284.37Z"/><g class="cls-16"><path class="cls-8" d="M139.16,287.24a4.36,4.36,0,0,0-1.55-2.67,4.21,4.21,0,0,0-2.89-.93l-.05,3.46Z"/></g><path class="cls-6" d="M134.49,287l.21,0,.61.05,2.26.12c1.9.09,4.53.19,7.44.23s5.54,0,7.45,0l2.25-.06.61,0,.22,0h-.83l-2.26,0c-1.9,0-4.53,0-7.44,0s-5.54-.12-7.44-.19l-2.25-.07-.62,0Z"/><path class="cls-6" d="M151.2,287.55a4.33,4.33,0,0,1,.43-1.07,5,5,0,0,1,.78-.86,1.72,1.72,0,0,0-.91.78A1.62,1.62,0,0,0,151.2,287.55Z"/><path class="cls-6" d="M147.56,285.65s.21-.19.4-.48a1.44,1.44,0,0,0,.27-.55s-.22.19-.4.47S147.52,285.62,147.56,285.65Z"/><path class="cls-6" d="M146.56,285.1s.23-.1.44-.29.37-.36.34-.39-.22.09-.44.28S146.53,285.07,146.56,285.1Z"/><path class="cls-6" d="M145.94,283.92a1.54,1.54,0,0,0,.65.09,1.45,1.45,0,0,0,.65-.06,1.54,1.54,0,0,0-.65-.09A1.45,1.45,0,0,0,145.94,283.92Z"/><path class="cls-6" d="M145.73,283.09a1.2,1.2,0,0,0,.72.22,1.24,1.24,0,0,0,.75-.09,4.72,4.72,0,0,0-.73-.06A4.62,4.62,0,0,0,145.73,283.09Z"/><path class="cls-6" d="M148,284.57a2.13,2.13,0,0,0,.8,0,4.4,4.4,0,0,0,.85-.17,2.81,2.81,0,0,0,.49-.2.41.41,0,0,0,.2-.24.32.32,0,0,0-.12-.32,1.45,1.45,0,0,0-1.81.4,1.55,1.55,0,0,0-.27.53.47.47,0,0,0,0,.22,2.34,2.34,0,0,1,.37-.68,1.41,1.41,0,0,1,.69-.43,1.26,1.26,0,0,1,1,.07c.12.1.07.25-.07.33a3,3,0,0,1-.45.19,5.67,5.67,0,0,1-.82.2C148.3,284.55,148,284.54,148,284.57Z"/><path class="cls-6" d="M148.2,284.61a.79.79,0,0,0,.1-.55,1.36,1.36,0,0,0-.21-.59.8.8,0,0,0-.66-.41.31.31,0,0,0-.25.36.82.82,0,0,0,.13.36,3,3,0,0,0,.37.49,1.22,1.22,0,0,0,.45.33s-.15-.15-.37-.4a2.45,2.45,0,0,1-.33-.49c-.11-.17-.18-.47,0-.5s.4.18.52.34a1.27,1.27,0,0,1,.22.52A3.25,3.25,0,0,1,148.2,284.61Z"/><path class="cls-6" d="M134.78,283.6s.36,0,.92,0a4,4,0,0,1,2,.85,4,4,0,0,1,1.23,1.78c.18.53.19.89.22.89a.54.54,0,0,0,0-.25,3.07,3.07,0,0,0-.12-.67,3.79,3.79,0,0,0-3.31-2.71,3.61,3.61,0,0,0-.68,0A.79.79,0,0,0,134.78,283.6Z"/><path class="cls-6" d="M136.14,278.46A18.49,18.49,0,0,0,136,281a19.06,19.06,0,0,0,0,2.56,23.34,23.34,0,0,0,.14-2.55A23.78,23.78,0,0,0,136.14,278.46Z"/><path class="cls-6" d="M140.73,286.05a7.13,7.13,0,0,0,1.81.2,6.79,6.79,0,0,0,1.82-.12s-.81,0-1.81,0S140.74,286,140.73,286.05Z"/><path class="cls-17" d="M138.3,286s.07.18.15.36.12.36.16.35.07-.19,0-.41S138.33,286,138.3,286Z"/><path class="cls-17" d="M137.4,284.86s0,.16.18.29.25.22.28.19-.05-.16-.17-.29S137.43,284.83,137.4,284.86Z"/><path class="cls-17" d="M136.1,284.33s.17,0,.35.1.31.17.35.14-.07-.2-.3-.28S136.09,284.29,136.1,284.33Z"/><path class="cls-17" d="M135.17,284.07s.05.1.15.14.2.05.22,0-.06-.11-.16-.15S135.18,284,135.17,284.07Z"/><polyline class="cls-6" points="155.63 152.84 149.84 281.51 130.52 281.92 133.73 174.2 112 282.74 93.63 282.74 118.16 152.84"/><polygon class="cls-7" points="112.95 280.99 112.51 282.89 93.63 283.15 93.92 280.18 112.95 280.99"/><g class="cls-11"><path class="cls-12" d="M98.25,280.91c.1,0,.14.26.1.55s-.17.5-.27.48-.14-.26-.1-.54S98.15,280.89,98.25,280.91Z"/><path class="cls-12" d="M99,276.69c.1,0,.1.5,0,1.09s-.25,1-.35,1-.11-.5,0-1.08S98.86,276.68,99,276.69Z"/><path class="cls-12" d="M99.67,272.48c.1,0,.1.5,0,1.08s-.26,1-.36,1-.1-.51,0-1.09S99.57,272.46,99.67,272.48Z"/><path class="cls-12" d="M100.38,268.26c.1,0,.1.5,0,1.09s-.26,1-.36,1-.1-.5,0-1.08S100.28,268.25,100.38,268.26Z"/><path class="cls-12" d="M101.09,264.05c.1,0,.1.5,0,1.08s-.26,1-.36,1-.1-.5,0-1.08S101,264,101.09,264.05Z"/><path class="cls-12" d="M101.8,259.83c.1,0,.1.5,0,1.09s-.26,1-.36,1-.1-.5,0-1.09S101.7,259.81,101.8,259.83Z"/><path class="cls-12" d="M102.51,255.62c.1,0,.1.5,0,1.08s-.26,1-.36,1-.1-.5,0-1.08S102.41,255.6,102.51,255.62Z"/><path class="cls-12" d="M103.23,251.4c.1,0,.1.5,0,1.09s-.26,1-.36,1-.1-.5,0-1.09S103.13,251.38,103.23,251.4Z"/><path class="cls-12" d="M104,247.19c.09,0,.1.5,0,1.08s-.26,1-.36,1-.1-.5,0-1.08S103.85,247.17,104,247.19Z"/><path class="cls-12" d="M104.67,243c.1,0,.1.51,0,1.09s-.27,1-.36,1-.1-.5,0-1.08S104.57,243,104.67,243Z"/><path class="cls-12" d="M105.39,238.76c.1,0,.1.5,0,1.08s-.26,1-.36,1-.1-.51,0-1.09S105.29,238.74,105.39,238.76Z"/><path class="cls-12" d="M106.12,234.55c.1,0,.1.5,0,1.08s-.27,1-.37,1-.09-.5,0-1.08S106,234.53,106.12,234.55Z"/><path class="cls-12" d="M106.85,230.33c.1,0,.1.51,0,1.09s-.27,1-.37,1-.1-.5,0-1.08S106.75,230.32,106.85,230.33Z"/><path class="cls-12" d="M107.58,226.12c.1,0,.1.51,0,1.09s-.26,1-.36,1-.1-.5,0-1.09S107.49,226.1,107.58,226.12Z"/><path class="cls-12" d="M108.32,221.91c.1,0,.1.5,0,1.09s-.27,1-.37,1-.09-.51,0-1.09S108.23,221.89,108.32,221.91Z"/><path class="cls-12" d="M109.07,217.7c.1,0,.1.5,0,1.09s-.26,1-.36,1-.1-.51,0-1.09S109,217.68,109.07,217.7Z"/><path class="cls-12" d="M109.82,213.49c.1,0,.1.51,0,1.09s-.27,1-.37,1-.09-.51,0-1.09S109.72,213.47,109.82,213.49Z"/><path class="cls-12" d="M110.58,209.28c.1,0,.09.51,0,1.09s-.27,1-.37,1-.1-.5,0-1.09S110.48,209.27,110.58,209.28Z"/><path class="cls-12" d="M111.34,205.08c.1,0,.09.5,0,1.08s-.27,1-.37,1-.1-.5,0-1.08S111.24,205.06,111.34,205.08Z"/><path class="cls-12" d="M112.11,200.87c.1,0,.09.51,0,1.09s-.27,1-.37,1-.09-.5,0-1.08S112,200.85,112.11,200.87Z"/><path class="cls-12" d="M112.88,196.67c.1,0,.09.5,0,1.08s-.28,1-.38,1-.09-.5,0-1.08S112.78,196.65,112.88,196.67Z"/><path class="cls-12" d="M113.66,192.46c.1,0,.09.51,0,1.09s-.28,1-.38,1-.09-.51,0-1.09S113.56,192.45,113.66,192.46Z"/><path class="cls-12" d="M114.45,188.26c.1,0,.09.51,0,1.09s-.27,1-.37,1-.09-.5,0-1.08S114.35,188.24,114.45,188.26Z"/><path class="cls-12" d="M115.25,184.06c.1,0,.09.51,0,1.09s-.28,1-.38,1-.09-.5,0-1.08S115.15,184,115.25,184.06Z"/><path class="cls-12" d="M116.06,179.86c.1,0,.09.51,0,1.09s-.28,1-.38,1-.09-.5,0-1.08S116,179.84,116.06,179.86Z"/><path class="cls-12" d="M116.87,175.67c.1,0,.09.5,0,1.08s-.29,1-.39,1-.09-.5,0-1.08S116.77,175.65,116.87,175.67Z"/><path class="cls-12" d="M117.7,171.47c.09,0,.08.51,0,1.09s-.29,1-.39,1-.08-.51,0-1.09S117.6,171.45,117.7,171.47Z"/><path class="cls-12" d="M118.53,167.28c.1,0,.09.5,0,1.08s-.29,1-.39,1-.08-.5,0-1.08S118.43,167.26,118.53,167.28Z"/><path class="cls-12" d="M119.38,163.09c.09,0,.08.5,0,1.08s-.29,1-.39,1-.08-.5,0-1.08S119.28,163.07,119.38,163.09Z"/><path class="cls-12" d="M120.23,158.9c.1,0,.09.5,0,1.08s-.3,1-.4,1-.08-.5,0-1.08S120.13,158.88,120.23,158.9Z"/><path class="cls-12" d="M120.88,155.77c.1,0,.13.27.07.55s-.18.5-.28.48-.13-.27-.08-.55S120.78,155.75,120.88,155.77Z"/></g><g class="cls-11"><path class="cls-12" d="M133.85,280.89c.1,0,.17.25.15.54s-.11.52-.21.51-.17-.24-.15-.53S133.75,280.89,133.85,280.89Z"/><path class="cls-12" d="M134,276.6c.1,0,.16.49.14,1.08s-.13,1.07-.23,1.07-.16-.49-.14-1.08S133.92,276.6,134,276.6Z"/><path class="cls-12" d="M134.16,272.31c.1,0,.17.49.15,1.08s-.11,1.07-.21,1.07-.17-.49-.16-1.08S134.06,272.31,134.16,272.31Z"/><path class="cls-12" d="M134.27,268c.1,0,.17.49.15,1.08s-.1,1.07-.21,1.07-.17-.49-.15-1.08S134.17,268,134.27,268Z"/><path class="cls-12" d="M134.37,263.73c.1,0,.17.49.16,1.08s-.11,1.07-.21,1.07-.17-.49-.16-1.08S134.27,263.73,134.37,263.73Z"/><path class="cls-12" d="M134.48,259.44c.1,0,.17.48.15,1.08s-.11,1.07-.21,1.06-.17-.48-.15-1.07S134.38,259.43,134.48,259.44Z"/><path class="cls-12" d="M134.62,255.14c.1,0,.17.49.15,1.08s-.12,1.07-.22,1.07-.17-.49-.15-1.08S134.52,255.14,134.62,255.14Z"/><path class="cls-12" d="M134.8,250.86c.1,0,.16.48.14,1.08s-.13,1.06-.23,1.06-.16-.49-.14-1.08S134.7,250.85,134.8,250.86Z"/><path class="cls-12" d="M135,246.57c.1,0,.16.48.14,1.08s-.12,1.06-.22,1.06-.17-.49-.14-1.08S134.87,246.56,135,246.57Z"/><path class="cls-12" d="M135.12,242.28c.1,0,.17.48.15,1.08s-.12,1.06-.22,1.06-.17-.48-.15-1.08S135,242.27,135.12,242.28Z"/><path class="cls-12" d="M135.25,238c.1,0,.17.49.15,1.08s-.11,1.07-.21,1.07-.17-.49-.15-1.08S135.15,238,135.25,238Z"/><path class="cls-12" d="M135.36,233.69c.1,0,.17.49.16,1.08s-.11,1.07-.21,1.07-.17-.49-.16-1.08S135.26,233.69,135.36,233.69Z"/><path class="cls-12" d="M135.46,229.4c.1,0,.17.48.16,1.08s-.11,1.07-.21,1.07-.17-.49-.16-1.08S135.35,229.4,135.46,229.4Z"/><path class="cls-12" d="M135.53,225.11c.1,0,.17.48.16,1.07s-.09,1.08-.2,1.07-.17-.48-.16-1.07S135.43,225.11,135.53,225.11Z"/><path class="cls-12" d="M135.58,220.82c.1,0,.18.48.17,1.07s-.09,1.07-.19,1.07-.18-.48-.18-1.07S135.48,220.82,135.58,220.82Z"/><path class="cls-12" d="M135.61,216.52c.1,0,.18.49.18,1.08s-.09,1.07-.19,1.07-.18-.48-.18-1.07S135.51,216.52,135.61,216.52Z"/><path class="cls-12" d="M135.62,212.23c.1,0,.18.48.18,1.08s-.08,1.07-.18,1.07-.19-.48-.18-1.08S135.52,212.23,135.62,212.23Z"/><path class="cls-12" d="M135.61,207.94c.1,0,.18.48.18,1.07s-.07,1.08-.17,1.08-.19-.48-.19-1.08S135.51,207.94,135.61,207.94Z"/><path class="cls-12" d="M135.57,203.65c.1,0,.19.48.2,1.07s-.08,1.07-.18,1.07-.18-.48-.19-1.07S135.47,203.65,135.57,203.65Z"/><path class="cls-12" d="M135.52,199.35c.1,0,.19.48.2,1.08s-.07,1.07-.17,1.07-.19-.48-.2-1.07S135.42,199.36,135.52,199.35Z"/><path class="cls-12" d="M135.44,195.07c.1,0,.19.47.2,1.06s-.06,1.08-.16,1.08-.19-.48-.2-1.07S135.34,195.07,135.44,195.07Z"/><path class="cls-12" d="M135.34,190.77c.1,0,.2.48.21,1.07s-.05,1.08-.15,1.08-.2-.48-.21-1.07S135.24,190.77,135.34,190.77Z"/><path class="cls-12" d="M135.19,186.48c.1,0,.2.47.23,1.06s0,1.08-.14,1.08-.2-.47-.23-1.06S135.09,186.48,135.19,186.48Z"/><path class="cls-12" d="M134.94,182.19c.1,0,.22.47.25,1.06s0,1.08-.11,1.08-.21-.47-.25-1.06S134.84,182.2,134.94,182.19Z"/><path class="cls-12" d="M134.55,177.91c.1,0,.23.46.29,1.05s0,1.08-.07,1.09-.24-.46-.3-1.05S134.45,177.93,134.55,177.91Z"/><path class="cls-12" d="M134.14,174.75c.1,0,.21.21.25.5s0,.53-.11.54-.21-.2-.25-.49S134,174.77,134.14,174.75Z"/></g><polygon class="cls-7" points="150.34 282.14 129.91 282.47 130.07 279.07 150.34 279.18 150.34 282.14"/><path class="cls-18" d="M136.94,154.47a2.86,2.86,0,0,1,0,.8c0,.59-.05,1.31-.08,2.16-.08,1.82-.21,4.34-.39,7.12-.09,1.39-.17,2.7-.25,3.92a11.24,11.24,0,0,1-.47,3.2,2.72,2.72,0,0,1-1.49,1.59,1.56,1.56,0,0,1-.6.11c-.13,0-.21,0-.2,0a4,4,0,0,0,.74-.21,2.68,2.68,0,0,0,1.31-1.55,12.21,12.21,0,0,0,.37-3.13c.07-1.22.15-2.54.23-3.92.17-2.78.35-5.3.49-7.12.08-.84.14-1.56.19-2.15A4.44,4.44,0,0,1,136.94,154.47Z"/><path class="cls-18" d="M135,156.18s.32,0,.44.44a.79.79,0,0,1-.16.71.83.83,0,0,1-1.41-.57.83.83,0,0,1,.39-.62c.38-.22.65,0,.62,0s-.24,0-.47.22a.56.56,0,0,0-.2.42.48.48,0,0,0,.31.41.5.5,0,0,0,.51-.07.59.59,0,0,0,.15-.45C135.12,156.36,134.93,156.23,135,156.18Z"/><path class="cls-18" d="M116.78,159.23c0-.06.63.22,1.65.36a7.08,7.08,0,0,0,6.94-3.1c.57-.86.77-1.49.83-1.47a3.64,3.64,0,0,1-.61,1.61,6.82,6.82,0,0,1-7.2,3.21A3.52,3.52,0,0,1,116.78,159.23Z"/><path class="cls-18" d="M148.91,154.48c.06,0,.07.52.32,1.32a5.92,5.92,0,0,0,1.72,2.68,6,6,0,0,0,2.89,1.36c.82.14,1.35.08,1.35.14a2.74,2.74,0,0,1-1.39.11,5.48,5.48,0,0,1-4.82-4.22A2.76,2.76,0,0,1,148.91,154.48Z"/><path class="cls-8" d="M159.75,157.42l-41.59-2.79.49-20.49,0-14.83L114,126.14l-12.36-12.91L115.5,100h0a21.73,21.73,0,0,1,8.4-5.44,17.19,17.19,0,0,1,5.26-1h0a21,21,0,0,0,12.72,0c.52.07,1.23.14,2.14.24a25.1,25.1,0,0,1,14.64,7l13.26,19.26L157,127.83l-1.78-6S159.85,153.31,159.75,157.42Z"/><path class="cls-8" d="M118.26,120.06a11,11,0,0,1,1.34-2.44,10.45,10.45,0,0,1,1.65-2.24,11,11,0,0,1-1.34,2.44A10.85,10.85,0,0,1,118.26,120.06Z"/><polygon class="cls-9" points="159.78 189.24 76.72 173.45 82.63 143.29 165.69 159.08 172.54 175.72 159.78 189.24"/><polygon class="cls-7" points="159.78 189.24 76.72 173.45 82.63 143.29 165.69 159.08 172.54 175.72 159.78 189.24"/><polygon class="cls-6" points="158.66 186.55 77.36 170.62 83.26 140.47 164.56 156.39 171.42 173.03 158.66 186.55"/><path class="cls-12" d="M109.1,157.62,104,165.28l-1.18-.2-2.2-8.94,1.28.23,1.8,7.33,4.2-6.29Z"/><path class="cls-12" d="M114.1,164.91l-4.41-.77-1.28,1.91-1.22-.21,5.21-7.64,1.17.2,2.32,9-1.24-.22Zm-.25-1-1.08-4.38-2.5,3.75Z"/><path class="cls-12" d="M117.06,163.29a4.25,4.25,0,0,1,5.13-3.48,4.21,4.21,0,0,1,2.93,1.84l-.9.62a3.12,3.12,0,0,0-2.16-1.4,3.24,3.24,0,1,0-1.12,6.38,3.11,3.11,0,0,0,2.51-.59l.64.88a4.16,4.16,0,0,1-3.39.75A4.24,4.24,0,0,1,117.06,163.29Z"/><path class="cls-12" d="M131,167.86l-4.41-.77L125.34,169l-1.22-.22,5.21-7.64,1.17.21,2.32,8.95-1.25-.21Zm-.25-1-1.07-4.38-2.51,3.76Z"/><path class="cls-12" d="M142.64,163.48l-1.45,8.3-1-.17-3.89-7.06-1.08,6.19-1.19-.21,1.45-8.3,1,.17,3.9,7.06,1.08-6.19Z"/><path class="cls-12" d="M146.59,165.23l-2.84-.49.18-1,6.86,1.19-.18,1-2.84-.5-1.27,7.26-1.18-.2Z"/><path class="cls-14" d="M96.7,160l.81,2a18.47,18.47,0,0,0,1.29,3.35,5.24,5.24,0,0,0,1,1.44,8,8,0,0,0,1.72,1.39.69.69,0,0,1,0,1.3c-.6.12-2.32-.64-3.74-2.32s-1.35,1.78-1.35,3-.19,5.15-.58,5.46c-.56.45-1.15-.08-1.12-1.34s-.15-5-.81-5-.57,6.44-.57,6.44.24,1.37-.53,1.43c-1.38.11-1-6.71-.92-7.36,0-.45-.68-.44-.7,0s.24,6.39-1.17,6.52c-1.08.1.28-5.61-.45-6.81S89,174,87.94,174c-.38,0-.67,0-.29-3.26S90.6,158.6,90.6,158.6l6.18,1.47"/><path class="cls-14" d="M112.07,124.37s-8.72,7.21-9.29,9.67S98,163.87,98,163.87l-8.52-1.28s.42-34,3.41-37.31,10.37-11,10.37-11Z"/><path class="cls-15" d="M93.56,128.9s-.13-.07-.25-.28a1.79,1.79,0,0,1-.22-1,1.73,1.73,0,0,1,.79-1.31,1.77,1.77,0,0,1,1.86-.1,1.39,1.39,0,0,1,.65.78,1.25,1.25,0,0,1-.07,1,1,1,0,0,1-1.44.41.84.84,0,0,1-.29-1c.1-.24.24-.3.25-.29s-.09.11-.14.32a.71.71,0,0,0,.3.77.79.79,0,0,0,1.07-.35,1,1,0,0,0,0-.74,1.1,1.1,0,0,0-.52-.61,1.59,1.59,0,0,0-2.29,1.17A2.18,2.18,0,0,0,93.56,128.9Z"/><path class="cls-14" d="M182.56,151.86s8-2.8,8.52-2.36a22.52,22.52,0,0,1,2,3.65,1.15,1.15,0,0,1-1,1.65h0a1.14,1.14,0,0,1-1-.59l-1.31-2.38Z"/><path class="cls-14" d="M185.69,151.86s8-2.8,8.52-2.36a22.52,22.52,0,0,1,2,3.65,1.14,1.14,0,0,1-1,1.65h0a1.16,1.16,0,0,1-1-.59l-1.31-2.38Z"/><path class="cls-14" d="M188.8,151.86s8-2.8,8.53-2.36a22.52,22.52,0,0,1,2,3.65,1.15,1.15,0,0,1-1,1.65h0a1.17,1.17,0,0,1-1-.59l-1.3-2.38Z"/><path class="cls-15" d="M193,152.85a4.3,4.3,0,0,1-.68-1.34,6.83,6.83,0,0,0-.75-1.39,1.35,1.35,0,0,0-.65-.5,2.2,2.2,0,0,0-.9.21,35.8,35.8,0,0,0-4.73,1.9,4.51,4.51,0,0,1,1.24-.86,17,17,0,0,1,3.36-1.38,2.29,2.29,0,0,1,1.09-.22,1.57,1.57,0,0,1,.86.64,5.94,5.94,0,0,1,.72,1.5A14.13,14.13,0,0,1,193,152.85Z"/><path class="cls-15" d="M195.93,152.67c-.06,0-.18-.32-.43-.84a14.92,14.92,0,0,0-1.13-1.94,1,1,0,0,0-1-.37,4.85,4.85,0,0,0-.95.26c-.57.2-1,.14-1,.08s.35-.08.88-.33a3.75,3.75,0,0,1,1-.34,1.45,1.45,0,0,1,.68,0,1.19,1.19,0,0,1,.6.43A5.9,5.9,0,0,1,195.93,152.67Z"/><path class="cls-15" d="M199.05,152.67c-.06,0-.18-.32-.43-.84a16.17,16.17,0,0,0-1.13-1.94,1,1,0,0,0-1-.37,5.16,5.16,0,0,0-1,.26c-.57.2-1,.14-1,.08s.35-.08.87-.33a4,4,0,0,1,1-.34,1.45,1.45,0,0,1,.68,0,1.24,1.24,0,0,1,.6.43A5.9,5.9,0,0,1,199.05,152.67Z"/><path class="cls-8" d="M302.09,71.84a3.75,3.75,0,0,0,2.22-3.45,3.5,3.5,0,1,0-7,0,3.73,3.73,0,0,0,2.22,3.48c-5.38.81-5.13,6.66-5.13,6.66l12.72.06S307.42,72.64,302.09,71.84Z"/><path class="cls-6" d="M296.12,70.38s.29,0,.78-.15a3.24,3.24,0,0,0,1.72-1.16,3.08,3.08,0,1,0-4.95-.09,3.25,3.25,0,0,0,1.68,1.22c.48.15.77.15.77.18s-.07,0-.21,0a3.33,3.33,0,0,1-.6-.07,3.27,3.27,0,0,1-1.85-1.21,3.36,3.36,0,0,1-.46-3.21,3.4,3.4,0,0,1,6.41.12,3.36,3.36,0,0,1-.59,3.19,3.2,3.2,0,0,1-1.89,1.14,2.3,2.3,0,0,1-.6,0Q296.12,70.41,296.12,70.38Z"/><path class="cls-6" d="M291.52,73.31a7.14,7.14,0,0,1,1.2-1.91,7.13,7.13,0,0,1,1.49-1.69,7.14,7.14,0,0,1-1.2,1.91A6.89,6.89,0,0,1,291.52,73.31Z"/><path class="cls-6" d="M314.07,78.51s.1.12.27.37l.77,1.11,2.9,4.24a.08.08,0,0,1,0,.11l-.05,0h-8.08a.1.1,0,0,1-.11-.1.08.08,0,0,1,0-.05h0l.18.15a17.42,17.42,0,0,1-7.73,4.06,16.73,16.73,0,0,1-5,.4A16.93,16.93,0,0,1,292,87.69a18.38,18.38,0,0,1-4.9-2.88A17.55,17.55,0,0,1,281.16,68a17.64,17.64,0,0,1,5.93-10A17.4,17.4,0,0,1,313,62.12a17.23,17.23,0,0,1,2.46,6.66l.12.76c0,.25,0,.5,0,.75,0,.49.06,1,.05,1.41a17.46,17.46,0,0,1-.23,2.45,16.08,16.08,0,0,1-.89,3.27c-.14.37-.26.64-.35.82l-.13.27a.92.92,0,0,1,.1-.28c.07-.19.18-.46.31-.83a17.27,17.27,0,0,0,.82-3.28,16,16,0,0,0,.19-2.43c0-.44,0-.91-.06-1.39,0-.24,0-.49-.05-.74l-.12-.75a17.13,17.13,0,1,0-31.71,11.26,16.81,16.81,0,0,0,3.76,4.47,17.77,17.77,0,0,0,4.79,2.84,17.64,17.64,0,0,0,10,.75,17.23,17.23,0,0,0,7.63-3.95.12.12,0,0,1,.17,0,.14.14,0,0,1,0,.15h0l-.19-.16a1.2,1.2,0,0,1,.37-.05h4.11l3.68,0-.08.13L315,80l-.72-1.12C314.14,78.64,314.07,78.51,314.07,78.51Z"/></svg>