<svg id="Layer_1" data-name="Layer 1" xmlns="http://www.w3.org/2000/svg" viewBox="0 0 195.57 45.84"><defs><style>.cls-1{fill:#fff;}</style></defs><title>white-logo</title><rect class="cls-1" y="32" width="195.57" height="0.25"/><rect class="cls-1" y="45.58" width="195.57" height="0.25"/><rect class="cls-1" x="115.1" width="80.47" height="28.18"/><path class="cls-1" d="M3.16,7.9H9.65c5.35,0,9,3.29,9,8.46s-3.62,8.76-9.08,8.76H3.16Zm1.56,16H9.39c5.12,0,7.63-3.18,7.63-7.42,0-3.77-2.26-7.27-7.63-7.27H4.72Z" transform="translate(-2.43 -2.37)"/><path class="cls-1" d="M26.63,7.9V25.12H25.07V7.9Z" transform="translate(-2.43 -2.37)"/><path class="cls-1" d="M49.21,25.12h-1.3a11.92,11.92,0,0,1-.19-2.74c-.71,1.19-2.24,2.93-6.28,2.93-5.59,0-8.47-3.76-8.47-8.65,0-5.15,3.07-9,8.79-9,4.22,0,7,2,7.61,5.12H47.81c-.82-2.4-2.73-3.85-6.11-3.85-4.85,0-7.05,3.33-7.05,7.66,0,3.91,2.12,7.47,6.86,7.47s6.19-2.79,6.19-6.56V17.3H41.46V16h7.75Z" transform="translate(-2.43 -2.37)"/><path class="cls-1" d="M57.88,7.9V25.12H56.32V7.9Z" transform="translate(-2.43 -2.37)"/><path class="cls-1" d="M69.57,9.17H63V7.9H77.71V9.17H71.15v16H69.57Z" transform="translate(-2.43 -2.37)"/><path class="cls-1" d="M82.52,19.21l-2.46,5.91H78.47L85.61,7.9h1.86l7.44,17.22h-1.7L90.7,19.21Zm7.67-1.27c-2.15-5.09-3.26-7.55-3.65-8.71h0c-.47,1.31-1.72,4.36-3.46,8.71Z" transform="translate(-2.43 -2.37)"/><path class="cls-1" d="M100.43,7.9H102v16h10.45l-.28,1.27H100.43Z" transform="translate(-2.43 -2.37)"/><path class="cls-1" d="M126.44,19.92c.27,1.53,1.4,2.53,3.43,2.53,2.18,0,2.94-.84,2.94-2,0-1.53-1.05-2.16-3.81-2.85-4.42-1.09-5.93-2.49-5.93-4.93,0-3.12,2.83-4.83,6.47-4.83,4.57,0,6.51,2.1,6.73,4.81h-3.82c-.24-1.24-.92-2.19-2.95-2.19-1.71,0-2.55.7-2.55,1.88s1,1.61,3.66,2.31c4.87,1.26,6.15,3,6.15,5.4,0,2.75-2.07,5.1-7.06,5.1-4.17,0-6.87-1.86-7.1-5.2Z" transform="translate(-2.43 -2.37)"/><path class="cls-1" d="M154.08,17.54h-8.29v4.54h9.15l-.46,2.82H142V8h12.43v2.84h-8.64v3.82h8.29Z" transform="translate(-2.43 -2.37)"/><path class="cls-1" d="M163.63,17.93v7h-3.82V8h7.77c3.6,0,6.17,1.58,6.17,4.56a3.91,3.91,0,0,1-3,3.95c1.89.64,2.57,2,2.57,4.06V21a26.77,26.77,0,0,0,.25,3.86h-3.74a12,12,0,0,1-.36-3.92v-.44c0-1.93-.79-2.61-3.29-2.61Zm0-2.73h2.9c1.85,0,3.37-.44,3.37-2.3,0-1.56-1.27-2.14-2.83-2.14h-3.44Z" transform="translate(-2.43 -2.37)"/><path class="cls-1" d="M179.18,8h7c3.58,0,6.73,1.63,6.73,5s-2.92,5.32-7.06,5.32h-2.81V24.9h-3.89Zm3.89,7.65h2.56c2.07,0,3.36-.69,3.36-2.54,0-1.68-1.33-2.38-3.24-2.38h-2.68Z" transform="translate(-2.43 -2.37)"/><path class="cls-1" d="M3.08,38.09h2c1.09,0,1.58.62,1.58,1.37a1.19,1.19,0,0,1-.71,1.19A1.34,1.34,0,0,1,6.79,42,1.55,1.55,0,0,1,5.1,43.56h-2Zm1.85,2.25c.68,0,1-.3,1-.8A.77.77,0,0,0,5,38.75H3.81v1.59ZM3.81,42.91H5a.9.9,0,0,0,1-1c0-.57-.33-1-1.13-1H3.81Z" transform="translate(-2.43 -2.37)"/><path class="cls-1" d="M14.65,41.71c0,.75.35,1.31.95,1.31a.8.8,0,0,0,.84-.58h.71a1.54,1.54,0,0,1-1.57,1.22c-1.17,0-1.65-1-1.65-2.06,0-1.2.56-2.14,1.69-2.14s1.6,1,1.6,1.91a1.83,1.83,0,0,1,0,.34Zm1.85-.53c0-.62-.29-1.13-.89-1.13s-.88.47-.94,1.13Z" transform="translate(-2.43 -2.37)"/><path class="cls-1" d="M24.88,39.55c.55,1.82.88,2.92,1,3.32h0c.12-.45.37-1.36.94-3.32h.71l-1.3,4.19c-.37,1.17-.65,1.47-1.43,1.47l-.41,0v-.66l.29,0c.45,0,.63-.21.83-.84l-1.37-4.16Z" transform="translate(-2.43 -2.37)"/><path class="cls-1" d="M37.81,41.55c0,1.17-.62,2.11-1.75,2.11s-1.71-.89-1.71-2.09.63-2.11,1.75-2.11S37.81,40.29,37.81,41.55Zm-2.74,0c0,.86.39,1.46,1,1.46s1-.58,1-1.46-.36-1.47-1-1.47S35.07,40.65,35.07,41.56Z" transform="translate(-2.43 -2.37)"/><path class="cls-1" d="M45.11,40.56v-1h.68c0,.12,0,.51,0,.63A1.15,1.15,0,0,1,47,39.46c.7,0,1.23.47,1.23,1.53v2.57h-.71V41.08c0-.57-.2-1-.74-1s-.92.51-.92,1.3v2.14h-.71Z" transform="translate(-2.43 -2.37)"/><path class="cls-1" d="M58.85,37.78v4.66c0,.37,0,.74,0,1.12h-.68a4.27,4.27,0,0,1,0-.54,1.14,1.14,0,0,1-1.14.64c-.94,0-1.52-.83-1.52-2.06s.62-2.14,1.65-2.14a1,1,0,0,1,1,.48V37.78Zm-2.63,3.8c0,.93.4,1.43,1,1.43.83,0,1-.68,1-1.5s-.15-1.41-1-1.41C56.6,40.1,56.22,40.64,56.22,41.58Z" transform="translate(-2.43 -2.37)"/><path class="cls-1" d="M75.86,38.78h-1.6v-.69h3.95v.69H76.6v4.78h-.74Z" transform="translate(-2.43 -2.37)"/><path class="cls-1" d="M86,37.78v2.34a1.2,1.2,0,0,1,1.12-.66c.61,0,1.24.37,1.24,1.54v2.56h-.7V41.13c0-.65-.25-1-.76-1s-.9.47-.9,1.26v2.18h-.71V37.78Z" transform="translate(-2.43 -2.37)"/><path class="cls-1" d="M96.37,41.71c0,.75.36,1.31,1,1.31a.81.81,0,0,0,.84-.58h.71a1.54,1.54,0,0,1-1.57,1.22c-1.17,0-1.65-1-1.65-2.06,0-1.2.56-2.14,1.69-2.14s1.59,1,1.59,1.91c0,.13,0,.23,0,.34Zm1.86-.53c0-.62-.29-1.13-.89-1.13s-.88.47-.94,1.13Z" transform="translate(-2.43 -2.37)"/><path class="cls-1" d="M118.9,41.28c0-1,0-2,0-2.62h0c-.22.93-1,3.18-1.53,4.9h-.66c-.42-1.42-1.2-3.94-1.42-4.91h0c0,.64.06,1.83.06,2.77v2.14h-.69V38.09h1.11c.53,1.65,1.18,3.77,1.35,4.48h0c.12-.56.89-2.87,1.44-4.48h1.08v5.47h-.73Z" transform="translate(-2.43 -2.37)"/><path class="cls-1" d="M130,42.66a7.52,7.52,0,0,0,.05.9h-.67a1.75,1.75,0,0,1-.06-.5,1.13,1.13,0,0,1-1.12.6,1.16,1.16,0,0,1-1.24-1.23c0-.9.65-1.31,1.74-1.31h.61v-.33c0-.34-.1-.74-.75-.74a.64.64,0,0,0-.74.61h-.69a1.27,1.27,0,0,1,1.45-1.2c.92,0,1.42.4,1.42,1.32Zm-.69-1h-.56c-.71,0-1.07.22-1.07.75a.64.64,0,0,0,.68.69c.84,0,.95-.62.95-1.31Z" transform="translate(-2.43 -2.37)"/><path class="cls-1" d="M137.54,40.64V39.55h.69c0,.11,0,.44,0,.8a1.28,1.28,0,0,1,1.23-.89v.76c-.75,0-1.23.4-1.23,1.44v1.9h-.71Z" transform="translate(-2.43 -2.37)"/><path class="cls-1" d="M147.34,41.42c.3-.39,1-1.26,1.55-1.87h.84l-1.37,1.56,1.52,2.45h-.82l-1.18-2-.54.57v1.39h-.71V37.78h.71Z" transform="translate(-2.43 -2.37)"/><path class="cls-1" d="M157.24,41.71c0,.75.35,1.31.95,1.31a.8.8,0,0,0,.84-.58h.71a1.54,1.54,0,0,1-1.57,1.22c-1.17,0-1.65-1-1.65-2.06,0-1.2.56-2.14,1.69-2.14s1.6,1,1.6,1.91c0,.13,0,.23,0,.34Zm1.85-.53c0-.62-.28-1.13-.89-1.13s-.88.47-.94,1.13Z" transform="translate(-2.43 -2.37)"/><path class="cls-1" d="M166.68,39.55h.62V38.39H168v1.16h.79v.62H168v2.28c0,.37.09.56.41.56a1.71,1.71,0,0,0,.31,0v.57a1.88,1.88,0,0,1-.58.07c-.6,0-.85-.34-.85-1V40.17h-.62Z" transform="translate(-2.43 -2.37)"/><path class="cls-1" d="M176,37.78h.71v.89H176Zm0,1.77h.71v4H176Z" transform="translate(-2.43 -2.37)"/><path class="cls-1" d="M184.22,40.56v-1h.69c0,.12,0,.51,0,.63a1.16,1.16,0,0,1,1.14-.72c.7,0,1.23.47,1.23,1.53v2.57h-.71V41.08c0-.57-.2-1-.74-1s-.92.51-.92,1.3v2.14h-.71Z" transform="translate(-2.43 -2.37)"/><path class="cls-1" d="M197.94,43.18c0,1.28-.48,2-1.72,2A1.36,1.36,0,0,1,194.68,44h.72a.8.8,0,0,0,.86.63c.8,0,1-.55,1-1.45v-.3a1.11,1.11,0,0,1-1.13.68c-.92,0-1.52-.82-1.52-2s.7-2.11,1.59-2.11a1,1,0,0,1,1.06.6c0-.17,0-.43,0-.51H198c0,.26,0,.77,0,1.16Zm-2.61-1.65c0,.82.39,1.36,1,1.36.76,0,1-.56,1-1.41s-.2-1.38-1-1.38S195.33,40.68,195.33,41.53Z" transform="translate(-2.43 -2.37)"/></svg>