<svg id="Layer_1" data-name="Layer 1" xmlns="http://www.w3.org/2000/svg" viewBox="0 0 475.44 359.29"><defs><style>.cls-1{fill:#e1e1e1;}.cls-2{fill:#f5f5f5;}.cls-3{fill:#ececec;}.cls-4{fill:#171717;}.cls-5{fill:#fd5d11;}.cls-6{fill:#fff;}.cls-7{fill:#ffbf9d;}.cls-8{fill:#fafafa;}.cls-9{fill:#ff9a6c;}</style></defs><title>who-we-are</title><path class="cls-1" d="M149.83,45.87a7.67,7.67,0,0,0,4.56-7.07,7.18,7.18,0,1,0-14.33-.07,7.63,7.63,0,0,0,4.56,7.14c-11,1.66-10.53,13.64-10.53,13.64l26.08.12S160.76,47.52,149.83,45.87Z"/><polygon class="cls-2" points="121.83 213.4 109.73 200.39 113.65 196.74 122 205.73 139.55 188.47 143.3 192.28 121.83 213.4"/><path class="cls-3" d="M354.91,178.45c0-8.89-9.35-14.53-18.87-10.07a10.79,10.79,0,0,0-5,4.81c-2.4,4.64-1.34,9.94.84,14.35l7.41,18.79a3.2,3.2,0,0,0,6,0l7.27-18.9C355,181.66,354.91,178.45,354.91,178.45Zm-9,7.74c-6.41,3.73-12.9-3.16-9.39-9.95a5.38,5.38,0,0,1,2-2.16c6.4-3.72,12.9,3.16,9.38,10A5.26,5.26,0,0,1,346,186.19Z"/><path class="cls-3" d="M350.29,348.05c-20-18.23-21.11-47.14-16.77-72.39.73-4.22.87-8.75,3.42-12.18s7.65-5.32,11.25-3c3,1.92,3.87,5.77,5.24,9a25.2,25.2,0,0,0,8.77,10.87c2.54,1.77,5.8,3.09,8.7,2,4-1.51,5.1-6.5,5.65-10.71q1.53-11.79,3.07-23.57c.55-4.22,1.13-8.52,3-12.33s5.31-7.13,9.53-7.69,8.91,2.43,9.21,6.67c.12,1.77-.48,3.5-.6,5.26s.44,3.82,2.06,4.54,3.5-.24,4.95-1.29c5-3.65,8.72-8.72,12.26-13.78s7-10.27,11.64-14.36,10.66-7,16.82-6.51,12.16,5.12,12.89,11.25-3.59,11.69-8.07,16a95.82,95.82,0,0,1-22.38,15.93c-1.48.76-3.07,1.57-3.8,3.06-1.31,2.68,1,5.84,3.68,7.15,3,1.48,6.54,1.63,9.81,2.48s6.68,2.78,7.52,6.06c1.15,4.55-3.11,8.56-7.1,11A82.64,82.64,0,0,1,415,292c-3.3.7-6.74,1.24-9.57,3.07s-4.87,5.4-3.75,8.58,4.92,4.67,8.29,4.52,6.56-1.51,9.85-2.24c6.16-1.38,13.68.06,16.75,5.58,2,3.62,1.61,8.23-.17,12s-4.78,6.77-7.89,9.52c-10.89,9.59-24.12,16.7-38.36,19.49s-27,2.31-39.87-4.43"/><path class="cls-1" d="M351.88,358.33c2.31-9.92,1.72-13,7.28-25.24a379.24,379.24,0,0,1,20.74-38.54l6-9.82c2-3.22,3.91-6.41,6-9.42a191.56,191.56,0,0,1,13.07-16.59c4.42-5.07,8.8-9.73,12.92-14.06s8.07-8.28,11.82-11.73a152.38,152.38,0,0,1,18.86-15c2.36-1.59,4.23-2.77,5.5-3.55l1.46-.88a5.15,5.15,0,0,1,.51-.28s-.15.12-.47.34l-1.43.93c-1.25.82-3.1,2-5.43,3.65A157.51,157.51,0,0,0,430,233.26c-3.72,3.47-7.62,7.44-11.74,11.77s-8.47,9-12.86,14.08a190.19,190.19,0,0,0-13,16.56c-2.09,3-4,6.16-6,9.39l-6,9.82a384.84,384.84,0,0,0-20.75,38.45c-5.57,12.22-5,15.23-7.38,25.1"/><path class="cls-1" d="M392,275.27a11.15,11.15,0,0,1-.14-1.86c-.06-1.19-.09-2.92-.09-5.06,0-4.27.15-10.18.36-16.69s.27-12.41.16-16.67c-.05-2.14-.11-3.86-.17-5.05a9.47,9.47,0,0,1,0-1.86,11.2,11.2,0,0,1,.26,1.84c.14,1.19.27,2.91.37,5.05.23,4.27.23,10.19,0,16.71s-.41,12.29-.55,16.68c-.05,2-.08,3.74-.11,5.05A11,11,0,0,1,392,275.27Z"/><path class="cls-1" d="M448.28,272.69a2.28,2.28,0,0,1-.57,0l-1.65-.08c-1.42-.08-3.48-.2-6-.27-5.1-.16-12.15-.14-19.93.22s-14.8,1-19.86,1.66c-2.54.29-4.58.59-6,.79l-1.63.22a2.12,2.12,0,0,1-.58,0,2,2,0,0,1,.55-.16l1.62-.34c1.4-.27,3.44-.64,6-1,5.06-.74,12.09-1.46,19.89-1.85s14.87-.31,20,0c2.55.12,4.61.31,6,.47l1.64.2A2,2,0,0,1,448.28,272.69Z"/><path class="cls-1" d="M359.91,332.16a4,4,0,0,1-.27-.72l-.66-2.09c-.56-1.82-1.32-4.47-2.2-7.75-1.79-6.57-4-15.72-6.26-25.85s-4.4-19.28-6.07-25.87c-.84-3.24-1.52-5.88-2-7.8L341.9,260a3.47,3.47,0,0,1-.15-.76,4,4,0,0,1,.27.72l.66,2.09c.56,1.82,1.32,4.47,2.21,7.75,1.78,6.57,4,15.72,6.25,25.85s4.4,19.28,6.07,25.87c.84,3.23,1.52,5.88,2,7.8.23.87.4,1.57.54,2.12A3.47,3.47,0,0,1,359.91,332.16Z"/><path class="cls-1" d="M436,319a2.8,2.8,0,0,1-.76.19l-2.22.39-8.15,1.4c-6.88,1.19-16.37,3-26.84,4.93s-20,3.66-26.89,4.74c-3.45.54-6.25.95-8.19,1.2l-2.23.27a3.87,3.87,0,0,1-.79.06,2.79,2.79,0,0,1,.77-.18l2.21-.4,8.15-1.4c6.89-1.19,16.37-2.95,26.85-4.93s20-3.66,26.89-4.74c3.45-.54,6.25-.95,8.19-1.2l2.23-.27A3.81,3.81,0,0,1,436,319Z"/><path class="cls-3" d="M9,228s6.17-7,20.24,8.48,20.37,24.94,20.37,24.94,3.45,3.11,5.37-.06,3.57-11.13,8.32-11.06c4.92.06,7.81,4.75,9,12.47s4.35,24.57,4.64,26.09,1.71,3.42,3.37,1.47,9.81-18.17,17.27-13.84,7.18,26.4,7.19,28.81.72,3.25,1.94,3.52,3.45-5.45,5.95-10,6.21-9.32,10.31-6.46,9.26,17.95,1.43,46.87l-4.5,13.17-13.67,2.91c-29.63,4.46-44-2.41-46.39-6.8s2.82-7.53,7.59-9.5,10.7-3.53,10.58-4.77-.88-2-3.27-2.33-24.35-2.54-27.79-10.45S60.52,307.39,62.64,306s.38-3.06-1.07-3.52-17.84-5.55-25.38-7.6S24.32,289.4,24.83,284.5c.48-4.72,8.58-5.44,12-7s.67-5.33.67-5.33S28.8,264.84,15,249.08,9.13,227.9,9.13,227.9"/><path class="cls-1" d="M21.62,241.9l.27.27.76.83,2.88,3.21,10.53,11.84,34.88,39c13.66,15.18,26,29,34.78,39.06l10.4,12,2.8,3.28.72.86a1.62,1.62,0,0,1,.23.31l-.27-.27-.76-.83L116,348.17l-10.53-11.85c-8.89-10-21.23-23.76-34.89-38.95s-25.95-29-34.77-39.06c-4.38-5-7.92-9.12-10.4-12l-2.8-3.28-.72-.86A1.62,1.62,0,0,1,21.62,241.9Z"/><path class="cls-1" d="M61.44,261.56a29,29,0,0,1,.19,3.74c.07,2.45.17,5.57.28,9s.2,6.71.19,9c0,1.16,0,2.1-.07,2.74a4.7,4.7,0,0,1-.12,1,34.56,34.56,0,0,1-.19-3.74c-.1-2.45-.22-5.57-.35-9s-.16-6.72-.13-9c0-1.15,0-2.09.09-2.74A3.76,3.76,0,0,1,61.44,261.56Z"/><path class="cls-1" d="M60.74,287.66c0,.15-6.6.17-14.72.06s-14.72-.33-14.72-.48,6.59-.18,14.73-.06S60.74,287.51,60.74,287.66Z"/><path class="cls-1" d="M86.09,313.32a3.73,3.73,0,0,1-1,.4c-.62.23-1.52.54-2.65.89-2.25.71-5.39,1.62-8.9,2.43s-6.73,1.39-9.06,1.74c-1.17.18-2.12.3-2.78.37a3.45,3.45,0,0,1-1,.05,32.15,32.15,0,0,1,3.73-.79c2.32-.45,5.51-1.08,9-1.9s6.64-1.65,8.92-2.26A29.28,29.28,0,0,1,86.09,313.32Z"/><path class="cls-1" d="M91.92,289.85a22.45,22.45,0,0,1-.71,3.46c-.5,2.12-1.24,5-2.08,8.26s-1.64,6.12-2.24,8.22a24.15,24.15,0,0,1-1.07,3.36,21,21,0,0,1,.71-3.46c.5-2.12,1.23-5,2.08-8.26s1.63-6.12,2.23-8.21A23.11,23.11,0,0,1,91.92,289.85Z"/><path class="cls-1" d="M117.18,309.66a4.74,4.74,0,0,1-.22,1.2l-.78,3.22c-.69,2.7-1.67,6.43-2.79,10.55s-2.17,7.82-3,10.51c-.37,1.25-.69,2.31-1,3.16a5.3,5.3,0,0,1-.42,1.15,4.74,4.74,0,0,1,.22-1.2l.78-3.21c.69-2.71,1.68-6.44,2.8-10.56s2.16-7.82,2.94-10.51c.38-1.25.69-2.31,1-3.16A6.07,6.07,0,0,1,117.18,309.66Z"/><path class="cls-1" d="M109.06,338.68a5.32,5.32,0,0,1-1.23.43c-.8.25-2,.58-3.41,1-2.89.78-6.91,1.77-11.39,2.67s-8.56,1.58-11.53,2c-1.48.21-2.68.35-3.52.44a5.53,5.53,0,0,1-1.3.08A5.84,5.84,0,0,1,78,345l3.49-.61c3-.51,7-1.23,11.48-2.15s8.5-1.83,11.41-2.51l3.45-.8A5.93,5.93,0,0,1,109.06,338.68Z"/><path class="cls-4" d="M70.92,210.49a3,3,0,0,0,1.47-.51,2.79,2.79,0,0,0,1-1.53,5.07,5.07,0,0,0,.1-1.21v-1.4c0-4,.09-9.74.16-16.81,0-1.78,0-3.64.06-5.57,0-1,0-2,0-3a8,8,0,0,0,0-1.48,2.49,2.49,0,0,0-.65-1.24,2.41,2.41,0,0,0-1.25-.68,13.23,13.23,0,0,0-1.56,0H60.14l-30.53,0a2.47,2.47,0,0,0-2.41,2.27c0,1.33-.05,2.66-.07,4q-.06,3.94-.11,7.79c-.08,5.1-.16,10-.23,14.72l0,1.75a2.63,2.63,0,0,0,.37,1.52,2.41,2.41,0,0,0,1.17,1,4,4,0,0,0,1.57.16h6.47l11.61,0,16.81.08,4.57.05,1.19,0a3.15,3.15,0,0,1,.4,0l-.4,0-1.19,0-4.57,0L48,210.69l-11.61,0H29.87a4.6,4.6,0,0,1-1.74-.18,2.88,2.88,0,0,1-1.41-1.17,3.12,3.12,0,0,1-.45-1.78c0-.58,0-1.16,0-1.75.06-4.69.13-9.62.2-14.72,0-2.55.07-5.15.1-7.79,0-1.33.05-2.66.07-4a3,3,0,0,1,2.95-2.77l30.53,0H70.28a11.64,11.64,0,0,1,1.65.06,2.78,2.78,0,0,1,1.48.81,2.87,2.87,0,0,1,.76,1.46,8.42,8.42,0,0,1,0,1.57c0,1,0,2,0,3,0,1.94-.07,3.8-.1,5.57-.14,7.08-.25,12.81-.33,16.81q0,.75,0,1.41a4.54,4.54,0,0,1-.13,1.24,2.81,2.81,0,0,1-1.13,1.57,2.66,2.66,0,0,1-1.12.43A1.42,1.42,0,0,1,70.92,210.49Z"/><polygon class="cls-4" points="52.03 190.81 57.69 194.24 51.91 197.63 46.13 201.02 46.25 194.2 46.37 187.37 52.03 190.81"/><path class="cls-5" d="M227.43,20.17a10.48,10.48,0,0,0,6.23-9.67c0-5.77-4.35-10.47-9.77-10.5s-9.82,4.64-9.84,10.41a10.43,10.43,0,0,0,6.24,9.76c-15.08,2.28-14.4,18.67-14.4,18.67l35.68.17S242.38,22.43,227.43,20.17Z"/><rect class="cls-6" x="257.1" y="53.02" width="58.12" height="39.17" transform="translate(-5.58 27.35) rotate(-5.42)"/><path class="cls-4" d="M316.94,89.36s0-.25-.09-.72-.13-1.18-.22-2.07c-.19-1.83-.46-4.48-.8-7.86L313,50.38l.23.19-57.85,5.55.24-.29h0v.3l0,.33.07.65.12,1.3.24,2.58.49,5.11q.48,5.07.94,10c.61,6.53,1.2,12.8,1.76,18.74l-.27-.22,41.65-3.83,11.93-1.06,3.18-.28.83-.06a1.59,1.59,0,0,1,.29,0l-.26,0-.8.09-3.12.32L300.89,91l-41.78,4.08-.25,0,0-.25c-.57-5.94-1.17-12.22-1.8-18.74q-.46-4.91-1-10c-.16-1.69-.32-3.4-.48-5.11-.09-.86-.17-1.72-.25-2.58l-.12-1.3-.06-.65,0-.32,0-.17v-.14h0c-.22.26.29-.37.24-.3l57.86-5.43.22,0,0,.22c1.08,11.9,2,21.67,2.58,28.49.3,3.36.53,6,.69,7.81.07.88.13,1.56.17,2S316.94,89.36,316.94,89.36Z"/><path class="cls-4" d="M313.24,50.36a4.25,4.25,0,0,1-.45.58l-1.36,1.59-5.1,5.79L289.21,77.46l-.15.17-.19-.12-1.54-1L264.68,62l-6.83-4.46L256,56.31a5.61,5.61,0,0,1-.63-.46,3.38,3.38,0,0,1,.68.37l1.9,1.15,6.92,4.31,22.74,14.39,1.54,1-.35,0,17.24-19,5.23-5.68,1.43-1.52A4.45,4.45,0,0,1,313.24,50.36Z"/><path class="cls-4" d="M184.61,96.9a27.64,27.64,0,0,0-.59-3.75,14.85,14.85,0,0,0-1.72-4.06,15.3,15.3,0,0,0-3.91-4.32A15.25,15.25,0,0,0,164,82.62a15.39,15.39,0,0,0-7.05,5.3,15.13,15.13,0,0,0,0,18,15.08,15.08,0,0,0,7.05,5.3,15.32,15.32,0,0,0,8,.68,15.44,15.44,0,0,0,10.33-7.14,14.77,14.77,0,0,0,1.72-4.07,27.41,27.41,0,0,0,.59-3.74.93.93,0,0,1,0,.25c0,.2,0,.44,0,.74a6.88,6.88,0,0,1-.09,1.19,10.23,10.23,0,0,1-.29,1.61,14.59,14.59,0,0,1-1.67,4.17,15.57,15.57,0,0,1-18.74,6.78,15.74,15.74,0,0,1-7.31-5.46,15.62,15.62,0,0,1,0-18.57,15,15,0,0,1,3.33-3.33,14.71,14.71,0,0,1,4-2.12,15.66,15.66,0,0,1,8.24-.65,15.65,15.65,0,0,1,10.5,7.42,14.7,14.7,0,0,1,1.67,4.17,10.44,10.44,0,0,1,.29,1.61,7,7,0,0,1,.09,1.2c0,.3,0,.54,0,.74A1,1,0,0,1,184.61,96.9Z"/><path class="cls-4" d="M205.36,122.68c-.08.13-5.55-3.4-12.2-7.86s-12-8.2-11.91-8.32,5.55,3.4,12.21,7.87S205.45,122.56,205.36,122.68Z"/><polygon class="cls-5" points="316.77 148.53 304.67 135.51 308.59 131.87 316.94 140.85 334.49 123.59 338.24 127.41 316.77 148.53"/><path class="cls-5" d="M441.14,137.55h.49l.6,0c.24,0,.51.06.83.11a10.92,10.92,0,0,1,5.05,2.21,11.32,11.32,0,0,1,4.25,7.56c.08.87.08,1.77.08,2.69s0,1.87,0,2.85c0,2,0,4,0,6.23s0,4.48,0,6.87v3.67a12.86,12.86,0,0,1-.38,3.82,11.4,11.4,0,0,1-4.61,6.53,11.25,11.25,0,0,1-3.92,1.68,19.86,19.86,0,0,1-4.36.27l-38.57,0,.16-.07-8.7,8.71-.39.38v-9.25l.23.23a21.17,21.17,0,0,1-2.86-.11,11,11,0,0,1-2.78-.72,11.64,11.64,0,0,1-4.54-3.32,11.78,11.78,0,0,1-2.39-5,15,15,0,0,1-.22-2.74v-2.69c0-3.56,0-7.06,0-10.49V152a39.56,39.56,0,0,1,.16-5,11.23,11.23,0,0,1,5.19-7.85,11.11,11.11,0,0,1,4.32-1.6,33.36,33.36,0,0,1,4.44-.14l16.11,0,23.26.07,6.3,0,1.64,0,.56,0s-.19,0-.56,0l-1.64,0-6.3,0-23.26.07-16.11,0a32,32,0,0,0-4.38.14,11,11,0,0,0-4.18,1.56,10.84,10.84,0,0,0-5,7.59,39.86,39.86,0,0,0-.14,4.92V157c0,3.43,0,6.93,0,10.49a31.65,31.65,0,0,0,.22,5.34,10.94,10.94,0,0,0,6.66,8,11,11,0,0,0,2.67.69,21.58,21.58,0,0,0,2.8.1h.22v8.93l-.38-.16,8.71-8.7.06-.07h.09l38.57,0a19.48,19.48,0,0,0,4.28-.26,10.83,10.83,0,0,0,3.79-1.61,11.1,11.1,0,0,0,4.49-6.31,13.48,13.48,0,0,0,.38-3.73V166.1c0-2.39,0-4.69,0-6.87s0-4.26,0-6.23c0-1,0-1.93,0-2.85a25.56,25.56,0,0,0-.07-2.66A11.17,11.17,0,0,0,448,140a11,11,0,0,0-5-2.26l-.82-.13-.6,0Z"/><path class="cls-5" d="M406.87,161.2s-.05-.22-.16-.59a2.48,2.48,0,0,0-.92-1.26,2.33,2.33,0,0,0-2.18-.29,2.28,2.28,0,0,0,0,4.27,2.33,2.33,0,0,0,2.18-.29,2.48,2.48,0,0,0,.92-1.26c.11-.36.12-.58.16-.58a1,1,0,0,1,0,.62,2.48,2.48,0,0,1-.89,1.48,2.64,2.64,0,0,1-2.52.42,2.68,2.68,0,0,1,0-5.05,2.64,2.64,0,0,1,2.52.43,2.44,2.44,0,0,1,.89,1.47A1.09,1.09,0,0,1,406.87,161.2Z"/><path class="cls-5" d="M418.33,161.08s-.05-.22-.17-.58a2.45,2.45,0,0,0-.91-1.26,2.34,2.34,0,0,0-2.18-.29,2.28,2.28,0,0,0,0,4.27,2.34,2.34,0,0,0,2.18-.29,2.45,2.45,0,0,0,.91-1.26c.12-.37.13-.59.17-.59a1.16,1.16,0,0,1,0,.63,2.44,2.44,0,0,1-.89,1.47,2.63,2.63,0,0,1-2.51.43,2.68,2.68,0,0,1,0-5.05,2.65,2.65,0,0,1,2.51.42,2.48,2.48,0,0,1,.89,1.48A1.1,1.1,0,0,1,418.33,161.08Z"/><path class="cls-5" d="M429.78,161.08s0-.22-.16-.58a2.54,2.54,0,0,0-.92-1.26,2.33,2.33,0,0,0-2.18-.29,2.28,2.28,0,0,0,0,4.27,2.33,2.33,0,0,0,2.18-.29,2.48,2.48,0,0,0,.92-1.26c.11-.37.12-.59.16-.59a1.09,1.09,0,0,1,0,.63,2.44,2.44,0,0,1-.89,1.47,2.64,2.64,0,0,1-2.52.43,2.68,2.68,0,0,1,0-5.05,2.67,2.67,0,0,1,2.52.42,2.48,2.48,0,0,1,.89,1.48A1,1,0,0,1,429.78,161.08Z"/><path class="cls-5" d="M70.8,95.79c0-8.9-9.35-14.53-18.88-10.07a10.79,10.79,0,0,0-5,4.8c-2.4,4.65-1.34,10,.83,14.35l7.42,18.8a3.19,3.19,0,0,0,6,0l7.28-18.89C70.9,99,70.8,95.79,70.8,95.79Zm-9,7.74c-6.4,3.72-12.89-3.16-9.38-10a5.29,5.29,0,0,1,2-2.16c6.41-3.73,12.9,3.16,9.39,10A5.31,5.31,0,0,1,61.84,103.53Z"/><path class="cls-4" d="M103.73,126.5h0s.05.12.12.35.2.57.34,1l1.3,3.92c1.12,3.45,2.77,8.51,4.88,15l.07.2-.22,0-20.88-3.82-.14,0V143h0l.28.15a52,52,0,0,1-24.15,10,52.9,52.9,0,0,1-7.41.5,57.82,57.82,0,0,1-7.69-.65,53.73,53.73,0,0,1-7.81-1.75l-3.86-1.4a16.06,16.06,0,0,1-1.9-.83L34.78,148a53.83,53.83,0,0,1-14-10.11A51.43,51.43,0,0,1,10.59,123,52.27,52.27,0,0,1,29.06,57.73,52.2,52.2,0,0,1,110.24,97.9a49.52,49.52,0,0,1-1.42,15.94,50.11,50.11,0,0,1-3.44,9.53c-.5,1-.91,1.84-1.2,2.33l-.45.8.39-.79c.29-.55.68-1.33,1.17-2.38a52.85,52.85,0,0,0,3.33-9.54,49.71,49.71,0,0,0,1.32-15.87A51.92,51.92,0,0,0,29.36,58.17a51.75,51.75,0,0,0-18.29,64.6A51,51,0,0,0,21.2,137.55a53.22,53.22,0,0,0,13.8,10l1.87.91a14.86,14.86,0,0,0,1.88.82l3.82,1.4a54.13,54.13,0,0,0,7.74,1.74,56.83,56.83,0,0,0,7.62.66,53.61,53.61,0,0,0,7.35-.47,51.72,51.72,0,0,0,24-9.83l.28-.21v.35h0l-.14-.18,20.86,3.92-.14.17c-2.07-6.53-3.68-11.6-4.77-15.06l-1.23-3.94c-.13-.44-.24-.77-.31-1a2.9,2.9,0,0,1-.09-.36h0Z"/><path class="cls-4" d="M407.84,81.85a5.86,5.86,0,0,1-.15-1.32,10.72,10.72,0,0,0-.18-1.59,14.7,14.7,0,0,0-.41-2.14,20.21,20.21,0,0,0-2.22-5.5,20.7,20.7,0,0,0-5.11-5.88,20.35,20.35,0,0,0-19.2-3.3,18.88,18.88,0,0,0-5.19,2.65,21,21,0,0,0-2.35,1.9,23.59,23.59,0,0,0-2,2.3,20.22,20.22,0,0,0-.58,24,19.1,19.1,0,0,0,4.17,4.42,19.32,19.32,0,0,0,5.06,2.9,20.51,20.51,0,0,0,10.65,1.18A20.29,20.29,0,0,0,399,97.87a20.6,20.6,0,0,0,5.39-5.63,19.8,19.8,0,0,0,2.48-5.38,14.94,14.94,0,0,0,.52-2.11,10.91,10.91,0,0,0,.26-1.58,5.89,5.89,0,0,1,.21-1.32,5.49,5.49,0,0,1,0,1.34,10.56,10.56,0,0,1-.15,1.61,14.13,14.13,0,0,1-.43,2.18,19.47,19.47,0,0,1-2.37,5.6,20.63,20.63,0,0,1-5.46,6,20.9,20.9,0,0,1-9,3.83,21.35,21.35,0,0,1-11.18-1.14,20.06,20.06,0,0,1-5.35-3,23.49,23.49,0,0,1-2.38-2.11,24,24,0,0,1-2-2.53,21.23,21.23,0,0,1,.62-25.27,22.73,22.73,0,0,1,2.16-2.42,22.37,22.37,0,0,1,2.48-2,19.85,19.85,0,0,1,5.48-2.75,21.34,21.34,0,0,1,11.23-.6,21.13,21.13,0,0,1,14,10.47,19.69,19.69,0,0,1,2.09,5.71,14.41,14.41,0,0,1,.32,2.2,8.57,8.57,0,0,1,.07,1.62A5.51,5.51,0,0,1,407.84,81.85Z"/><path class="cls-4" d="M403.68,68.84c0,.06-.33.39-1.06.93l-1.34,1c-.27.18-.54.39-.85.58l-1,.54a23.5,23.5,0,0,1-12.24,3.08l-1.86-.08-1.77-.28-.87-.14-.83-.23c-.55-.15-1.09-.28-1.6-.44a27.33,27.33,0,0,1-5.2-2.39c-2.79-1.69-4.15-3.23-4-3.33s1.63,1.16,4.44,2.62a31.67,31.67,0,0,0,5.12,2.09c.49.15,1,.26,1.54.39l.8.2.83.13,1.7.25,1.76.07A25.31,25.31,0,0,0,399,71.12l1-.45c.31-.16.6-.34.88-.49l1.42-.78C403.17,69,403.63,68.77,403.68,68.84Z"/><path class="cls-4" d="M370.36,94.16c-.05-.06.33-.39,1.05-.93l1.34-1c.27-.18.54-.39.85-.58l1-.54a23.52,23.52,0,0,1,12.24-3.08l1.86.08,1.78.28.86.14.83.22c.55.16,1.09.28,1.6.45a27,27,0,0,1,5.2,2.39c2.79,1.69,4.15,3.23,4,3.32s-1.63-1.15-4.44-2.61a31.53,31.53,0,0,0-5.11-2.09c-.5-.15-1-.26-1.55-.39l-.8-.2-.82-.13-1.7-.25-1.77-.07A25.34,25.34,0,0,0,375,91.88l-1,.45c-.32.16-.61.34-.88.49l-1.43.78C370.86,94,370.4,94.23,370.36,94.16Z"/><path class="cls-4" d="M407.83,82.33c0,.32-9.34.35-20.84.07s-20.81-.76-20.8-1.08,9.33-.34,20.83-.06S407.84,82,407.83,82.33Z"/><path class="cls-4" d="M386.05,102.15c-.32,0-.35-9.34-.07-20.83s.76-20.81,1.08-20.8.34,9.33.07,20.83S386.36,102.16,386.05,102.15Z"/><path class="cls-4" d="M386.05,102.12c-.08.12-2.37-1.44-5-5a27.65,27.65,0,0,1-3.72-6.76,25,25,0,0,1-1.62-9.33,23.85,23.85,0,0,1,2.11-9.24,29.05,29.05,0,0,1,4.06-6.55c2.81-3.39,5.12-4.89,5.2-4.77s-2,1.84-4.56,5.27a31.46,31.46,0,0,0-3.74,6.47,24,24,0,0,0-1.92,8.84,25.28,25.28,0,0,0,1.46,9,29.82,29.82,0,0,0,3.39,6.65C384.1,100.24,386.16,102,386.05,102.12Z"/><path class="cls-4" d="M387.53,60.52c.07-.12,2.37,1.44,5,5a28,28,0,0,1,3.72,6.76,25.17,25.17,0,0,1,1.61,9.33,23.89,23.89,0,0,1-2.1,9.24,29.06,29.06,0,0,1-4.07,6.55c-2.8,3.39-5.12,4.89-5.2,4.77s2-1.84,4.56-5.27a31,31,0,0,0,3.74-6.47,24,24,0,0,0,1.93-8.84,25.51,25.51,0,0,0-1.46-9A30.25,30.25,0,0,0,391.89,66C389.48,62.4,387.41,60.65,387.53,60.52Z"/><path class="cls-4" d="M366.2,112.36h0l-.25.07-.74.18-2.89.67-11.07,2.54-.15,0,0-.15c1.12-4.07,2.5-9,4.07-14.72l0-.1h.11l-.12.19a37.39,37.39,0,0,1-5.6-17.94,38.19,38.19,0,0,1,.12-5.33,40.74,40.74,0,0,1,1-5.47,38.7,38.7,0,0,1,1.75-5.48c.41-.89.83-1.78,1.25-2.68a11.12,11.12,0,0,1,.72-1.31l.77-1.3a38.54,38.54,0,0,1,8.13-9.34,37,37,0,0,1,11.34-6.39A37.55,37.55,0,0,1,424.5,86.08a37.48,37.48,0,0,1-38.23,32.78,35.72,35.72,0,0,1-11.33-2,37.12,37.12,0,0,1-6.61-3.07c-.71-.43-1.25-.77-1.59-1l-.54-.38.54.34c.37.23.91.56,1.63,1a38,38,0,0,0,6.62,3,35.66,35.66,0,0,0,11.28,2A37.33,37.33,0,0,0,419.9,63.46a37.21,37.21,0,0,0-45.1-17.24,36.47,36.47,0,0,0-11.24,6.32,38,38,0,0,0-8.06,9.24l-.77,1.28a9.66,9.66,0,0,0-.71,1.3c-.42.89-.83,1.77-1.25,2.65A39.78,39.78,0,0,0,351,72.44a41.66,41.66,0,0,0-1,5.42,39.18,39.18,0,0,0-.13,5.29,37.26,37.26,0,0,0,5.5,17.82l.14.22-.26,0h0l.14-.09c-1.6,5.67-3,10.64-4.14,14.7l-.11-.12,11.09-2.45,2.9-.63.74-.16.26,0h0Z"/><path class="cls-4" d="M229.5,118.82c-6.63,4.07-11.24,10.88-14,18.17s-3.77,15.09-4.58,22.83a444.32,444.32,0,0,0-2.15,61.58c25.11,3.18,50.41,6.36,75.67,4.64-4.38-28.84-7.15-57.64-3.65-86.59"/><path class="cls-5" d="M285.9,358.48l-18.28-37,7-27c.82,5.73,1.55,10.7,1.55,10.7l39.22-2.07a2.49,2.49,0,0,0,2.33-2.84L310,246.17s-2.45-25.09-26.21-34.42h0l-.1,0c-1-.38-2-.72-3-1-32-11.1-62-11-95.4.36,0,0-14.83,4-22,23.33s-14.53,47.78-14.53,47.78l33.3,11.76.22-5.62,7.36,28.14-16.14,41,56.31,1.4Z"/><path class="cls-5" d="M148.88,281.81l-3.73,17.66c-3.21,15.19,8,30.77,23.44,32.51l82,8.42a32.56,32.56,0,0,0,36.1-29.52h0L183.32,301l.65-9.91Z"/><path class="cls-7" d="M251.38,299.84l6.37-1.18s15.09-16.51,17.92-16.74c2.33-.2,15.16-.07,19.63,0a1.55,1.55,0,0,1,1.54,1.55h0a1.56,1.56,0,0,1-1.5,1.56l-15.16.59-.07,1.22,15.18.2c1.55.12,2.54,2.57-2.41,3l-12.7.45v.79l12.88,1.8c.65.09,2.36.43,2.38,1.08,0,0,.78,1.62-2.89,2.08-1.26.15-12.44-.22-12.44-.22l.43,1,11.57,2.49a1.65,1.65,0,0,1,1.29,1.84h0a1.66,1.66,0,0,1-1.79,1.41l-12.37-1.15-12.13,9.7H250.88Z"/><path class="cls-8" d="M211.1,203.1s16,81.64,21.6,81,32-78.23,32-78.23S231,195.62,211.1,203.1Z"/><path class="cls-5" d="M275.75,300l-68.65-2.22.1,22.78,45.46,10,32,5.11c19.88,0,35.78-18.25,32.71-37.89l-.09,0Z"/><path class="cls-7" d="M206.51,299.84l-6.36-1.18s-15.09-16.51-17.92-16.74c-2.33-.2-15.17-.07-19.64,0a1.55,1.55,0,0,0-1.53,1.55h0a1.56,1.56,0,0,0,1.49,1.56l15.17.59.07,1.22-15.19.2c-1.54.12-2.53,2.57,2.42,3l12.7.45v.79l-12.88,1.8c-.65.09-2.36.43-2.38,1.08,0,0-.78,1.62,2.89,2.08,1.26.15,12.44-.22,12.44-.22l-.43,1-11.58,2.49a1.66,1.66,0,0,0-1.28,1.84h0a1.65,1.65,0,0,0,1.78,1.41l12.37-1.15,12.14,9.7H207Z"/><path class="cls-4" d="M281.76,282.13c-.15,0-.27-5.63-.27-12.58s.12-12.57.27-12.57.27,5.63.27,12.57S281.91,282.13,281.76,282.13Z"/><path class="cls-4" d="M183.74,282.65a23.68,23.68,0,0,1,.33-3.62c.28-2.22.69-5.3,1.19-8.69s1-6.45,1.34-8.67a25.11,25.11,0,0,1,.71-3.57,23.66,23.66,0,0,1-.33,3.63c-.28,2.22-.69,5.3-1.19,8.69s-1,6.45-1.34,8.66A24.7,24.7,0,0,1,183.74,282.65Z"/><path class="cls-4" d="M229.86,358.81a4.48,4.48,0,0,1-.05-.76c0-.55,0-1.27,0-2.17,0-1.88,0-4.61.07-8,.12-6.74.48-16,1-26.3s.88-19.55,1.11-26.28c.1-3.32.18-6,.24-8q0-1.33.06-2.16a3.75,3.75,0,0,1,.06-.76,3.44,3.44,0,0,1,0,.76c0,.55,0,1.27,0,2.17,0,1.88,0,4.61-.07,8-.13,6.74-.49,16-.95,26.3s-.89,19.55-1.11,26.28c-.1,3.31-.18,6-.24,8,0,.9-.05,1.62-.07,2.17A3.75,3.75,0,0,1,229.86,358.81Z"/><path class="cls-4" d="M264.58,205.75s.05.35.18,1a13.83,13.83,0,0,0,.81,2.81,31.89,31.89,0,0,0,2.07,4.17,58.42,58.42,0,0,1,2.94,5.48,13.22,13.22,0,0,1,1.24,7.41,9.56,9.56,0,0,1-1.66,3.91,28,28,0,0,1-2.93,3.38,51.48,51.48,0,0,0-6.21,7.13,16.91,16.91,0,0,0-3.21,9.38,11.48,11.48,0,0,0,1.1,4.91,46.57,46.57,0,0,1,2,4.65,6.94,6.94,0,0,1,.32,2.52,5.2,5.2,0,0,1-.78,2.38,12.85,12.85,0,0,1-3.45,3.23l-13,9.57-8.78,6.41-2.4,1.72-.63.44c-.15.09-.22.14-.23.13l.19-.18.6-.48,2.35-1.8,8.68-6.55,12.91-9.65a12.7,12.7,0,0,0,3.3-3.11,4.64,4.64,0,0,0,.7-2.15,6.17,6.17,0,0,0-.31-2.32,44,44,0,0,0-2-4.59,12.11,12.11,0,0,1-1.15-5.13,17.39,17.39,0,0,1,3.31-9.68,51.61,51.61,0,0,1,6.3-7.18c2.12-2.11,4.08-4.37,4.5-7a12.85,12.85,0,0,0-1.15-7.18c-.89-2.1-2-3.87-2.85-5.48a29.74,29.74,0,0,1-2-4.24,12.75,12.75,0,0,1-.73-2.88,5.39,5.39,0,0,1-.07-.77A.86.86,0,0,1,264.58,205.75Z"/><path class="cls-4" d="M232.63,283.31l-.25,0-.73-.13a24.87,24.87,0,0,1-2.76-.76,27.79,27.79,0,0,1-9.12-5.23,26.77,26.77,0,0,1-8.35-13.05,27.86,27.86,0,0,1-1.09-9.18,30.89,30.89,0,0,1,.66-4.85,11.2,11.2,0,0,0,.13-4.85,4,4,0,0,0-1.25-2,6.65,6.65,0,0,0-2.13-1.06c-.77-.26-1.57-.47-2.34-.8a6.49,6.49,0,0,1-2.1-1.36,8.17,8.17,0,0,1-2.13-4.28,17.56,17.56,0,0,1-.26-4.55,63.05,63.05,0,0,1,3.4-15.24,64.48,64.48,0,0,1,4.35-9.58c.62-1.08,1.12-1.91,1.48-2.45l.4-.63a1.58,1.58,0,0,1,.16-.2s0,.09-.11.23l-.36.65c-.33.57-.8,1.41-1.38,2.5a68.78,68.78,0,0,0-4.18,9.61,63.68,63.68,0,0,0-3.26,15.14,16.93,16.93,0,0,0,.26,4.42,7.72,7.72,0,0,0,2,4,6.09,6.09,0,0,0,1.93,1.24c.73.3,1.52.51,2.31.78a7,7,0,0,1,2.3,1.16,4.44,4.44,0,0,1,1.43,2.22,11.46,11.46,0,0,1-.13,5.09,30.92,30.92,0,0,0-.65,4.79,27.53,27.53,0,0,0,1,9A26.86,26.86,0,0,0,220,276.87a28.44,28.44,0,0,0,8.93,5.32c1.16.42,2.08.69,2.71.85l.72.19C232.55,283.27,232.64,283.3,232.63,283.31Z"/><path class="cls-4" d="M294.66,299.51a5.72,5.72,0,0,1-.89.07l-2.56.07-9.38.17c-7.93.11-18.88.25-31,.13s-23.06-.55-31-1.09c-4-.26-7.15-.52-9.36-.74l-2.54-.26a5.69,5.69,0,0,1-.88-.13,5.45,5.45,0,0,1,.89,0l2.55.16c2.21.16,5.41.35,9.36.57,7.92.44,18.86.81,30.95.93s23,0,31,0h9.39l2.56,0A7.75,7.75,0,0,1,294.66,299.51Z"/><path class="cls-4" d="M283.43,335.25a3.53,3.53,0,0,1-.78,0l-2.22-.24c-1.93-.21-4.72-.57-8.16-1-6.87-.95-16.34-2.46-26.74-4.5s-19.73-4.22-26.46-5.94c-3.36-.85-6.07-1.58-7.94-2.11l-2.15-.62a3.63,3.63,0,0,1-.74-.25,6.55,6.55,0,0,1,.77.15l2.17.52,8,1.94c6.75,1.62,16.09,3.75,26.48,5.79s19.83,3.59,26.69,4.64l8.12,1.21,2.21.34A5.41,5.41,0,0,1,283.43,335.25Z"/><path class="cls-4" d="M207.82,320.62a17.73,17.73,0,0,1-.6-3.25c-.28-2-.57-4.82-.73-7.92s-.16-5.93-.09-8a17.68,17.68,0,0,1,.26-3.29,23,23,0,0,1,.12,3.29c0,2,.09,4.83.25,7.93s.39,5.89.57,7.91A24.81,24.81,0,0,1,207.82,320.62Z"/><path class="cls-4" d="M215.32,321.51a3.3,3.3,0,0,1-.3-.87c-.16-.56-.36-1.39-.57-2.42a58.7,58.7,0,0,1-1.07-8.14,60.29,60.29,0,0,1,.07-8.21c.09-1,.19-1.89.28-2.47a3.29,3.29,0,0,1,.19-.89,26.35,26.35,0,0,1-.09,3.39c-.08,2.08-.1,5,.09,8.15s.57,6,.9,8.1A29.21,29.21,0,0,1,215.32,321.51Z"/><path class="cls-4" d="M209,301.84c.06.07-.34.35-.32,1a1.22,1.22,0,0,0,.42.93,1,1,0,0,0,1.14,0,1,1,0,0,0,.56-1,1.29,1.29,0,0,0-.59-.83c-.56-.34-1-.14-1-.22s.42-.44,1.2-.12a1.55,1.55,0,0,1,.9,1.08,1.5,1.5,0,0,1-.77,1.56,1.52,1.52,0,0,1-1.74-.11,1.58,1.58,0,0,1-.47-1.33C208.39,302,209,301.77,209,301.84Z"/><path class="cls-4" d="M221.46,324.88a2.89,2.89,0,0,1-.7,0c-.46,0-1.14,0-2,0a55.49,55.49,0,0,0-7.37.69c-3.09.49-6.72,1.32-10.72,2.38s-8.39,2.34-13.08,3.36a55.62,55.62,0,0,1-13.44,1.46,33.54,33.54,0,0,1-10.84-2.07,24.36,24.36,0,0,1-6.49-3.65,17.06,17.06,0,0,1-1.5-1.36,3.13,3.13,0,0,1-.48-.52c0-.05.71.66,2.11,1.71a25.64,25.64,0,0,0,6.49,3.46,34,34,0,0,0,10.72,1.93,56.89,56.89,0,0,0,13.32-1.48c4.66-1,9-2.29,13.06-3.32a103.36,103.36,0,0,1,10.8-2.28,48.37,48.37,0,0,1,7.42-.52c.88,0,1.56.05,2,.09A3.13,3.13,0,0,1,221.46,324.88Z"/><path class="cls-7" d="M251.67,212.71c1.63-9.1,3.51-18.66,3.51-18.66s12.08.12,17.21-14.76c4.89-14.2,8.42-48.34,8.42-48.34h0a44.7,44.7,0,0,0-50.92,2.59h0l-12,74.17c-1.39,8.61,4.9,16.67,14.13,18.1h0C241.3,227.25,250.11,221.39,251.67,212.71Z"/><path class="cls-9" d="M255.18,194.05A39.57,39.57,0,0,1,235.64,185s3.12,11.39,18.7,12.66Z"/><path class="cls-9" d="M256.34,173.72a3.89,3.89,0,0,0-3.17-2,3.55,3.55,0,0,0-2.62.86,2.24,2.24,0,0,0-.62,2.49,2.59,2.59,0,0,0,2.65,1.19,8.25,8.25,0,0,0,3-1.13,2.66,2.66,0,0,0,.71-.52.71.71,0,0,0,.13-.79"/><path class="cls-4" d="M271.83,156.52a2,2,0,0,1-2.24,1.65,1.9,1.9,0,0,1-1.71-2.13,2,2,0,0,1,2.24-1.65A1.91,1.91,0,0,1,271.83,156.52Z"/><path class="cls-4" d="M275.4,154.88c-.29.22-1.58-1.15-3.69-1.51s-3.85.42-4,.12c-.09-.14.24-.56,1-.93a5.48,5.48,0,0,1,3.29-.41,5.25,5.25,0,0,1,2.88,1.53C275.4,154.29,275.54,154.79,275.4,154.88Z"/><path class="cls-4" d="M250.13,153.09a2,2,0,0,1-2.24,1.64,1.9,1.9,0,0,1-1.71-2.12,2,2,0,0,1,2.24-1.65A1.9,1.9,0,0,1,250.13,153.09Z"/><path class="cls-4" d="M253.22,151.77c-.29.21-1.59-1.15-3.7-1.52s-3.85.42-4,.12c-.09-.13.23-.55,1-.93a5.54,5.54,0,0,1,3.28-.41,5.25,5.25,0,0,1,2.89,1.53C253.22,151.17,253.36,151.67,253.22,151.77Z"/><path class="cls-4" d="M258.13,168.79a14.26,14.26,0,0,1,3.54,0c.55,0,1.08,0,1.23-.33a2.68,2.68,0,0,0-.08-1.66c-.27-1.39-.56-2.86-.87-4.39-1.18-6.24-1.94-11.33-1.69-11.38s1.42,5,2.6,11.22c.28,1.54.55,3,.81,4.4a3.21,3.21,0,0,1-.1,2.17,1.34,1.34,0,0,1-1,.63,3.54,3.54,0,0,1-.94,0A13.68,13.68,0,0,1,258.13,168.79Z"/><path class="cls-4" d="M251.65,169.16c.35,0-.05,2.33,1.63,4.3s4.16,2.16,4.12,2.48c0,.15-.62.35-1.66.2a5.84,5.84,0,0,1-3.47-1.94,5,5,0,0,1-1.21-3.59C251.14,169.64,251.5,169.11,251.65,169.16Z"/><path class="cls-4" d="M240.25,122.6c4.09,9,17.35,20,27.59,23.9-.93-1.86-6.69-7.1-7.62-9,4.13,4.49,10.1,10.59,16.42,12.11a3.93,3.93,0,0,0,2.25.07,3,3,0,0,0,1.57-2.19,65,65,0,0,0,2.16-13.93A15.61,15.61,0,0,0,279,122.69c-3.49-3.93-9.19-5.8-14.67-7-4.6-1-9.41-1.6-14-.73s-8.76,3.48-10.12,7.33"/><path class="cls-4" d="M215.84,156.59a87,87,0,0,1,.39-10.5c1-8,3.52-36.94,30.26-29.49L243.64,124s2.06,18.65-11.67,28.67c0,0,.06,18.61-9.45,25.32,0,0-6.63-12.62-6.68-21.42"/><path class="cls-7" d="M232.54,151.42a9.33,9.33,0,0,0-5-.55,6.49,6.49,0,0,0-4.19,2.64,6.78,6.78,0,0,0-.9,4.89,11.46,11.46,0,0,0,2.06,4.6,7.76,7.76,0,0,0,2.63,2.5,3.68,3.68,0,0,0,3.5.07"/><path class="cls-9" d="M229.89,161.19c.18.09-.71,1-2.14.29a3.3,3.3,0,0,1-1.56-1.94,7.39,7.39,0,0,1-.34-2.86,4.35,4.35,0,0,1,1.2-2.76,2.9,2.9,0,0,1,2.38-.89c1.54.23,1.83,1.39,1.65,1.39s-.64-.56-1.69-.49-2.18,1.17-2.27,2.86.26,3.37,1.09,3.92S229.81,161,229.89,161.19Z"/><path class="cls-4" d="M229.86,165.54c-4.15,24.77-.77,50.1,0,75.21.08,2.41.1,4.93-1,7.07-1.65,3.25-5.5,4.82-9.13,5.05s-7.25-.63-10.88-.92l-1.17-7.23L204,253.05q2.4-26.45,5.25-52.82"/><path class="cls-4" d="M475.44,359c0,.15-106.44.27-237.71.27S0,359.17,0,359s106.42-.27,237.73-.27S475.44,358.87,475.44,359Z"/></svg>