<?xml version="1.0" encoding="utf-8"?>
<!-- Generator: Adobe Illustrator 23.0.5, SVG Export Plug-In . SVG Version: 6.00 Build 0)  -->
<svg version="1.1" id="Layer_1" xmlns="http://www.w3.org/2000/svg" xmlns:xlink="http://www.w3.org/1999/xlink" x="0px" y="0px"
	 viewBox="0 0 500 500" style="enable-background:new 0 0 500 500;" xml:space="preserve">
<style type="text/css">
	.st0{fill:#FD5D11;}
	.st1{fill:#E7E7E7;}
	.st2{fill:#E1E1E1;}
	.st3{fill:#F0F0F0;}
	.st4{fill:#F5F5F5;}
	.st5{fill:#ECECEC;}
	.st6{fill:#FAFAFA;}
	.st7{fill:#171717;}
	.st8{fill:#FFFFFF;}
	.st9{fill:#D33C00;}
	.st10{opacity:0.3;fill:#D33C00;}
	.st11{fill:#E3E5F3;}
	.st12{fill:#FF4F5B;}
	.st13{fill:#EC4905;}
	.st14{opacity:0.1;fill:#EC4905;}
	.st15{fill:#1A2E35;}
	.st16{fill:#375A64;}
	.st17{opacity:0.28;}
	.st18{fill:#FFBF9D;}
	.st19{fill:#FF9A6C;}
</style>
<g>
	<g>
		<path class="st0" d="M292.5,284c0,0,0.1,0.1,0.2,0.2c0.2,0.2,0.4,0.4,0.7,0.7c0.6,0.6,1.5,1.5,2.6,2.7c2.3,2.4,5.5,5.9,9.7,10.4
			c8.3,9,20.2,21.7,34.3,37l-0.4,0c11.5-13.2,24.8-28.4,38.9-44.7l0.3-0.3l0.2,0.3c0.9,1.4,1.9,2.8,2.8,4.3
			c10.5,15.8,20.5,30.8,29.5,44.3l-0.4-0.1c10.5-8.4,20.1-16,28.3-22.6l0.2-0.1l0.1,0.2c9.1,10.3,16.5,18.7,21.6,24.5
			c2.5,2.9,4.5,5.1,5.9,6.7c0.7,0.8,1.2,1.3,1.5,1.8c0.3,0.4,0.5,0.6,0.5,0.6s-0.2-0.2-0.5-0.6c-0.4-0.4-0.9-1-1.6-1.7
			c-1.4-1.5-3.4-3.8-6-6.6c-5.2-5.8-12.6-14.1-21.8-24.3l0.3,0c-8.2,6.6-17.8,14.3-28.3,22.7l-0.2,0.2l-0.2-0.3
			c-9-13.5-19-28.5-29.5-44.3c-1-1.5-1.9-2.9-2.8-4.3l0.5,0c-14.2,16.2-27.5,31.5-39,44.6l-0.2,0.2l-0.2-0.2
			c-14.1-15.3-25.9-28.2-34.2-37.2c-4.1-4.5-7.3-8-9.6-10.5c-1.1-1.2-1.9-2.1-2.5-2.8c-0.3-0.3-0.5-0.5-0.6-0.7
			C292.5,284.1,292.5,284,292.5,284z"/>
	</g>
	<path class="st0" d="M335.9,335.3c0,2.3,1.9,4.1,4.1,4c2.3,0,4.1-1.9,4-4.1c0-2.3-1.9-4.1-4.1-4
		C337.7,331.2,335.9,333.1,335.9,335.3z"/>
	<path class="st0" d="M407.4,340.2c0,2.3,1.9,4.1,4.1,4c2.3,0,4.1-1.9,4-4.1c0-2.3-1.9-4.1-4.1-4
		C409.2,336.1,407.4,337.9,407.4,340.2z"/>
	<path class="st0" d="M435.3,317.7c0,2.3,1.9,4.1,4.1,4c2.3,0,4.1-1.9,4-4.1c0-2.3-1.9-4.1-4.1-4
		C437.1,313.6,435.3,315.4,435.3,317.7z"/>
	<path class="st0" d="M374.7,290.9c0,2.3,1.9,4.1,4.1,4c2.3,0,4.1-1.9,4-4.1c0-2.3-1.9-4.1-4.1-4
		C376.4,286.9,374.6,288.7,374.7,290.9z"/>
	<path class="st0" d="M465.8,350.1c0,2.3,1.9,4.1,4.1,4c2.3,0,4.1-1.9,4-4.1c0-2.3-1.9-4.1-4.1-4C467.6,346,465.8,347.8,465.8,350.1
		z"/>
</g>
<g>
	<rect x="81.7" y="40.9" class="st1" width="26.2" height="104.3"/>
	<rect x="120.3" y="63.7" class="st1" width="26.2" height="81.6"/>
	<rect x="159.4" y="82.3" class="st1" width="26.2" height="62.9"/>
	<rect x="195.7" y="107.9" class="st1" width="26.2" height="37.4"/>
</g>
<g>
	<g>
		<path class="st0" d="M200.9,14.8c0,0-0.2,0.3-0.7,0.9c-0.5,0.6-1.2,1.4-2.2,2.5c-1.9,2.2-4.7,5.4-8.3,9.5
			c-7.2,8.2-17.5,19.8-29.9,33.8l-0.2,0.2l-0.2-0.1c-6-4.6-12.6-9.6-19.5-14.9l0.4,0C131.9,57.3,122.6,69,113,81.2l-0.3,0.4
			l-0.2,0.3l-0.2-0.2c-13-11.5-25.5-22.5-36.8-32.4l0.4,0c-14.4,19-26.7,35.2-35.4,46.6c-4.4,5.7-7.8,10.2-10.2,13.3
			c-1.2,1.5-2.1,2.7-2.7,3.5c-0.3,0.4-0.5,0.7-0.7,0.9c-0.2,0.2-0.2,0.3-0.3,0.3c0,0,0.1-0.1,0.2-0.3c0.2-0.2,0.4-0.5,0.7-0.9
			c0.6-0.8,1.5-2,2.7-3.6c2.3-3.1,5.8-7.7,10.1-13.4C48.8,84.1,61,67.9,75.4,48.9l0.2-0.2l0.2,0.2c11.3,10,23.8,20.9,36.8,32.4
			l-0.4,0l0.3-0.4c9.6-12.2,18.9-23.9,27.4-34.6L140,46l0.2,0.2c6.9,5.3,13.5,10.4,19.5,15l-0.4,0c12.5-14,22.8-25.6,30.1-33.7
			c3.6-4,6.5-7.2,8.4-9.4c1-1.1,1.7-1.9,2.2-2.5C200.7,15.1,200.9,14.8,200.9,14.8z"/>
	</g>
	<g>
		<path class="st0" d="M196.6,39.1c0,0,0-0.2,0.1-0.5c0.1-0.4,0.2-0.9,0.3-1.5c0.3-1.4,0.7-3.2,1.2-5.5c1-4.6,2.5-11.1,4.2-18.2
			l0.4,0.4c-0.4,0.1-0.9,0.3-1.3,0.4c-7.3,2.2-14,4.2-18.8,5.7c-2.3,0.7-4.3,1.2-5.7,1.7c-0.6,0.2-1.1,0.3-1.6,0.4
			c-0.4,0.1-0.6,0.1-0.6,0.1c0,0,0.2-0.1,0.5-0.2c0.4-0.1,0.9-0.3,1.5-0.5c1.4-0.5,3.3-1.1,5.7-1.8c4.8-1.5,11.4-3.6,18.7-5.8
			c0.5-0.1,0.9-0.3,1.3-0.4l0.5-0.2l-0.1,0.5c-1.7,7.1-3.2,13.5-4.4,18.2c-0.6,2.2-1,4.1-1.4,5.4c-0.2,0.6-0.3,1.1-0.4,1.5
			C196.7,38.9,196.6,39.1,196.6,39.1z"/>
	</g>
</g>
<g>
	<g>
		<path class="st2" d="M403.5,191.3c14.5-0.2,26.6,11.4,26.8,25.9c0.2,14.5-11.4,26.6-25.9,26.8c-14.5,0.2-26.6-11.4-26.8-25.9
			C377.4,203.5,389,191.5,403.5,191.3z M404.2,230.3c7-0.1,12.5-5.9,12.4-12.8c-0.1-7-5.9-12.5-12.8-12.4c-7,0.1-12.5,5.9-12.4,12.8
			C391.5,224.8,397.2,230.4,404.2,230.3z"/>
	</g>
	<g>
		<path class="st3" d="M403.5,188c16.3-0.3,29.9,12.8,30.1,29.2l-18,0.5c-0.1-7.8-5.4-11-11.7-11.4c-5.1-0.3-12,3.6-11.8,11.4
			l-17.8,0.5C374.1,201.8,387.2,188.3,403.5,188z"/>
	</g>
</g>
<g>
	<g>
		<path class="st4" d="M190.1,307.5c18.7-19.8,50.3-20.9,70.3-2.4c20,18.5,21.1,49.7,2.4,69.6c-18.7,19.8-50.3,20.9-70.3,2.4
			C172.4,358.5,171.4,327.3,190.1,307.5z M243.8,357.1c9-9.5,8.4-24.4-1.1-33.3c-9.6-8.9-24.7-8.4-33.6,1.1
			c-9,9.5-8.4,24.4,1.1,33.3C219.8,367.1,234.9,366.6,243.8,357.1z"/>
	</g>
	<g>
		<path class="st2" d="M190.1,307.5c18.7-19.8,50.3-20.9,70.3-2.4l-17.7,18.8c-9.6-8.9-24.7-8.3-33.6,1.1c-9,9.5-8.4,24.4,1.1,33.3
			L192.5,377C172.4,358.5,171.4,327.3,190.1,307.5z"/>
	</g>
	<g>
		<path class="st5" d="M258.4,297c24.6,22.7,27.5,59.6,4.6,83.9L238,359.4c11-11.6,13.3-27.1,1.6-38L258.4,297z"/>
	</g>
</g>
<path class="st0" d="M235.4,361l14.8,29.3c6.6-2.6,12.1-6.1,16.1-10.6l-26.6-21.5L235.4,361z"/>
<g>
	<path class="st6" d="M291.2,90.9c-0.6-36.6,28.7-66.8,65.2-67.4c36.6-0.6,66.8,28.7,67.4,65.2c0.6,36.6-28.7,66.8-65.2,67.4
		C322,156.8,291.8,127.5,291.2,90.9z M389.2,89.4c-0.3-17.5-14.7-31.5-32.2-31.2c-17.5,0.3-31.5,14.7-31.2,32.2
		c0.3,17.5,14.7,31.5,32.2,31.2C375.5,121.3,389.5,106.8,389.2,89.4z"/>
</g>
<g>
	<path class="st2" d="M291.2,90.9c-0.6-36.6,28.7-66.8,65.2-67.4l0.6,34.6c-17.5,0.3-31.5,14.7-31.2,32.2
		c0.3,17.5,14.7,31.5,32.2,31.2l0.6,34.6C322,156.8,291.8,127.5,291.2,90.9z"/>
</g>
<g>
	<path class="st0" d="M350.5,18.3c42.8-0.7,76.9,32.4,77.6,75.1L387.6,94c-0.3-20.4-16-33.3-36.4-33L350.5,18.3z"/>
</g>
<g>
	<g>
		<g>
			<path class="st7" d="M428.6,485.3c0,0.2-87.3,0.3-194.9,0.3c-107.7,0-195-0.1-195-0.3c0-0.2,87.3-0.3,195-0.3
				C341.3,485,428.6,485.1,428.6,485.3z"/>
		</g>
	</g>
</g>
<g>
	<polygon class="st7" points="158.3,323.4 374.6,321.8 374.6,324.9 158.3,326.8 	"/>
</g>
<polygon class="st8" points="153.6,103.5 158.5,325.2 374.6,323.5 374.6,99.7 "/>
<g>
	<path class="st7" d="M153.6,103.5c2.2,0,88.6-1.6,221-4l0.3,0l0,0.3c0,64.1,0,139.7,0,220.3c0,1.2,0,2.3,0,3.5v0.3l-0.3,0
		c-79.1,0.6-153.2,1.2-216.1,1.6l-0.3,0l0-0.3C155.4,192.3,153.6,105.7,153.6,103.5c0.1,2.2,2.1,88.9,5.2,221.7l-0.3-0.3
		c63-0.5,137-1.1,216.1-1.7l-0.3,0.3c0-1.1,0-2.3,0-3.5c0-80.6,0-156.2,0-220.3l0.3,0.3C242.1,102.1,155.8,103.4,153.6,103.5z"/>
</g>
<g>
	<polygon class="st7" points="152.7,104.9 375.6,103.7 375.8,94.3 152.7,95.7 	"/>
</g>
<g>
	<g>
		<path class="st7" d="M259.4,331.2c-0.4,0-0.8-1.7-0.9-3.9c-0.1-2.2,0.1-4,0.5-4c0.4,0,0.8,1.7,0.9,3.9
			C260,329.4,259.8,331.2,259.4,331.2z"/>
	</g>
</g>
<g>
	<g>
		<path class="st7" d="M259.3,329.7c0-0.1,0.4-0.1,1,0.1c0.3,0.1,0.6,0.3,1,0.6c0.3,0.3,0.7,0.7,1,1.2c0.6,1,0.8,2.6-0.1,4
			c-0.2,0.3-0.5,0.7-0.8,1c-0.3,0.3-0.8,0.5-1.2,0.6c-0.9,0.3-1.8,0.2-2.7-0.2c-0.4-0.2-0.8-0.5-1.2-0.8c-0.3-0.3-0.6-0.7-0.8-1.1
			c-0.4-0.8-0.4-1.7-0.2-2.5c0.2-0.8,0.6-1.5,1.1-2c0.5-0.5,1.1-0.8,1.7-0.9c1.1-0.3,2.1,0,2.6,0.2c0.6,0.3,0.8,0.6,0.7,0.6
			c-0.1,0.1-0.4,0-0.9-0.1c-0.5-0.1-1.3-0.1-2.2,0.2c-0.4,0.2-0.8,0.4-1.2,0.8c-0.3,0.4-0.6,0.9-0.7,1.4c-0.1,0.6,0,1.2,0.2,1.7
			c0.2,0.5,0.7,1,1.3,1.2c0.6,0.3,1.2,0.3,1.8,0.2c0.6-0.1,1-0.5,1.3-1c0.3-0.5,0.5-1,0.5-1.5c0-0.3,0-0.5,0-0.7
			c0-0.2-0.1-0.5-0.2-0.7c-0.4-0.8-0.9-1.4-1.4-1.7C259.6,329.9,259.3,329.8,259.3,329.7z"/>
	</g>
</g>
<g>
	<g>
		<path class="st7" d="M291.4,224.8c0,0,0,0-0.1,0c-0.1,0-0.2,0-0.4,0c-0.3,0-0.9,0-1.5,0.1c-1.4,0.1-3.4,0.1-5.9,0.2
			c-5.2,0.2-12.6,0.5-21.9,0.8c-18.5,0.7-44,1.6-72.1,2.5c-3.3,0.1-6.6,0.2-9.7,0.3l-0.2,0l0-0.2c-2-25.9-3.7-48.9-4.9-65.5
			c-0.6-8.3-1.1-14.9-1.4-19.5c-0.2-2.3-0.3-4.1-0.4-5.3c0-0.6-0.1-1.1-0.1-1.4c0-0.2,0-0.3,0-0.3c0-0.1,0-0.1,0-0.1c0,0,0,0,0,0.1
			c0,0.1,0,0.2,0,0.3c0,0.3,0.1,0.8,0.1,1.4c0.1,1.2,0.3,3,0.4,5.3c0.4,4.6,0.9,11.3,1.6,19.5c1.3,16.6,3.1,39.6,5.1,65.5l-0.2-0.2
			c3.1-0.1,6.4-0.2,9.7-0.3c28.2-1,53.7-1.8,72.1-2.4c9.2-0.3,16.7-0.5,21.9-0.7c2.6-0.1,4.6-0.1,5.9-0.2c0.7,0,1.2,0,1.5,0
			c0.2,0,0.3,0,0.4,0C291.4,224.8,291.4,224.8,291.4,224.8z"/>
	</g>
</g>
<g>
	<polygon class="st7" points="213.2,129.3 213.2,132.3 244,130.8 244,128.3 	"/>
</g>
<g>
	<g>
		<polygon class="st0" points="189.9,222.3 200.6,222.3 198.9,193.2 188.4,193.2 		"/>
	</g>
	<g>
		<polygon class="st0" points="209.3,222.3 220,222.3 218.3,181.7 207.8,181.7 		"/>
	</g>
	<g>
		<polygon class="st0" points="227.5,221 238.2,221 236.5,167.8 226,167.8 		"/>
	</g>
	<g>
		<polygon class="st0" points="269.1,218.9 279.8,218.9 278.2,146.4 267.7,146.4 		"/>
	</g>
	<g>
		<polygon class="st0" points="248.8,219.2 259.5,219.2 257.9,156.8 247.4,156.8 		"/>
	</g>
</g>
<g>
	<g>
		<g>
			<path class="st0" d="M183.2,185.7c-0.3-0.4,18.8-13.2,42.7-28.5c23.9-15.3,43.4-27.3,43.7-26.9c0.3,0.4-18.8,13.2-42.7,28.5
				C203,174.1,183.4,186.1,183.2,185.7z"/>
		</g>
	</g>
	<g>
		<g>
			<path class="st0" d="M259,130.3c-0.1-0.5,6.8-2.2,15.5-3.9l2.2-0.4l-1.3,1.9c0,0,0,0.1-0.1,0.1c-5,7.4-9.3,13.1-9.8,12.8
				c-0.4-0.3,3.2-6.5,8.2-13.8c0,0,0-0.1,0.1-0.1l0.9,1.4C266.2,129.9,259.1,130.8,259,130.3z"/>
		</g>
	</g>
</g>
<g>
	<polygon class="st7" points="188.4,232.1 199.6,232.1 200,234.1 188.4,234.1 	"/>
</g>
<g>
	<polygon class="st7" points="208.2,231.3 219.4,231.3 219.8,233.3 208.2,233.3 	"/>
</g>
<g>
	<polygon class="st7" points="228.6,230.7 239.8,230.7 240.1,232.7 228.6,232.7 	"/>
</g>
<g>
	<polygon class="st7" points="247.7,230.2 258.9,230.2 259.2,232.2 247.7,232.2 	"/>
</g>
<g>
	<polygon class="st7" points="271.4,229.5 282.5,229.5 282.9,231.5 271.4,231.5 	"/>
</g>
<g>
	<circle class="st9" cx="321.5" cy="272.9" r="35.7"/>
	<circle class="st10" cx="321.5" cy="272.9" r="35.7"/>
</g>
<path class="st11" d="M321.5,272.9v-35.7V272.9z"/>
<path class="st0" d="M321.5,272.9l-34.8,7.8l0,0c-5.6-25.7,15.1-43.5,34.8-43.5l0,0"/>
<path class="st12" d="M321.6,272.9l-0.2-35.7l0,0c26.3,0,39.3,24,35.1,43.3v0L321.6,272.9z"/>
<g>
	<path class="st13" d="M321.6,272.9l-0.2-35.7l0,0c26.3,0,39.3,24,35.1,43.3v0L321.6,272.9z"/>
	<path class="st14" d="M321.6,272.9l-0.2-35.7l0,0c26.3,0,39.3,24,35.1,43.3v0L321.6,272.9z"/>
</g>
<g>
	<g>
		<path class="st7" d="M358.2,188.4c0,0.1-0.7-0.6-2.2-1.1c-1.5-0.5-3.9-0.7-6.6,0.2c-2.7,0.9-5.4,3-8.1,5.7c-2.6,2.7-5.4,6-9.5,7.9
			c-2,1-4.3,1.4-6.4,1.1c-2.1-0.3-4-1.2-5.7-2c-1.7-0.8-3.4-1.5-5-1.8c-1.6-0.3-3.2,0-4.5,0.6c-2.6,1.1-4.1,3.1-4.8,4.5
			c-0.7,1.4-0.7,2.4-0.8,2.3c0,0,0-0.9,0.6-2.4c0.7-1.5,2.1-3.5,4.8-4.8c1.3-0.6,3-0.9,4.7-0.7c1.7,0.2,3.4,1,5.2,1.8
			c1.7,0.8,3.5,1.7,5.5,2c2,0.3,4.1-0.1,6.1-1c3.9-1.8,6.7-5.1,9.4-7.8c2.7-2.7,5.5-4.9,8.3-5.8c2.8-0.9,5.3-0.6,6.8,0
			c0.8,0.3,1.3,0.6,1.6,0.9C358,188.2,358.2,188.4,358.2,188.4z"/>
	</g>
	<g>
		<path class="st7" d="M361.2,211.5c0,0.2-12.7,0.3-28.3,0.3c-15.6,0-28.3-0.1-28.3-0.3c0-0.2,12.7-0.3,28.3-0.3
			C348.5,211.2,361.2,211.3,361.2,211.5z"/>
	</g>
	<g>
		<path class="st7" d="M358,211.5c-0.2,0-0.3-7.2-0.3-16.1c0-8.9,0.1-16.1,0.3-16.1c0.2,0,0.3,7.2,0.3,16.1
			C358.3,204.2,358.2,211.5,358,211.5z"/>
	</g>
	<g>
		<path class="st7" d="M310.3,197.9c0,0-0.1-0.1,0-0.3c0.1-0.2,0.3-0.5,0.6-0.6c0.3-0.1,0.9-0.2,1.4,0.2c0.5,0.4,0.5,1.2,0.1,1.7
			c-0.3,0.5-1.1,0.8-1.6,0.5c-0.5-0.3-0.7-0.8-0.6-1.2c0-0.4,0.2-0.7,0.3-0.8c0.2-0.1,0.3-0.1,0.3-0.1c0.1,0.1-0.3,0.3-0.2,0.9
			c0,0.3,0.2,0.6,0.5,0.7c0.3,0.1,0.6,0,0.9-0.3c0.2-0.3,0.2-0.7,0-0.9c-0.2-0.2-0.6-0.2-0.9-0.2
			C310.4,197.5,310.3,197.9,310.3,197.9z"/>
	</g>
	<g>
		<path class="st7" d="M348.4,186.2c0,0,0-0.1,0.2-0.3c0.2-0.1,0.5-0.2,0.9-0.1c0.4,0.1,0.8,0.4,0.9,1c0.1,0.6-0.4,1.2-0.9,1.4
			c-0.6,0.2-1.3,0-1.6-0.6c-0.2-0.6,0-1.1,0.2-1.3c0.3-0.3,0.6-0.4,0.8-0.4c0.2,0,0.3,0.1,0.3,0.1c0,0.1-0.4,0.1-0.7,0.6
			c-0.1,0.2-0.2,0.6-0.1,0.8c0.1,0.3,0.5,0.4,0.9,0.3c0.4-0.1,0.6-0.4,0.6-0.7c0-0.3-0.3-0.5-0.5-0.7
			C348.9,186,348.5,186.3,348.4,186.2z"/>
	</g>
</g>
<g>
	<g>
		<path class="st7" d="M357,148c0,0.2-12.3,0.3-27.4,0.3c-15.1,0-27.4-0.1-27.4-0.3c0-0.2,12.3-0.3,27.4-0.3
			C344.7,147.7,357,147.8,357,148z"/>
	</g>
	<g>
		<path class="st7" d="M357,155.6c0,0.2-12.3,0.3-27.4,0.3c-15.1,0-27.4-0.1-27.4-0.3c0-0.2,12.3-0.3,27.4-0.3
			C344.7,155.3,357,155.4,357,155.6z"/>
	</g>
	<g>
		<path class="st7" d="M357,163.2c0,0.2-12.3,0.3-27.4,0.3c-15.1,0-27.4-0.1-27.4-0.3c0-0.2,12.3-0.3,27.4-0.3
			C344.7,162.9,357,163.1,357,163.2z"/>
	</g>
	<g>
		<path class="st7" d="M357,170.9c0,0.2-12.3,0.3-27.4,0.3c-15.1,0-27.4-0.1-27.4-0.3c0-0.2,12.3-0.3,27.4-0.3
			C344.7,170.5,357,170.7,357,170.9z"/>
	</g>
	<rect x="302.2" y="134.1" class="st7" width="29.2" height="2.5"/>
</g>
<g>
	<rect x="181.7" y="256.4" class="st7" width="29.2" height="2.5"/>
	<g>
		<path class="st7" d="M261.6,270.6c0,0.2-17.7,0.3-39.6,0.3c-21.9,0-39.6-0.1-39.6-0.3c0-0.2,17.7-0.3,39.6-0.3
			C243.8,270.3,261.6,270.5,261.6,270.6z"/>
	</g>
	<g>
		<path class="st7" d="M262,277.6c0,0.2-18,0.3-40.3,0.3c-22.2,0-40.3-0.1-40.3-0.3c0-0.2,18-0.3,40.3-0.3
			C244,277.3,262,277.4,262,277.6z"/>
	</g>
	<g>
		<path class="st7" d="M262.9,284.1c0,0.2-18.1,0.3-40.5,0.3c-22.4,0-40.5-0.1-40.5-0.3c0-0.2,18.1-0.3,40.5-0.3
			C244.8,283.8,262.9,283.9,262.9,284.1z"/>
	</g>
	<g>
		<path class="st7" d="M224.1,291c0,0.2-9.3,0.3-20.8,0.3c-11.5,0-20.8-0.1-20.8-0.3c0-0.2,9.3-0.3,20.8-0.3
			C214.8,290.7,224.1,290.8,224.1,291z"/>
	</g>
</g>
<g>
	<path class="st0" d="M96.9,480v-10.6l-19.8-0.1L77,484.8l1.2,0.1c5.5,0.3,27.7,1.3,31.4,0.3C113.7,483.9,96.9,480,96.9,480z"/>
</g>
<g>
	<g>
		<path class="st15" d="M110.1,484.1c0,0.2-7.4,0.3-16.5,0.3c-9.1,0-16.5-0.2-16.5-0.3c0-0.2,7.4-0.3,16.5-0.3
			C102.7,483.8,110.1,483.9,110.1,484.1z"/>
	</g>
</g>
<g>
	<g>
		<path class="st15" d="M97.3,482.1c-0.2-0.1,0-0.7,0.4-1.2c0.4-0.6,0.9-0.8,1.1-0.7c0.1,0.1-0.1,0.6-0.5,1.1
			C97.8,481.9,97.5,482.2,97.3,482.1z"/>
	</g>
</g>
<g>
	<g>
		<path class="st15" d="M98.5,482.8c-0.2-0.1-0.1-0.7,0.3-1.4c0.4-0.7,0.9-1,1-0.9c0.1,0.1-0.1,0.7-0.5,1.3
			C99.1,482.4,98.7,482.9,98.5,482.8z"/>
	</g>
</g>
<g>
	<g>
		<path class="st15" d="M83,484.1c-0.1,0.1-0.4-0.2-0.8-0.7c-0.4-0.5-1-1.1-1.7-1.7c-0.7-0.5-1.5-0.8-2.1-0.9c-0.6-0.1-1,0-1-0.1
			c0-0.1,0.3-0.3,1-0.4c0.7-0.1,1.7,0.2,2.5,0.8c0.8,0.6,1.4,1.4,1.7,1.9C82.9,483.6,83.1,484,83,484.1z"/>
	</g>
</g>
<g>
	<g>
		<path class="st15" d="M97.3,480.2c0.1,0.2-0.2,0.5-0.8,0.7c-0.6,0.2-1.1,0.1-1.1-0.1c0-0.2,0.4-0.4,0.9-0.6
			C96.8,480.1,97.3,480,97.3,480.2z"/>
	</g>
</g>
<g>
	<g>
		<path class="st7" d="M97,479.1c0,0.2-0.5,0.3-1.2,0.4c-0.7,0-1.2-0.1-1.2-0.3c0-0.2,0.5-0.3,1.2-0.4C96.5,478.8,97,479,97,479.1z"
			/>
		<path class="st7" d="M110.1,484.1c0,0.2-7.4,0.3-16.5,0.3c-9.1,0-16.5-0.2-16.5-0.3c0-0.2,7.4-0.3,16.5-0.3
			C102.7,483.8,110.1,483.9,110.1,484.1z"/>
		<path class="st7" d="M97.3,482.1c-0.2-0.1,0-0.7,0.4-1.2c0.4-0.6,0.9-0.8,1.1-0.7c0.1,0.1-0.1,0.6-0.5,1.1
			C97.8,481.9,97.5,482.2,97.3,482.1z"/>
		<path class="st7" d="M98.5,482.8c-0.2-0.1-0.1-0.7,0.3-1.4c0.4-0.7,0.9-1,1-0.9c0.1,0.1-0.1,0.7-0.5,1.3
			C99.1,482.4,98.7,482.9,98.5,482.8z"/>
		<g>
			<g>
				<path class="st7" d="M83,484.1c-0.1,0.1-0.4-0.2-0.8-0.7c-0.4-0.5-1-1.1-1.7-1.7c-0.7-0.5-1.5-0.8-2.1-0.9c-0.6-0.1-1,0-1-0.1
					c0-0.1,0.3-0.3,1-0.4c0.7-0.1,1.7,0.2,2.5,0.8c0.8,0.6,1.4,1.4,1.7,1.9C82.9,483.6,83.1,484,83,484.1z"/>
			</g>
		</g>
		<path class="st7" d="M97.3,480.2c0.1,0.2-0.2,0.5-0.8,0.7c-0.6,0.2-1.1,0.1-1.1-0.1c0-0.2,0.4-0.4,0.9-0.6
			C96.8,480.1,97.3,480,97.3,480.2z"/>
		<path class="st7" d="M97,479.1c0,0.2-0.5,0.3-1.2,0.4c-0.7,0-1.2-0.1-1.2-0.3c0-0.2,0.5-0.3,1.2-0.4C96.5,478.8,97,479,97,479.1z"
			/>
	</g>
</g>
<g>
	<path class="st0" d="M117.8,476.3l3.1-10.1l-18.8-6l-4.7,14.7l1.1,0.4c5.1,1.9,26.1,9.5,29.9,9.5
		C132.7,484.9,117.8,476.3,117.8,476.3z"/>
</g>
<g>
	<g>
		<path class="st7" d="M129.1,484.1c-0.1,0.2-7.2-1.9-15.9-4.6c-8.7-2.7-15.7-5-15.7-5.2s7.2,1.9,15.9,4.6
			C122.2,481.6,129.2,483.9,129.1,484.1z"/>
	</g>
</g>
<g>
	<g>
		<path class="st7" d="M117.5,478.4c-0.1-0.1,0.2-0.6,0.7-1c0.6-0.4,1.1-0.5,1.2-0.4c0.1,0.2-0.3,0.5-0.8,0.9
			C118.1,478.3,117.6,478.6,117.5,478.4z"/>
	</g>
</g>
<g>
	<g>
		<path class="st7" d="M118.5,479.5c-0.1-0.1,0.1-0.7,0.7-1.2c0.6-0.5,1.2-0.7,1.3-0.6c0.1,0.2-0.3,0.6-0.8,1.1
			C119.1,479.2,118.6,479.6,118.5,479.5z"/>
	</g>
</g>
<g>
	<g>
		<path class="st16" d="M103.3,476c-0.1,0-0.3-0.3-0.6-0.9c-0.3-0.6-0.6-1.4-1.2-2.1c-0.5-0.7-1.2-1.2-1.8-1.5
			c-0.5-0.2-0.9-0.3-0.9-0.4c0-0.1,0.4-0.2,1.1-0.1c0.7,0.2,1.5,0.7,2.2,1.5c0.6,0.8,0.9,1.7,1.1,2.3
			C103.4,475.6,103.4,476,103.3,476z"/>
	</g>
</g>
<g>
	<g>
		<path class="st7" d="M118.1,476.5c0,0.2-0.4,0.4-1,0.5c-0.6,0-1.1-0.2-1-0.4c0-0.2,0.5-0.3,1-0.3
			C117.6,476.3,118.1,476.4,118.1,476.5z"/>
	</g>
</g>
<g>
	<g>
		<path class="st7" d="M118.1,475.5c0,0.2-0.6,0.2-1.2,0c-0.6-0.2-1.1-0.5-1-0.7c0.1-0.2,0.6-0.2,1.2,0
			C117.7,475,118.2,475.3,118.1,475.5z"/>
	</g>
</g>
<g>
	<g>
		<g>
			<path class="st16" d="M131.2,271.3l-25.9-2l0,0L66,266.1l4.4,211.1l34.1-0.4c0,0,0-2.3-0.1-6.5l20,5.5c0,0,19.5-65.9,26.1-92.9
				C156.1,360.3,131.2,271.3,131.2,271.3z M104,437.5c-0.5-48.7-1.1-131.6-0.4-141.7c0,0,19,73,19.2,78.7
				C122.9,378,112.3,411.6,104,437.5z"/>
		</g>
		<g>
			<g>
				<path class="st16" d="M104.7,468.8c0,0.2-7.6,0.3-17,0.3c-9.4,0-17-0.2-17-0.3c0-0.2,7.6-0.3,17-0.3
					C97,468.4,104.7,468.6,104.7,468.8z"/>
			</g>
		</g>
		<g>
			<g>
				<path class="st16" d="M104.4,461.2c0-0.1,1.1,0.3,3.1,1c2.2,0.8,4.9,1.7,7.8,2.7c2.9,1,5.6,1.9,7.8,2.7c2,0.7,3.2,1.2,3.2,1.3
					c0,0.1-1.3-0.2-3.3-0.8c-2-0.6-4.8-1.5-7.9-2.5c-3.1-1.1-5.8-2.1-7.8-2.9C105.4,461.8,104.3,461.3,104.4,461.2z"/>
			</g>
		</g>
		<g>
			<g>
				<path class="st16" d="M135.6,373.8c0,0.2-2.9,0.6-6.4,0.8c-3.6,0.3-6.5,0.3-6.5,0.1c0-0.2,2.9-0.6,6.4-0.8
					C132.7,373.7,135.6,373.6,135.6,373.8z"/>
			</g>
		</g>
		<g>
			<g>
				<path class="st16" d="M133.4,377.6c-0.1,0.2-2.3-0.3-4.9-1.1c-2.7-0.8-4.8-1.5-4.7-1.7c0.1-0.2,2.3,0.3,4.9,1.1
					C131.3,376.7,133.5,377.5,133.4,377.6z"/>
			</g>
		</g>
		<g>
			<path class="st16" d="M106.8,269.6c0.1,0,0.1,1.5,0.2,4c0,2.5,0,5.9,0,9.7c0,1.9,0,3.7-0.1,5.3c0,1.6-0.2,3.2-0.8,4.4
				c-0.6,1.2-1.3,1.9-1.9,2.3c-0.6,0.4-1,0.5-1,0.5c0,0,0.3-0.2,0.8-0.7c0.5-0.4,1.2-1.2,1.7-2.3c0.5-1.1,0.6-2.6,0.6-4.2
				c0-1.7,0-3.5,0-5.3c0-3.8,0.1-7.2,0.2-9.7C106.6,271.1,106.7,269.6,106.8,269.6z"/>
		</g>
		<g>
			<path class="st16" d="M87.2,268.4c0,0,0,0.2,0,0.5c0,0.4,0,0.9,0,1.5c0,1.4-0.1,3.3-0.2,5.8c-0.2,5.1-0.4,12.4-0.7,21.4
				c-0.5,18.1-1.1,43-1.3,70.5c-0.1,27.6,0.2,52.5,0.5,70.6c0.2,9,0.4,16.3,0.5,21.4c0.1,2.5,0.1,4.5,0.1,5.8c0,0.6,0,1.1,0,1.5
				c0,0.3,0,0.5,0,0.5c0,0,0-0.2,0-0.5c0-0.4,0-0.9-0.1-1.5c-0.1-1.4-0.1-3.3-0.2-5.8c-0.2-5-0.4-12.4-0.7-21.4
				c-0.5-18.1-0.8-43-0.7-70.6c0.1-27.6,0.8-52.5,1.4-70.6c0.3-9,0.6-16.3,0.9-21.4c0.1-2.5,0.2-4.4,0.3-5.8c0-0.6,0.1-1.1,0.1-1.5
				C87.2,268.5,87.2,268.4,87.2,268.4z"/>
		</g>
		<g>
			<path class="st16" d="M122.7,273.7c0,0,0.1,0.2,0.2,0.5c0.1,0.3,0.3,0.8,0.4,1.4c0.4,1.3,1,3.1,1.6,5.5
				c1.3,4.8,3.2,11.8,5.2,20.4c2,8.7,4.3,19,6.6,30.6c2.3,11.5,4.8,24.2,7,37.6c0.3,1.7,0.5,3.3,0.8,5c0,0.4,0.1,0.9,0.1,1.3
				l-0.2,1.2c-0.2,0.8-0.3,1.7-0.4,2.5c-0.7,3.2-1.4,6.4-2.2,9.5c-1.6,6.2-3.3,12.2-4.9,17.8c-3.3,11.3-6.5,21.4-9.2,29.9
				c-2.7,8.5-5,15.3-6.5,20c-0.8,2.3-1.4,4.2-1.8,5.4c-0.2,0.6-0.4,1.1-0.5,1.4c-0.1,0.3-0.2,0.5-0.2,0.5c0,0,0-0.2,0.1-0.5
				c0.1-0.3,0.3-0.8,0.4-1.4c0.4-1.3,1-3.1,1.7-5.5c1.5-4.8,3.7-11.6,6.4-20.1c2.6-8.5,5.8-18.6,9-29.9c1.6-5.6,3.3-11.6,4.9-17.8
				c0.8-3.1,1.5-6.3,2.2-9.5c0.2-0.8,0.3-1.6,0.4-2.4l0.2-1.2c0-0.4-0.1-0.8-0.1-1.2c-0.2-1.7-0.5-3.3-0.8-5
				c-2.2-13.4-4.7-26.1-7-37.6c-2.3-11.5-4.5-21.9-6.5-30.6c-2-8.7-3.7-15.7-5-20.5c-0.6-2.4-1.2-4.3-1.5-5.5
				c-0.2-0.6-0.3-1.1-0.4-1.4C122.7,273.8,122.7,273.7,122.7,273.7z"/>
		</g>
	</g>
	<g>
		<path class="st16" d="M103.9,433.2c0,0,0.1,0.6,0.1,1.7c0,1.2,0,2.7,0.1,4.5c0.1,3.9,0.1,9.1,0.2,14.8c0.2,5.7,0.3,10.9,0.4,14.8
			c0.1,1.8,0.1,3.3,0.1,4.5c0,1.1,0,1.7,0,1.7c0,0-0.1-0.6-0.2-1.6c-0.1-1.1-0.2-2.6-0.3-4.5c-0.2-3.8-0.5-9-0.6-14.8
			c-0.1-5.8-0.1-11.1,0-14.9c0-1.9,0.1-3.4,0.1-4.5C103.8,433.8,103.9,433.2,103.9,433.2z"/>
	</g>
</g>
<g>
	<path class="st7" d="M131.2,271.3l-25.9-2l0,0L66,266.1l4.4,211.1l34.1-0.4c0,0,0-2.3-0.1-6.5l20,5.5c0,0,19.5-65.9,26.1-92.9
		C156.1,360.3,131.2,271.3,131.2,271.3z M104,437.5c-0.5-48.7-1.1-131.6-0.4-141.7c0,0,19,73,19.2,78.7
		C122.9,378,112.3,411.6,104,437.5z"/>
</g>
<g class="st17">
	<g>
		<g>
			<path class="st2" d="M104.7,468.8c0,0.2-7.6,0.3-17,0.3c-9.4,0-17-0.2-17-0.3c0-0.2,7.6-0.3,17-0.3
				C97,468.4,104.7,468.6,104.7,468.8z"/>
		</g>
	</g>
	<g>
		<g>
			<path class="st2" d="M104.4,461.2c0-0.1,1.1,0.3,3.1,1c2.2,0.8,4.9,1.7,7.8,2.7c2.9,1,5.6,1.9,7.8,2.7c2,0.7,3.2,1.2,3.2,1.3
				c0,0.1-1.3-0.2-3.3-0.8c-2-0.6-4.8-1.5-7.9-2.5c-3.1-1.1-5.8-2.1-7.8-2.9C105.4,461.8,104.3,461.3,104.4,461.2z"/>
		</g>
	</g>
	<g>
		<g>
			<path class="st2" d="M135.6,373.8c0,0.2-2.9,0.6-6.4,0.8c-3.6,0.3-6.5,0.3-6.5,0.1c0-0.2,2.9-0.6,6.4-0.8
				C132.7,373.7,135.6,373.6,135.6,373.8z"/>
		</g>
	</g>
	<g>
		<g>
			<path class="st2" d="M133.4,377.6c-0.1,0.2-2.3-0.3-4.9-1.1c-2.7-0.8-4.8-1.5-4.7-1.7c0.1-0.2,2.3,0.3,4.9,1.1
				C131.3,376.7,133.5,377.5,133.4,377.6z"/>
		</g>
	</g>
	<g>
		<path class="st2" d="M106.8,269.6c0.1,0,0.1,1.5,0.2,4c0,2.5,0,5.9,0,9.7c0,1.9,0,3.7-0.1,5.3c0,1.6-0.2,3.2-0.8,4.4
			c-0.6,1.2-1.3,1.9-1.9,2.3c-0.6,0.4-1,0.5-1,0.5c0,0,0.3-0.2,0.8-0.7c0.5-0.4,1.2-1.2,1.7-2.3c0.5-1.1,0.6-2.6,0.6-4.2
			c0-1.7,0-3.5,0-5.3c0-3.8,0.1-7.2,0.2-9.7C106.6,271.1,106.7,269.6,106.8,269.6z"/>
	</g>
	<g>
		<path class="st2" d="M87.2,268.4c0,0,0,0.2,0,0.5c0,0.4,0,0.9,0,1.5c0,1.4-0.1,3.3-0.2,5.8c-0.2,5.1-0.4,12.4-0.7,21.4
			c-0.5,18.1-1.1,43-1.3,70.5c-0.1,27.6,0.2,52.5,0.5,70.6c0.2,9,0.4,16.3,0.5,21.4c0.1,2.5,0.1,4.5,0.1,5.8c0,0.6,0,1.1,0,1.5
			c0,0.3,0,0.5,0,0.5c0,0,0-0.2,0-0.5c0-0.4,0-0.9-0.1-1.5c-0.1-1.4-0.1-3.3-0.2-5.8c-0.2-5-0.4-12.4-0.7-21.4
			c-0.5-18.1-0.8-43-0.7-70.6c0.1-27.6,0.8-52.5,1.4-70.6c0.3-9,0.6-16.3,0.9-21.4c0.1-2.5,0.2-4.4,0.3-5.8c0-0.6,0.1-1.1,0.1-1.5
			C87.2,268.5,87.2,268.4,87.2,268.4z"/>
	</g>
	<g>
		<path class="st2" d="M122.7,273.7c0,0,0.1,0.2,0.2,0.5c0.1,0.3,0.3,0.8,0.4,1.4c0.4,1.3,1,3.1,1.6,5.5c1.3,4.8,3.2,11.8,5.2,20.4
			c2,8.7,4.3,19,6.6,30.6c2.3,11.5,4.8,24.2,7,37.6c0.3,1.7,0.5,3.3,0.8,5c0,0.4,0.1,0.9,0.1,1.3l-0.2,1.2c-0.2,0.8-0.3,1.7-0.4,2.5
			c-0.7,3.2-1.4,6.4-2.2,9.5c-1.6,6.2-3.3,12.2-4.9,17.8c-3.3,11.3-6.5,21.4-9.2,29.9c-2.7,8.5-5,15.3-6.5,20
			c-0.8,2.3-1.4,4.2-1.8,5.4c-0.2,0.6-0.4,1.1-0.5,1.4c-0.1,0.3-0.2,0.5-0.2,0.5c0,0,0-0.2,0.1-0.5c0.1-0.3,0.3-0.8,0.4-1.4
			c0.4-1.3,1-3.1,1.7-5.5c1.5-4.8,3.7-11.6,6.4-20.1c2.6-8.5,5.8-18.6,9-29.9c1.6-5.6,3.3-11.6,4.9-17.8c0.8-3.1,1.5-6.3,2.2-9.5
			c0.2-0.8,0.3-1.6,0.4-2.4l0.2-1.2c0-0.4-0.1-0.8-0.1-1.2c-0.2-1.7-0.5-3.3-0.8-5c-2.2-13.4-4.7-26.1-7-37.6
			c-2.3-11.5-4.5-21.9-6.5-30.6c-2-8.7-3.7-15.7-5-20.5c-0.6-2.4-1.2-4.3-1.5-5.5c-0.2-0.6-0.3-1.1-0.4-1.4
			C122.7,273.8,122.7,273.7,122.7,273.7z"/>
	</g>
	<g>
		<path class="st2" d="M103.9,433.2c0,0,0.1,0.6,0.1,1.7c0,1.2,0,2.7,0.1,4.5c0.1,3.9,0.1,9.1,0.2,14.8c0.2,5.7,0.3,10.9,0.4,14.8
			c0.1,1.8,0.1,3.3,0.1,4.5c0,1.1,0,1.7,0,1.7c0,0-0.1-0.6-0.2-1.6c-0.1-1.1-0.2-2.6-0.3-4.5c-0.2-3.8-0.5-9-0.6-14.8
			c-0.1-5.8-0.1-11.1,0-14.9c0-1.9,0.1-3.4,0.1-4.5C103.8,433.8,103.9,433.2,103.9,433.2z"/>
	</g>
</g>
<path class="st18" d="M86.5,170l19.8,1.5c0.3-2.3,0.6-11.2,0.6-11.2s8.3-0.8,8.9-9c0.6-8.2,0.3-27.1,0.3-27.1l0,0
	c-9.2-4.7-20.3-4-28.9,1.8l-1.3,0.9L86.5,170z"/>
<g>
	<g>
		<path class="st7" d="M113.4,138.1c-0.5-0.5-0.5-1.2,0-1.7c0.5-0.5,1.2-0.5,1.7,0c0.5,0.5,0.5,1.2,0,1.7
			C114.6,138.6,113.9,138.6,113.4,138.1z"/>
		<g>
			<path class="st7" d="M115.5,136.4c-0.1,0.1-0.9-0.5-2-0.6c-1.1-0.1-2,0.5-2.1,0.3c-0.1-0.1,0.1-0.3,0.5-0.6
				c0.4-0.2,1-0.5,1.7-0.4c0.7,0.1,1.3,0.4,1.6,0.7C115.5,136.1,115.6,136.3,115.5,136.4z"/>
		</g>
	</g>
	<g>
		<path class="st7" d="M102.5,136.6c0.5,0.4,0.7,1.1,0.3,1.7c-0.4,0.5-1.1,0.7-1.7,0.3c-0.5-0.4-0.7-1.1-0.3-1.7
			C101.2,136.3,101.9,136.2,102.5,136.6z"/>
		<g>
			<path class="st7" d="M103.2,136.6c-0.1,0.1-0.9-0.5-2-0.6c-1.1-0.1-2,0.5-2.1,0.3c-0.1-0.1,0.1-0.3,0.5-0.6
				c0.4-0.2,1-0.5,1.7-0.4c0.7,0.1,1.3,0.4,1.6,0.7C103.2,136.3,103.3,136.6,103.2,136.6z"/>
		</g>
	</g>
	<g>
		<path class="st7" d="M107.2,146.2c0-0.1,0.7-0.2,1.9-0.3c0.3,0,0.5-0.1,0.6-0.2c0.1-0.2,0-0.5-0.2-0.9c-0.2-0.8-0.5-1.5-0.8-2.4
			c-1-3.3-1.7-6.1-1.6-6.1c0.2,0,1.1,2.6,2.2,6c0.2,0.8,0.5,1.6,0.7,2.4c0.1,0.3,0.3,0.8,0.1,1.2c-0.1,0.2-0.3,0.4-0.5,0.4
			c-0.2,0-0.4,0-0.5,0C107.9,146.4,107.2,146.3,107.2,146.2z"/>
	</g>
</g>
<path class="st8" d="M103.4,147.2c-1.1-0.8,3.1,1.9,5.4,2c0,0-1.4,2-3.8,1C102.7,149.2,103.4,147.2,103.4,147.2z"/>
<path class="st19" d="M107,160.1c0,0-5.2,0.1-10.5-3.7c0,0,2.2,6.1,10.4,5.8L107,160.1z"/>
<path class="st18" d="M87.6,134.1c-0.2-0.1-6.1-0.8-5.5,6.1c0.6,7,7.4,4.1,7.4,3.9C89.5,144,87.6,134.1,87.6,134.1z"/>
<g>
	<path class="st19" d="M87.2,141.9c0,0-0.1,0.1-0.3,0.2c-0.2,0.1-0.5,0.2-0.9,0.1c-0.8-0.2-1.5-1.3-1.6-2.6c-0.1-0.6,0-1.2,0.2-1.8
		c0.2-0.5,0.5-0.9,0.8-1c0.4-0.1,0.6,0.1,0.7,0.3c0.1,0.2,0.1,0.3,0.1,0.3c0,0,0.1-0.1,0.1-0.4c0-0.1-0.1-0.3-0.3-0.4
		c-0.2-0.1-0.4-0.2-0.7-0.1c-0.5,0.1-1,0.6-1.2,1.2c-0.2,0.6-0.3,1.3-0.3,2c0.2,1.4,1,2.7,2,2.9c0.5,0.1,0.9-0.1,1.1-0.3
		C87.2,142.1,87.2,141.9,87.2,141.9z"/>
</g>
<path class="st7" d="M116.8,121.2c1.9-0.1,3.4-2.2,2.9-4c-0.5-1.8-3-2.7-4.6-1.8c0.9-0.9,1.9-1.8,2.4-3c0.5-1.2,0.4-2.7-0.6-3.5
	c-1-0.8-2.4-0.7-3.5-0.2c-1.7,0.7-3.1,2.2-4.9,2.8c-1.8,0.6-3.8,0.3-5.7,0.4c-2.1,0.1-4.3,0.7-5.9,2c-1.4,1.2-2.5,2.9-2.6,4.7
	c-0.2-0.3-0.5-0.6-0.8-0.9c-1.6-1.7-3.4-2.4-3.5-2.2c-0.1,0.2,1.5,1,3,2.6c0.4,0.4,0.8,0.9,1.1,1.3c-2.7-0.3-5.6-0.3-7.7,1.3
	c-1.8,1.4-2.6,3.8-2.6,6.1c0,2.3,0.9,4.4,1.6,6.6l0,0c0.4,1.3,0.8,1.7,0.8,1.7l1,5.9l3.7-0.1l-0.2-12.2c0,0-0.4-5.2,4.1-4.7
	c4.4,0.5,10.5,5.5,19.1,4.2c1.4-0.2,2.9-0.4,4-1.2c1.2-0.8,2-2.2,1.8-3.6C119.6,122.2,118.2,120.9,116.8,121.2z"/>
<g>
	<path class="st18" d="M191,181.6l0.5-3.7c0,0,0.7-2.2,1-6.2c0.1-1,0-2.1-0.3-3.1c-0.3-1.2-0.8-2.8-1.4-3.6c-0.7-1,0.2-2.3,1.2-1.9
		c1,0.4,3,3,3.6,6.9c0.6,3.8,3.6-1.5,4.8-3.4c1.1-1.9,4.9-7.6,5.8-7.8c1.3-0.2,1.7,1.1,0.5,3c-1.2,1.9-4.3,7.7-3.2,8.3
		c0,0,1.6-0.2,2.4,0.1c0.3,0.1,0.4,0.3,0.4,0.6c0,1.1,0.2,1.7,0.2,1.7s1.5-0.3,1.8,0.3c0.3,0.7,0.3,2.1,0.3,2.1s1.2-0.4,1.7,0
		c1.2,0.9-0.3,2.6-0.3,2.6c-3.6,4.7-11.1,11.6-11.1,11.6l-8-7.8"/>
	<g>
		<path class="st19" d="M206,172.8c0.1,0-0.4,0.8-1.4,1.9c-0.5,0.6-1.1,1.2-1.7,1.9c-0.4,0.3-0.7,0.7-1.2,1.1
			c-0.5,0.3-1.2,0.6-1.8,0.2c-0.3-0.2-0.6-0.6-0.6-0.9c0-0.3,0.1-0.7,0.2-0.9c0.3-0.5,0.7-0.9,0.9-1.2c0.6-0.8,1.1-1.5,1.5-2.1
			c0.8-1.2,1.3-2,1.3-1.9c0.1,0-0.2,0.9-1,2.2c-0.4,0.6-0.8,1.4-1.4,2.2c-0.3,0.4-0.6,0.8-0.9,1.2c-0.2,0.4-0.2,0.9,0.1,1
			c0.4,0.2,0.8,0.1,1.2-0.2c0.4-0.3,0.8-0.6,1.1-1c0.7-0.7,1.3-1.3,1.8-1.8C205.3,173.4,205.9,172.7,206,172.8z"/>
	</g>
	<g>
		<path class="st19" d="M208,175.2c0.1,0.1-0.4,0.7-1.3,1.7c-0.4,0.5-1,1-1.7,1.6c-0.4,0.3-0.7,0.5-1.2,0.7
			c-0.2,0.1-0.5,0.2-0.8,0.2c-0.3,0-0.7,0-0.9-0.2c-0.5-0.5-0.4-1.2-0.2-1.7c0.3-0.5,0.6-0.8,0.8-1.1c0.5-0.6,1-1.2,1.5-1.7
			c0.9-1,1.4-1.6,1.5-1.5c0.1,0.1-0.4,0.7-1.1,1.8c-0.4,0.6-0.9,1.2-1.4,1.8c-0.3,0.3-0.6,0.7-0.7,1c-0.2,0.3-0.2,0.8,0.1,1
			c0.2,0.2,0.7,0.1,1-0.1c0.4-0.2,0.8-0.4,1.1-0.7c0.7-0.5,1.3-1,1.7-1.4C207.4,175.7,208,175.1,208,175.2z"/>
	</g>
	<g>
		<path class="st19" d="M208.5,178.5c0.1,0,0,0.5-0.5,1.2c-0.3,0.3-0.7,0.7-1.3,0.7c-0.3,0-0.6-0.1-0.9-0.3c-0.3-0.2-0.5-0.6-0.5-1
			c0.1-0.8,0.4-1.2,0.7-1.6c0.3-0.4,0.6-0.8,0.8-1.1c0.5-0.6,0.9-0.9,0.9-0.9c0.1,0.1-0.2,0.5-0.6,1.1c-0.2,0.4-0.5,0.8-0.7,1.1
			c-0.2,0.4-0.6,0.9-0.6,1.4c0,0.4,0.4,0.7,0.8,0.7c0.4,0,0.8-0.2,1-0.4C208.2,178.9,208.4,178.4,208.5,178.5z"/>
	</g>
</g>
<path class="st0" d="M190.2,176.8c0,0-30.6,30.1-34.9,30.3c-4.9,0.2-20-21.2-20-21.2l0,0c-9.6-14.9-22.4-17.3-27-17.7l0-1.8
	l-22.8-1.9c0,0,0,2,0,3.7l-10.1,0c0,0-18.1-0.8-20.8,23.5l13,10.3l5.3,19.8c1.9,6.9-4.8,17.9-7.9,35.7c-0.5,2.9-0.1,5.4,1.4,8.7
	l65.9,7.6l-3.5-50.4l-1.1-11.7c5.4,7.4,15.2,17.9,27.1,17.7c20.4-0.4,48.7-43.2,48.7-43.2L190.2,176.8z"/>
<g>
	<path class="st6" d="M100.5,166.2c0.1,0,0.1,1.2,0,3.1c-0.1,1.9-0.4,4.7-1,7.7l-0.1,0.4l-0.3-0.2c-0.8-0.4-1.6-0.9-2.5-1.4
		c-3.3-1.9-6.1-3.9-8.1-5.3c-2-1.4-3.3-2.2-3.3-2.3c0,0,0.4,0.1,1,0.4c0.6,0.3,1.5,0.8,2.5,1.5c2.1,1.3,4.9,3.2,8.2,5.1
		c0.8,0.5,1.6,0.9,2.4,1.4l-0.4,0.2c0.7-3,1-5.7,1.2-7.6C100.3,167.3,100.4,166.2,100.5,166.2z"/>
</g>
<g>
	<path class="st6" d="M108.3,168.5c0.1,0-0.2,1.1-0.7,3c-0.2,0.9-0.5,2-0.9,3.2c-0.2,0.6-0.4,1.2-0.7,1.8c-0.1,0.2-0.2,0.4-0.4,0.5
		c-0.2,0.2-0.7,0.1-0.8-0.1c-0.3-0.4-0.4-0.7-0.5-1c-1.1-2.6-2.1-5.1-2.8-6.8c-0.7-1.8-1.1-2.9-1-2.9c0.1,0,0.6,1,1.4,2.7
		c0.8,1.7,1.8,4.1,2.9,6.7c0.1,0.3,0.3,0.7,0.4,0.9c0.1,0,0,0,0.1,0c0.1,0,0.1-0.1,0.2-0.3c0.3-0.6,0.5-1.2,0.7-1.8
		c0.4-1.2,0.7-2.2,1-3.1C107.7,169.5,108.2,168.4,108.3,168.5z"/>
</g>
<g>
	<path class="st4" d="M104,250c0,0-0.1-0.3-0.1-0.8c0-0.6-0.1-1.4-0.1-2.4c-0.1-2.1-0.2-5.1-0.4-8.8c-0.3-7.5-0.7-17.7-1.1-29
		c-0.4-11.3-0.7-21.5-0.9-29c-0.1-3.7-0.2-6.6-0.2-8.8c0-1,0-1.8,0-2.4c0-0.5,0-0.8,0-0.8c0,0,0.1,0.3,0.1,0.8
		c0,0.6,0.1,1.4,0.1,2.4c0.1,2.1,0.2,5.1,0.4,8.8c0.3,7.5,0.7,17.7,1.1,29c0.4,11.3,0.7,21.5,0.9,29c0.1,3.7,0.2,6.6,0.2,8.8
		c0,1,0,1.8,0,2.4C104,249.7,104,250,104,250z"/>
</g>
<polygon class="st7" points="99.9,173.5 101.8,178.8 103.4,173.2 100.9,167.5 "/>
<polygon class="st7" points="102.1,177.2 100.9,236.7 109.8,255.4 113.4,234.3 "/>
<g>
	<g>
		<path class="st6" d="M155.6,214.5c0,0,0,0.2,0,0.5l-0.1,0.4l-0.2-0.4c-0.3-0.6-0.7-2-0.8-3.7c-0.2-2.3,0.3-4.2,0.5-4.2
			c0.2,0,0,1.9,0.1,4.1c0.1,1.6,0.4,3,0.4,3.6l-0.3,0C155.4,214.6,155.5,214.5,155.6,214.5z"/>
	</g>
	<g>
		<path class="st6" d="M158.2,214.3c-0.1,0.1-1.1-1.3-1.9-3.2c-0.8-1.9-1-3.6-0.9-3.6c0.2,0,0.7,1.5,1.5,3.4
			C157.6,212.7,158.3,214.2,158.2,214.3z"/>
	</g>
</g>
<g>
	<path class="st6" d="M201.5,189.2c-0.1,0.1-3.3-1.9-7.3-4.5c-3.9-2.6-7-4.9-6.9-5c0.1-0.1,3.3,1.9,7.3,4.5
		C198.5,186.8,201.6,189,201.5,189.2z"/>
</g>
<g>
	<g>
		<g>
			<path class="st18" d="M74.2,198.7c0,0-4.9,33.8-2.6,35.7c12.7,10.7,30.3,16.3,36.7,18c0.9-0.2,2-0.5,3.2-0.9
				c1.1-0.3,2.1-0.9,3-1.5c1.1-0.8,2.5-2,3.1-2.8c0.7-1.1,2.4-0.7,2.4,0.4c0.1,1.2-1.8,4.2-5.3,6.4c0,0,8.1,13,10.7,14.2
				c2.6,1.2,10,4.5,8.7,5.1c-1.2,0.6-10.2-2-10.2-2l-18.2-4.9c0,0-60.2-9.4-56.2-37.1c2.5-16.9,5.1-32.2,6.1-36.1L74.2,198.7z"/>
		</g>
	</g>
</g>
<path class="st0" d="M54.5,191.8l-5.4,36.9c-1.3,11.4,6.4,20.4,16.6,25.5c15.6,7.7,38.7,13.2,38.5,13.2c-0.3-0.1,1.6-16.5,1.6-16.5
	s-32.4-14.1-33.5-20.1c-1-6,4.1-31.3,4.1-31.3L54.5,191.8z"/>
<g>
	<path class="st6" d="M104.2,267.3c0,0,0-0.1,0-0.3c0-0.2,0-0.5,0.1-0.9c0.1-0.8,0.1-1.9,0.3-3.3c0.3-2.9,0.6-7,1-12.1l0.1,0.2
		c-4.6-2.3-10.2-4.9-16.3-7.9c-1.5-0.7-3.1-1.5-4.7-2.3c-1.6-0.8-3.2-1.8-4.7-2.8c-1.6-1-3.1-2.1-4.6-3.4c-0.7-0.6-1.5-1.3-2.2-2
		c-0.3-0.3-0.7-0.7-0.9-1.2c-0.1-0.2-0.2-0.5-0.3-0.7c-0.1-0.2-0.1-0.5-0.2-0.8c-0.5-4,0.6-7.8,1.1-11.5c0.6-3.6,1.2-7.2,1.8-10.5
		c1.2-6.7,2.2-12.7,3.1-17.8c0.5-2.5,0.8-4.8,0.8-6.9c0-2-0.4-3.7-1.1-5c-0.6-1.3-1.4-2.1-1.9-2.6c-0.6-0.5-0.9-0.7-0.9-0.7
		c0,0,0.4,0.2,1,0.6c0.6,0.5,1.4,1.3,2,2.6c0.7,1.3,1.1,3.1,1.2,5.1c0.1,2.1-0.3,4.4-0.7,6.9c-0.9,5.1-1.9,11.1-3,17.8
		c-0.6,3.4-1.2,6.9-1.8,10.5c-0.2,0.9-0.3,1.8-0.5,2.8c-0.2,0.9-0.3,1.8-0.5,2.8c-0.2,1.9-0.4,3.8-0.1,5.7c0,0.2,0.1,0.5,0.1,0.7
		c0,0.2,0.1,0.4,0.2,0.6c0.2,0.4,0.5,0.7,0.8,1.1c0.7,0.7,1.4,1.3,2.1,1.9c1.5,1.2,3,2.3,4.5,3.3c1.6,1,3.1,1.9,4.7,2.8
		c1.6,0.8,3.2,1.6,4.7,2.3c6.1,3,11.6,5.7,16.2,8l0.1,0.1l0,0.1c-0.5,5-0.9,9.2-1.2,12c-0.2,1.4-0.3,2.5-0.4,3.3
		c0,0.3-0.1,0.6-0.1,0.8C104.3,267.2,104.2,267.3,104.2,267.3z"/>
</g>
<g>
	<path class="st6" d="M101.2,248.6c0.1,0,0,1-0.2,2.5c-0.2,1.5-0.5,3.7-1,6c-0.4,2.3-0.9,4.4-1.3,5.9c-0.4,1.5-0.7,2.4-0.8,2.4
		c-0.1,0,0.1-1,0.4-2.5c0.3-1.8,0.7-3.8,1.1-6C100.3,252.4,101.1,248.6,101.2,248.6z"/>
</g>
<g>
	<path class="st6" d="M104.2,267.3c0,0-0.2,0-0.6-0.1c-0.4-0.1-1-0.2-1.6-0.4c-1.5-0.4-3.5-0.9-5.9-1.5c-4.9-1.3-11.8-3.1-19.2-5.8
		c-3.7-1.4-7.1-2.9-10.1-4.5c-3-1.6-5.6-3.3-7.6-4.9c-2-1.6-3.5-3-4.5-4c-0.5-0.5-0.9-0.9-1.1-1.2c-0.2-0.3-0.4-0.4-0.4-0.5
		c0,0,0.6,0.5,1.6,1.5c1,1,2.6,2.4,4.6,3.9c2,1.5,4.6,3.2,7.6,4.7c3,1.6,6.4,3.1,10,4.4c7.3,2.7,14.2,4.5,19.1,5.9
		c2.4,0.7,4.3,1.3,5.8,1.7c0.6,0.2,1.1,0.4,1.6,0.5C104.1,267.2,104.2,267.3,104.2,267.3z"/>
</g>
<path class="st6" d="M104.6,252.6c0,0.6-0.4,1.1-1,1.1c-0.6,0-1.1-0.4-1.1-1c0-0.6,0.4-1.1,1-1.1C104.2,251.5,104.6,252,104.6,252.6
	z"/>
</svg>
