<svg id="Layer_1" data-name="Layer 1" xmlns="http://www.w3.org/2000/svg" viewBox="0 0 443.7 374.22"><defs><style>.cls-1{fill:#fff;}.cls-2{fill:#171717;}.cls-3,.cls-4{fill:#fd5d11;}.cls-4{opacity:0.5;}.cls-5{fill:#ff4f5b;}.cls-6{fill:#e1e1e1;}.cls-7{fill:#ffbf9d;}.cls-8{opacity:0.3;}.cls-9{fill:#fafafa;}.cls-10{fill:#ff9a6c;}.cls-11{opacity:0.2;}.cls-12{fill:#f0f0f0;}.cls-13{fill:#ec4905;}</style></defs><title>why-we</title><rect class="cls-1" x="123.6" y="116.75" width="40.14" height="50.67" transform="translate(-0.58 0.59) rotate(-0.23)"/><path class="cls-2" d="M123.7,167.5l.76,0,2.16,0,8.15-.1,29.07-.25-.25.25c-.08-14.47-.17-31.9-.26-50.66-.07-.07.58.57.3.3h-5.38l-5.31,0-10.32,0-19.12,0,.27-.27c0,15,0,27.62,0,36.53,0,4.44,0,8,0,10.4,0,1.18,0,2.1,0,2.76,0,.3,0,.54,0,.72a1.46,1.46,0,0,1,0,.26,1.85,1.85,0,0,1,0-.23c0-.18,0-.4,0-.68,0-.65,0-1.56,0-2.72,0-2.42-.07-5.91-.12-10.33-.07-8.95-.17-21.64-.29-36.71v-.27h.28l19.12-.1,10.31,0,5.31,0h5.39l.31.31c.06,18.75.11,36.18.16,50.66v.26H134.61l-8.09,0-2.11,0Z"/><rect class="cls-2" x="141.24" y="166.76" width="5.57" height="1.35" transform="translate(-0.64 0.55) rotate(-0.22)"/><rect class="cls-3" x="137.84" y="134.47" width="12.17" height="17.58" transform="translate(-0.58 0.59) rotate(-0.23)"/><rect class="cls-4" x="137.84" y="134.47" width="12.17" height="17.58" transform="translate(-0.58 0.59) rotate(-0.23)"/><rect class="cls-2" x="141.82" y="116.06" width="5.57" height="1.16" transform="translate(-0.46 0.58) rotate(-0.23)"/><circle class="cls-3" cx="251.85" cy="72" r="26.93"/><path class="cls-1" d="M264.23,71.68a21.6,21.6,0,0,1-3.57.2c-2.22.06-5.31.1-8.8.1h-.31V69.93c0-3.9,0-7.43.09-10a28.18,28.18,0,0,1,.21-4.13,25.61,25.61,0,0,1,.22,4.13c.06,2.56.09,6.09.09,10v1.75l-.3-.3c3.49,0,6.58,0,8.8.1A21.6,21.6,0,0,1,264.23,71.68Z"/><path class="cls-1" d="M251.94,48.34c.17,0,.3,1,.3,2.26s-.13,2.27-.3,2.27-.31-1-.31-2.27S251.77,48.34,251.94,48.34Z"/><path class="cls-1" d="M264.21,52c.12.12-.49.92-1.36,1.79s-1.67,1.48-1.79,1.36.48-.92,1.36-1.79S264.09,51.86,264.21,52Z"/><path class="cls-1" d="M271.38,59.81c.08.16-.74.72-1.78,1.36s-1.92,1.1-2,1,.64-.84,1.71-1.49S271.31,59.66,271.38,59.81Z"/><path class="cls-1" d="M275.59,71.45a16,16,0,0,1-6.17,0,15.51,15.51,0,0,1,6.17,0Z"/><path class="cls-1" d="M232.81,71A14.31,14.31,0,0,1,227,71a13.86,13.86,0,0,1,5.83,0Z"/><path class="cls-1" d="M235.84,79.7c.11.12-.84,1.06-2.12,2.1a7.5,7.5,0,0,1-2.51,1.62c-.1-.14.85-1.08,2.12-2.1A7.21,7.21,0,0,1,235.84,79.7Z"/><path class="cls-1" d="M243.3,86.39c.14.11-.54,1.26-1.39,2.67s-1.54,2.55-1.7,2.47a6.37,6.37,0,0,1,1.18-2.79C242.25,87.31,243.17,86.29,243.3,86.39Z"/><path class="cls-1" d="M251.94,95a8,8,0,0,1-.31-3.08,8,8,0,0,1,.31-3.09,8.1,8.1,0,0,1,.3,3.09A8.07,8.07,0,0,1,251.94,95Z"/><path class="cls-1" d="M265.24,90.92a6.14,6.14,0,0,1-2.63-1.64c-1.3-1.13-2.12-2.28-2-2.38s1.12.82,2.39,1.92S265.33,90.77,265.24,90.92Z"/><path class="cls-1" d="M271.48,84.2c-.12.12-1.08-.64-2.14-1.7s-1.82-2-1.7-2.14,1.07.64,2.13,1.7S271.6,84.08,271.48,84.2Z"/><path class="cls-1" d="M235.55,62.74c-.12.12-1-.54-1.89-1.46s-1.59-1.78-1.47-1.9,1,.54,1.9,1.46S235.67,62.62,235.55,62.74Z"/><path class="cls-1" d="M243.25,54.63c-.12.12-.95-.52-1.86-1.43s-1.55-1.74-1.43-1.86.95.52,1.86,1.43S243.37,54.51,243.25,54.63Z"/><rect class="cls-1" x="336.49" y="148.86" width="41.33" height="27.86" transform="translate(-13.78 34.46) rotate(-5.42)"/><path class="cls-2" d="M379,174.71a3.85,3.85,0,0,1-.08-.53c0-.37-.1-.86-.17-1.47-.14-1.33-.34-3.21-.59-5.6l-2-20.11.27.22-41.13,4c-.07.07.52-.63.27-.33h0v.21l0,.23.05.46.08.92.18,1.84c.11,1.22.23,2.43.34,3.63.23,2.4.45,4.77.67,7.09.43,4.64.85,9.11,1.24,13.33l-.3-.25,29.59-2.67,8.49-.73,2.28-.18.59,0a.65.65,0,0,1,.22,0,7.3,7.3,0,0,1-.74.1l-2.21.24-8.42.88-29.75,3-.28,0,0-.28c-.4-4.23-.83-8.69-1.28-13.33-.22-2.32-.45-4.69-.68-7.09-.11-1.2-.23-2.41-.34-3.63l-.18-1.84-.08-.92-.05-.46,0-.24v-.2h0l.28-.34,41.14-3.84.25,0,0,.24c.75,8.46,1.37,15.41,1.8,20.29.19,2.37.35,4.23.46,5.55,0,.6.08,1.08.11,1.44A3.47,3.47,0,0,1,379,174.71Z"/><path class="cls-2" d="M376.41,147a12.43,12.43,0,0,1-1.26,1.57l-3.6,4.15c-3.07,3.49-7.35,8.3-12.15,13.63l-.17.2-.22-.14-1.09-.7c-6.31-4-12-7.68-16.09-10.36l-4.84-3.2-1.3-.9a2.61,2.61,0,0,1-.43-.34s.19.06.5.24l1.36.8,4.94,3c4.16,2.59,9.88,6.19,16.19,10.21l1.09.7-.39,0c4.8-5.33,9.14-10.09,12.29-13.51l3.74-4A13.89,13.89,0,0,1,376.41,147Z"/><rect class="cls-5" x="320.86" y="31.6" width="52.17" height="77.65"/><rect class="cls-2" x="320.86" y="31.6" width="52.17" height="77.65"/><path class="cls-3" d="M373.64,109.85H320.26V31h53.38Zm-52.17-1.21h51V32.2h-51Z"/><rect class="cls-1" x="326.12" y="36.39" width="41.76" height="68.02"/><rect class="cls-3" x="335.23" y="55.67" width="23.45" height="27.48"/><path class="cls-2" d="M289.05,166.48a2.27,2.27,0,0,0,1-.39,2,2,0,0,0,.72-1.07,10.68,10.68,0,0,0,.06-1.85c0-2.88.05-6.95.08-11.95,0-1.27,0-2.59,0-4,0-.68,0-1.39,0-2.1a4.92,4.92,0,0,0,0-1,1.63,1.63,0,0,0-.44-.84,1.58,1.58,0,0,0-.83-.45,9.58,9.58,0,0,0-1.09,0h-7.22l-21.71,0a1.66,1.66,0,0,0-1.6,1.52c0,.94,0,1.88,0,2.81,0,1.87-.06,3.72-.09,5.54-.06,3.63-.11,7.13-.17,10.47,0,.41,0,.83,0,1.24a1.74,1.74,0,0,0,.25,1,1.57,1.57,0,0,0,.78.66,2.8,2.8,0,0,0,1.08.1l4.6,0,8.25,0,12,.09,3.25.06.84,0,.29,0a1.11,1.11,0,0,1-.29,0l-.84,0-3.25.06-12,.1-8.25,0h-4.6a3.25,3.25,0,0,1-1.28-.13,2.18,2.18,0,0,1-1.05-.87,2.34,2.34,0,0,1-.34-1.33c0-.41,0-.82,0-1.24,0-3.34.08-6.84.13-10.47,0-1.82.05-3.67.07-5.54,0-.95,0-1.9,0-2.86a2.26,2.26,0,0,1,2.21-2.07l21.71,0,4.88,0h2.34a9.69,9.69,0,0,1,1.18,0,2.17,2.17,0,0,1,1.11.61,2.12,2.12,0,0,1,.56,1.09,6.31,6.31,0,0,1,0,1.13c0,.72,0,1.42,0,2.11,0,1.38-.06,2.7-.08,4-.11,5-.2,9.08-.27,11.95a11.11,11.11,0,0,1-.12,1.9,2,2,0,0,1-.83,1.12,1.85,1.85,0,0,1-.81.3A.6.6,0,0,1,289.05,166.48Z"/><polygon class="cls-2" points="275.62 152.48 279.64 154.92 275.53 157.33 271.42 159.75 271.51 154.89 271.59 150.04 275.62 152.48"/><path class="cls-1" d="M192.08,201.57,162,185.34h0a26.33,26.33,0,0,0,8.37-9.48l11-21.12a13.17,13.17,0,0,1,10.45-6.85h0L219.74,163h0a17.06,17.06,0,0,0-7.73,7.32l-12.47,23.1a23,23,0,0,1-7.46,8.2Z"/><path class="cls-2" d="M192.08,222.51a1.61,1.61,0,0,1,.33-.27c.22-.16.55-.41,1-.76a24,24,0,0,0,3.38-3.32,24.94,24.94,0,0,0,2-2.79c.65-1.07,1.26-2.3,2-3.6,1.39-2.6,3-5.55,4.71-8.82s3.67-6.84,5.72-10.68a28.55,28.55,0,0,1,1.69-2.89,17.55,17.55,0,0,1,2.26-2.64,18,18,0,0,1,2.84-2.19,14.6,14.6,0,0,1,1.61-.87l.05,0h0c0,1,0,.26,0,.48l-.1-.05-.2-.11-.4-.21-.8-.44L204.54,176l-7.15-3.86-3.66-2-1.85-1-.11-.06-.06,0,.14,0h0l-.26,0-.51.06c-.34.07-.68.11-1,.2a12.74,12.74,0,0,0-6.86,4.19A15.53,15.53,0,0,0,181,177l-1.86,3.58L172,194.21a42.68,42.68,0,0,1-3.62,6.22,26.45,26.45,0,0,1-4.72,4.89c-.43.35-.87.67-1.31,1l-.16.12-.09.06c0-.85,0-.23,0-.41h0l.05,0,.35.19.69.38,2.72,1.48,5.11,2.78,15.39,8.42,4.17,2.31,1.08.62a2.39,2.39,0,0,1,.36.23,2,2,0,0,1-.39-.17l-1.11-.57-4.22-2.21-15.49-8.25-5.13-2.75L163,207.1l-.7-.37-.35-.19,0,0,0,0c0-.19,0,.42,0-.43l.08-.06.16-.12c.43-.3.86-.63,1.28-1a26.07,26.07,0,0,0,4.61-4.81,43.11,43.11,0,0,0,3.55-6.16l7.09-13.64,1.87-3.57a16.33,16.33,0,0,1,2.21-3.52,13.43,13.43,0,0,1,7.19-4.39c.35-.09.71-.14,1.06-.21l.54-.06.26,0h0l.2,0,.06,0,.11.06,1.85,1,3.66,2,7.15,3.87,13.52,7.31.8.44.4.22.2.11.1,0c0,.23,0-.49,0,.51l0,0-.05,0q-.81.39-1.56.84a18,18,0,0,0-2.76,2.11,17.65,17.65,0,0,0-2.2,2.55,26.92,26.92,0,0,0-1.67,2.83l-5.79,10.65L201,211.94c-.71,1.28-1.34,2.5-2,3.58a22.41,22.41,0,0,1-5.54,6.06,12,12,0,0,1-1,.71A1.76,1.76,0,0,1,192.08,222.51Z"/><path class="cls-2" d="M206.08,191.85c-.06.1-5-2.48-11-5.77s-10.88-6-10.82-6.14,5,2.48,11,5.77S206.13,191.75,206.08,191.85Z"/><path class="cls-2" d="M204.43,196c-.06.11-5.16-2.56-11.39-6s-11.24-6.24-11.19-6.35,5.16,2.57,11.39,6S204.48,195.94,204.43,196Z"/><path class="cls-2" d="M202.43,199.7c-.06.11-5.16-2.56-11.39-6s-11.24-6.24-11.18-6.35,5.15,2.57,11.39,6S202.49,199.6,202.43,199.7Z"/><path class="cls-2" d="M200.43,203.37c-.06.1-5.15-2.57-11.39-6s-11.24-6.24-11.18-6.35,5.15,2.57,11.39,6S200.49,203.26,200.43,203.37Z"/><path class="cls-2" d="M198.44,207c-.06.1-5.16-2.57-11.39-6s-11.25-6.24-11.19-6.35,5.16,2.57,11.39,6S198.49,206.92,198.44,207Z"/><path class="cls-2" d="M185.59,204.77a8.92,8.92,0,0,1-1.79-.8c-1.08-.55-2.56-1.33-4.18-2.21s-3.07-1.7-4.11-2.31a10.38,10.38,0,0,1-1.65-1.07,7.88,7.88,0,0,1,1.79.8c1.08.54,2.56,1.32,4.18,2.2s3.07,1.71,4.11,2.32A9.59,9.59,0,0,1,185.59,204.77Z"/><path class="cls-2" d="M192.7,214.23s.11-.29.23-.83a3.51,3.51,0,0,0-.25-2.22,3.39,3.39,0,0,0-2.57-1.91,3.33,3.33,0,1,0,0,6.6,3.54,3.54,0,0,0,2-1c.38-.39.53-.67.57-.65a2.06,2.06,0,0,1-.45.76,3.51,3.51,0,0,1-2.09,1.18,3.65,3.65,0,0,1-3.33-1.16,3.7,3.7,0,0,1,3.34-6.13,3.65,3.65,0,0,1,2.78,2.17,3.51,3.51,0,0,1,.14,2.4A1.92,1.92,0,0,1,192.7,214.23Z"/><rect class="cls-2" x="185.53" y="178.12" width="9.92" height="1.43" transform="translate(108.89 -69.38) rotate(28.61)"/><polygon class="cls-3" points="162.5 87.6 154.79 79.41 154.79 106.56 171.17 88.18 162.5 87.6"/><polygon class="cls-4" points="162.5 87.6 154.79 79.41 154.79 106.56 171.17 88.18 162.5 87.6"/><polyline class="cls-2" points="154.97 106.36 164.55 87.73 162.5 87.6 161.25 86.27 154.97 106.36"/><path class="cls-2" d="M163.52,82.41a7.22,7.22,0,0,1-.22,3,7.69,7.69,0,0,1-.82,2.85c-.17,0-.07-1.35.22-3A7.44,7.44,0,0,1,163.52,82.41Z"/><path class="cls-2" d="M166.61,71a7.4,7.4,0,0,1-.56,2.91,7.57,7.57,0,0,1-1.14,2.74c-.17-.05.08-1.35.55-2.92A7.29,7.29,0,0,1,166.61,71Z"/><path class="cls-2" d="M170.94,60.07c.16.07-.23,1.34-.87,2.83a7.63,7.63,0,0,1-1.44,2.59c-.16-.06.23-1.33.87-2.83A7.57,7.57,0,0,1,170.94,60.07Z"/><path class="cls-2" d="M176.46,49.65a7.67,7.67,0,0,1-1.18,2.72c-.8,1.41-1.57,2.49-1.72,2.41s.38-1.29,1.18-2.72S176.31,49.56,176.46,49.65Z"/><path class="cls-2" d="M183.08,39.9a7.26,7.26,0,0,1-1.47,2.57c-1,1.32-1.83,2.31-2,2.21s.51-1.24,1.47-2.57S183,39.79,183.08,39.9Z"/><path class="cls-2" d="M190.74,30.94c.13.12-.66,1.19-1.75,2.39s-2.07,2.09-2.2,2,.65-1.18,1.75-2.39S190.62,30.82,190.74,30.94Z"/><path class="cls-2" d="M199.38,22.91c.11.13-.8,1.11-2,2.18a7.37,7.37,0,0,1-2.42,1.71c-.11-.12.79-1.1,2-2.17S199.27,22.78,199.38,22.91Z"/><path class="cls-2" d="M208.9,16c.1.15-1,1-2.27,1.9A7.22,7.22,0,0,1,204,19.29c-.11-.13.9-1,2.24-1.93A6.85,6.85,0,0,1,208.9,16Z"/><path class="cls-2" d="M219.2,10.22a7.25,7.25,0,0,1-2.48,1.63A7.37,7.37,0,0,1,214,12.94a7.32,7.32,0,0,1,2.48-1.63A7.43,7.43,0,0,1,219.2,10.22Z"/><path class="cls-2" d="M230.1,5.75a7.33,7.33,0,0,1-2.65,1.32,7.46,7.46,0,0,1-2.87.76,7.32,7.32,0,0,1,2.65-1.33A7.44,7.44,0,0,1,230.1,5.75Z"/><path class="cls-2" d="M241.46,2.58a7.39,7.39,0,0,1-2.79,1,7.47,7.47,0,0,1-2.94.41,7.52,7.52,0,0,1,2.79-1A7.5,7.5,0,0,1,241.46,2.58Z"/><path class="cls-2" d="M253.11.75a7.51,7.51,0,0,1-2.89.68,7.66,7.66,0,0,1-3,.07c0-.17,1.26-.48,2.88-.68A7.27,7.27,0,0,1,253.11.75Z"/><path class="cls-2" d="M264.88.28a7.38,7.38,0,0,1-2.94.34A7.5,7.5,0,0,1,259,.34c0-.17,1.31-.32,2.94-.34S264.89.11,264.88.28Z"/><path class="cls-2" d="M276.63,1.2a7.53,7.53,0,0,1-3,0,7.29,7.29,0,0,1-2.9-.62c0-.17,1.34-.16,3,0A7.34,7.34,0,0,1,276.63,1.2Z"/><path class="cls-2" d="M288.18,3.53a7.55,7.55,0,0,1-2.94-.38c-1.58-.37-2.84-.8-2.8-1a7.36,7.36,0,0,1,2.94.38C287,2.93,288.22,3.36,288.18,3.53Z"/><path class="cls-2" d="M299.34,7.29a7.52,7.52,0,0,1-2.86-.75,7.18,7.18,0,0,1-2.66-1.32,7.41,7.41,0,0,1,2.87.75C298.22,6.54,299.41,7.13,299.34,7.29Z"/><path class="cls-2" d="M309.86,12.6a7.54,7.54,0,0,1-2.73-1.17,7.57,7.57,0,0,1-2.43-1.69c.08-.16,1.3.36,2.73,1.16S310,12.45,309.86,12.6Z"/><path class="cls-2" d="M319.33,19.6c-.12.13-1.23-.6-2.48-1.62s-2.19-2-2.09-2.1,1.21.59,2.48,1.62S319.44,19.48,319.33,19.6Z"/><path class="cls-2" d="M327.39,28.14c-.15.09-.95-.94-2-2.18s-1.85-2.27-1.73-2.39,1.16.72,2.21,2A5.85,5.85,0,0,1,327.39,28.14Z"/><path class="cls-2" d="M297,153.46a7.25,7.25,0,0,1-3,.13c-1.64-.09-2.95-.3-2.93-.47a7.41,7.41,0,0,1,3-.14A7.33,7.33,0,0,1,297,153.46Z"/><path class="cls-2" d="M308.75,152.87c0,.17-1.28.42-2.91.57a7.36,7.36,0,0,1-3-.05,14.6,14.6,0,0,1,5.88-.52Z"/><path class="cls-2" d="M320.25,150.35c.06.16-1.18.64-2.76,1.06a7.57,7.57,0,0,1-2.93.47,7.27,7.27,0,0,1,2.77-1.06A7.44,7.44,0,0,1,320.25,150.35Z"/><path class="cls-2" d="M331,145.56c.09.14-1,.95-2.44,1.7s-2.74,1.15-2.8,1a8.63,8.63,0,0,1,2.52-1.54C329.73,146,330.92,145.41,331,145.56Z"/><path class="cls-2" d="M340.26,138.3c.12.12-.69,1.18-1.92,2.27s-2.36,1.81-2.46,1.67.85-1,2.05-2.12S340.14,138.18,340.26,138.3Z"/><path class="cls-2" d="M347.26,128.85a6.41,6.41,0,0,1-1.24,2.71c-.89,1.38-1.8,2.36-1.94,2.26a9,9,0,0,1,1.42-2.6C346.37,129.87,347.11,128.77,347.26,128.85Z"/><path class="cls-2" d="M351.25,117.81a10.36,10.36,0,0,1-1.56,5.67,8.9,8.9,0,0,1,.6-2.88A9,9,0,0,1,351.25,117.81Z"/><path class="cls-2" d="M351.66,108.46c.17,0,.34.75.39,1.73S352,112,351.82,112s-.34-.78-.39-1.73S351.49,108.48,351.66,108.46Z"/><path class="cls-2" d="M230.3,326.61c.13.12-.7,1.16-1.85,2.32s-2.17,2-2.29,1.89.71-1.17,1.85-2.32S230.17,326.5,230.3,326.61Z"/><path class="cls-2" d="M237.62,317.38a7.42,7.42,0,0,1-1.49,2.56c-1,1.32-1.86,2.3-2,2.2s.53-1.26,1.49-2.56S237.48,317.29,237.62,317.38Z"/><path class="cls-2" d="M243.31,307.06c.16.07-.3,1.31-1,2.78s-1.43,2.6-1.58,2.51a7.75,7.75,0,0,1,1-2.78A7.55,7.55,0,0,1,243.31,307.06Z"/><path class="cls-2" d="M246.8,295.82a6.59,6.59,0,0,1-.34,2.95,6.41,6.41,0,0,1-1.09,2.77c-.17-.05.11-1.35.5-2.92A8.4,8.4,0,0,1,246.8,295.82Z"/><path class="cls-2" d="M247.44,284.08c.17,0,.43,1.3.45,2.94a6.5,6.5,0,0,1-.37,3,20.75,20.75,0,0,1-.08-5.89Z"/><path class="cls-2" d="M245,272.59c.16-.06.76,1.13,1.21,2.71a6.42,6.42,0,0,1,.43,2.95,8.8,8.8,0,0,1-1-2.78A9,9,0,0,1,245,272.59Z"/><path class="cls-2" d="M239.28,262.3c.13-.1,1.07.85,2,2.23a6.28,6.28,0,0,1,1.27,2.69c-.16.08-.89-1-1.78-2.36S239.14,262.41,239.28,262.3Z"/><path class="cls-2" d="M232.52,255.83c.09-.14.79.24,1.55.85s1.29,1.2,1.18,1.33-.81-.26-1.56-.85S232.42,256,232.52,255.83Z"/><path class="cls-2" d="M206.94,170.52a8.49,8.49,0,0,1-1.55,2.51c-.95,1.31-1.75,2.36-1.9,2.27a6.42,6.42,0,0,1,1.41-2.63C205.86,171.34,206.81,170.41,206.94,170.52Z"/><path class="cls-2" d="M215.41,162.35c.1.13-.87,1-2.09,2.09s-2.26,1.87-2.38,1.75.73-1.15,2-2.22S215.31,162.21,215.41,162.35Z"/><path class="cls-2" d="M225.49,156.25a14.15,14.15,0,0,1-5.21,2.77c-.09-.14,1-.88,2.46-1.65A7.46,7.46,0,0,1,225.49,156.25Z"/><path class="cls-2" d="M236.64,152.47c0,.17-1.22.58-2.78,1a8.38,8.38,0,0,1-2.9.58c-.06-.16,1.16-.73,2.74-1.17A6.63,6.63,0,0,1,236.64,152.47Z"/><path class="cls-2" d="M248.34,151.26a20.23,20.23,0,0,1-5.88.27c0-.17,1.29-.46,2.92-.53S248.35,151.09,248.34,151.26Z"/><path class="cls-2" d="M255,151.79a.38.38,0,1,1-.32-.35A.33.33,0,0,1,255,151.79Z"/><path class="cls-2" d="M221.94,249.08a7.39,7.39,0,0,1,2.65,1.34c1.37.88,2.4,1.71,2.31,1.86a7.48,7.48,0,0,1-2.65-1.34C222.88,250.05,221.85,249.22,221.94,249.08Z"/><path class="cls-2" d="M212.48,242.06a7.31,7.31,0,0,1,2.5,1.59c1.27,1,2.21,1.94,2.11,2.08a7.46,7.46,0,0,1-2.49-1.6C213.31,243.11,212.37,242.18,212.48,242.06Z"/><path class="cls-2" d="M205.27,232.83c.15-.09.88,1,1.74,2.38a9.12,9.12,0,0,1,1.4,2.59c-.13.11-1-.87-1.92-2.26A6.47,6.47,0,0,1,205.27,232.83Z"/><path class="cls-2" d="M200.76,221.94c.17-.05.74,1.15,1.28,2.67a7.24,7.24,0,0,1,.7,2.88,14.23,14.23,0,0,1-2-5.55Z"/><path class="cls-6" d="M115,99.38s-.17-.31-.47-.89l-1.29-2.58c-1.12-2.28-2.76-5.59-4.86-9.82C104.24,77.62,98.26,65.5,91,50.79l.28.1L24.71,83.52h0l.12-.35,23.8,48.69-.32-.11,48.08-23.39,13.71-6.64,3.65-1.76,1-.44.34-.15-.3.16-.91.46-3.59,1.79-13.61,6.72L48.51,132.18l-.21.11-.11-.22C41,117.42,32.91,100.87,24.36,83.41l-.12-.24.24-.11h0L91.12,50.51l.19-.09.09.19c7.19,14.79,13.11,27,17.25,35.51l4.75,9.82c.53,1.11.94,2,1.22,2.57S115,99.38,115,99.38Z"/><path class="cls-6" d="M91.21,50.7a.88.88,0,0,1-.06.26c-.07.2-.14.45-.24.75-.23.7-.56,1.66-1,2.87L86.31,65.1,74.13,99.75c-.66.32-.2.09-.35.16h-.06l-.08,0-.16,0-.31-.11-.64-.21-1.26-.42-2.51-.83-4.89-1.63-9.25-3.09L39,88.26,28.43,84.67l-2.86-1-.73-.27a.85.85,0,0,1-.25-.11.88.88,0,0,1,.26.06l.76.22,2.88.91,10.59,3.43,15.69,5.15L64,96.12l4.9,1.63,2.5.83,1.26.42.64.21.32.1.16.06.08,0,0,0h0c-.14.07.34-.15-.31.17C78.44,86.08,82.8,73.87,86,65l3.79-10.47c.45-1.2.8-2.15,1.06-2.83l.29-.74A.86.86,0,0,1,91.21,50.7Z"/><path class="cls-6" d="M57.42,94.2c.14,0-1.77,8.57-4.26,19.07s-4.62,19-4.76,19,1.77-8.57,4.26-19.07S57.28,94.16,57.42,94.2Z"/><path class="cls-6" d="M115.73,99.74c-.06.12-8.07-3.8-17.87-8.76s-17.71-9.09-17.64-9.21,8.06,3.79,17.87,8.75S115.8,99.61,115.73,99.74Z"/><path class="cls-6" d="M298.29,240.33s.09-.15.28-.42.49-.68.85-1.2l3.25-4.54,11.74-16.35,0,.18-32.69-23.6h0l.23,0c-5.8,8-11.3,15.62-16.24,22.43l0-.21,23.47,17.08,6.71,4.89,1.78,1.32.46.34.16.12-.16-.1-.45-.32-1.78-1.26-6.72-4.81-23.65-17-.12-.09.09-.13,16.21-22.44.1-.14.14.1h0l32.64,23.66.11.08-.08.1-11.9,16.34-3.28,4.48-.86,1.16C298.39,240.21,298.29,240.33,298.29,240.33Z"/><path class="cls-6" d="M314.52,217.9,314,218l-1.59.22-5.82.75-19.25,2.34c-.37-.26-.1-.08-.18-.14h0v-.06l0-.09,0-.17-.07-.35-.14-.69c-.09-.46-.19-.91-.28-1.37-.18-.9-.36-1.79-.54-2.66-.35-1.75-.68-3.44-1-5-.63-3.21-1.21-6.11-1.69-8.55s-.85-4.38-1.12-5.77c-.12-.66-.21-1.18-.28-1.57a2.79,2.79,0,0,1-.08-.56,4,4,0,0,1,.14.54c.09.39.2.91.35,1.56.29,1.39.71,3.35,1.22,5.75s1.1,5.33,1.76,8.54q.49,2.41,1,5c.18.88.36,1.77.55,2.67l.27,1.36.14.69.07.35,0,.17v.16h0c-.08-.06.18.14-.18-.13l19.26-2.24,5.84-.64,1.59-.16A2.62,2.62,0,0,1,314.52,217.9Z"/><path class="cls-6" d="M285.47,212.16c0,.09-4.43,1.19-9.94,2.46s-10,2.23-10,2.14,4.44-1.19,9.95-2.46S285.45,212.07,285.47,212.16Z"/><path class="cls-6" d="M298.31,240.75c-.1,0-.41-4.65-.7-10.39s-.46-10.4-.37-10.41.41,4.65.7,10.39S298.4,240.74,298.31,240.75Z"/><path class="cls-2" d="M435.91,374c0,.15-97.59.26-217.95.26S0,374.11,0,374s97.57-.26,218-.26S435.91,373.82,435.91,374Z"/><path class="cls-2" d="M60.76,155c13-17.16,26.77-14.74,36.3-10.59a26.2,26.2,0,0,1,15.3,25c-.17,2.74-.75,5.62.36,8.13,1.8,4,7,5.17,10,8.4,4.13,4.4,3.22,11.37,1.82,17.25s-2.86,12.58.59,17.53c3.17,4.54,9.2,5.75,14.17,8.17a26,26,0,0,1,13.77,16.2,22.19,22.19,0,0,1-4.71,20.47c-4.84,5.27-12.1,7.6-19.18,8.65A70.64,70.64,0,0,1,48.37,200.7"/><path class="cls-7" d="M127.69,281.62c.5,1.5,10.88,50.5,10.88,50.5l78.89,30.33L213,374,145.37,368h0c-39.47-5.9-41.67-25.27-39.28-46.92L110.18,284Z"/><path class="cls-3" d="M14.31,255.2c8.13-12.31,20.47-19.41,31.77-23.34l41.5,3a31.68,31.68,0,0,1,25.28,9.33L116.72,347l9.53,27H27.52L14.31,255.2"/><g class="cls-8"><path class="cls-9" d="M114.38,286.37s-.09-.05-.24-.16l-.67-.5c-.3-.21-.63-.52-1.09-.81l-1.55-1c-.62-.32-1.3-.7-2-1.07a27.38,27.38,0,0,0-9.1-2.39,27.13,27.13,0,0,0-8.06.5,24.53,24.53,0,0,0-8.5,3.58,17.87,17.87,0,0,0-6.7,7.53,10.69,10.69,0,0,0-.91,5.22,9.78,9.78,0,0,0,2,5A7,7,0,0,0,82,305a4.41,4.41,0,0,0,4.49-1.93,5.83,5.83,0,0,0,.08-4.9,9.69,9.69,0,0,0-1.18-2.2,12.31,12.31,0,0,0-1.66-1.8,17.93,17.93,0,0,0-8.19-4.09,25.15,25.15,0,0,0-8.06-.45,53.55,53.55,0,0,0-11.45,2.69l-3,1-.79.26-.28.08.26-.13.78-.31c.68-.26,1.7-.65,3-1.12a51.26,51.26,0,0,1,11.49-2.87,25.34,25.34,0,0,1,8.19.4,18.3,18.3,0,0,1,8.41,4.16,10.78,10.78,0,0,1,.91.88A9.8,9.8,0,0,1,87.08,298a6.32,6.32,0,0,1-.11,5.34,4.26,4.26,0,0,1-2.15,1.84,5.6,5.6,0,0,1-2.84.34,7.46,7.46,0,0,1-4.91-2.89A10.36,10.36,0,0,1,75,297.31a11.23,11.23,0,0,1,1-5.46,18.32,18.32,0,0,1,6.9-7.73,24.8,24.8,0,0,1,8.68-3.6,27.24,27.24,0,0,1,8.19-.45,26,26,0,0,1,6.6,1.47,27.56,27.56,0,0,1,2.56,1.06c.76.4,1.44.79,2.05,1.13l1.54,1a13.65,13.65,0,0,1,1.07.86l.63.54Z"/></g><polygon class="cls-3" points="112.86 244.15 137.36 288.2 110.18 296.55 112.86 244.15"/><path class="cls-2" d="M116.15,347.32a4.82,4.82,0,0,1-.08-.77c0-.56-.08-1.29-.13-2.21-.09-2-.22-4.74-.37-8.13-.29-6.87-.63-16.36-.94-26.84s-.5-20-.56-26.86c0-3.43,0-6.22,0-8.14,0-.92,0-1.66,0-2.21a3.5,3.5,0,0,1,0-.77,3.81,3.81,0,0,1,.06.77l.06,2.21c0,2,.1,4.74.17,8.14.19,6.91.44,16.38.72,26.84s.58,19.92.79,26.84c.08,3.4.15,6.16.2,8.14,0,.92,0,1.66,0,2.21A3.92,3.92,0,0,1,116.15,347.32Z"/><g class="cls-8"><path class="cls-9" d="M120.09,257.56a2.8,2.8,0,0,1-.56.39,14.52,14.52,0,0,1-1.73.95,18.2,18.2,0,0,1-17.25-1.45,11.2,11.2,0,0,1-2.39-2,5.86,5.86,0,0,1-1.48-3,4.08,4.08,0,0,1,.88-3.33,3.6,3.6,0,0,1,3.4-1,4.38,4.38,0,0,1,2.93,2,5,5,0,0,1,.53,3.4,6.69,6.69,0,0,1-1.39,3,7.91,7.91,0,0,1-2.46,2A15.24,15.24,0,0,1,95,260.09a24.77,24.77,0,0,1-5,.06,24.43,24.43,0,0,1-7-1.69,16.35,16.35,0,0,1-1.79-.83,5.54,5.54,0,0,1-.59-.34,3,3,0,0,1,.64.25c.41.18,1,.44,1.81.73a25.44,25.44,0,0,0,7,1.51,25,25,0,0,0,4.92-.12,15,15,0,0,0,5.36-1.55,7.55,7.55,0,0,0,2.3-1.88,6.23,6.23,0,0,0,1.28-2.78,4.49,4.49,0,0,0-.48-3,3.83,3.83,0,0,0-2.58-1.76,3.06,3.06,0,0,0-2.91.82,3.5,3.5,0,0,0-.76,2.91,5.38,5.38,0,0,0,1.34,2.72,11.22,11.22,0,0,0,2.29,2,17.59,17.59,0,0,0,9.94,3,18.1,18.1,0,0,0,7-1.34C119.28,258,120.06,257.51,120.09,257.56Z"/></g><g class="cls-8"><path class="cls-9" d="M114.87,346.45l-.28-.19-.8-.58a27.06,27.06,0,0,0-3.27-1.95,29.22,29.22,0,0,0-13.5-3,40.91,40.91,0,0,0-19.61,5.88,29.07,29.07,0,0,0-4.85,3.46,16.82,16.82,0,0,0-3.82,4.81,9.47,9.47,0,0,0-.9,6.13,5.55,5.55,0,0,0,1.53,2.72,3,3,0,0,0,2.89.7,4.12,4.12,0,0,0,2.31-2,7,7,0,0,0,.83-3.06,10.63,10.63,0,0,0-1.91-5.95,14.6,14.6,0,0,0-4.42-4.23A17.25,17.25,0,0,0,63.58,347a31.7,31.7,0,0,0-11-.1A65.81,65.81,0,0,0,43.17,349a68.34,68.34,0,0,0-12.91,5.35c-1.45.8-2.55,1.45-3.3,1.9l-.85.52-.29.16s.08-.08.27-.21l.82-.56c.72-.48,1.81-1.16,3.25-2a64.87,64.87,0,0,1,22.38-7.65,32.09,32.09,0,0,1,11.14.06,17.38,17.38,0,0,1,5.65,2.2,15.12,15.12,0,0,1,4.59,4.36,11.22,11.22,0,0,1,2,6.25,7.38,7.38,0,0,1-.9,3.3A4.57,4.57,0,0,1,72.4,365a3.51,3.51,0,0,1-3.37-.82,5.82,5.82,0,0,1-1.69-3,10,10,0,0,1,1-6.48,17.13,17.13,0,0,1,3.94-4.95,28.91,28.91,0,0,1,4.94-3.51C84,342.3,91.05,340.39,97,340.39a28.9,28.9,0,0,1,13.59,3.16A19.59,19.59,0,0,1,114.87,346.45Z"/></g><path class="cls-7" d="M44.42,266.58c-3-15.37-24.75-15.94-28.56-.75l-.18.71c-5.6,23.93,13.35,94.64,18.44,98.72S44.26,374,53,370.35c5.09-2.11,57.94-48.82,57.94-48.82s12.22,11.71,16.3,10.69,11.86-13,11.86-13,7.56,11.33,8.5,11.51a2.85,2.85,0,0,0,3.06-4.08C149.6,325.1,140,304,140,304s7.58-.82,6.06-3.37c0,0-.19-2.34-5.32-1.88s-5.13-5.44-14.64-4.83-29.26,3-57,24.29l-12.82,9Z"/><path class="cls-10" d="M69.06,318.23a3,3,0,0,1,.32-.26l1-.74,3.75-2.81a147.62,147.62,0,0,1,14.86-9.36,97.63,97.63,0,0,1,25-9.65,78.59,78.59,0,0,1,7.84-1.32c1.36-.15,2.73-.27,4.12-.37a18.67,18.67,0,0,1,4.28.19,11.47,11.47,0,0,1,4.09,1.59c1.27.77,2.33,1.85,3.62,2.5a4.88,4.88,0,0,0,2.05.54c.71,0,1.49-.1,2.27-.07a7.27,7.27,0,0,1,2.33.4,2.48,2.48,0,0,1,1.72,1.76l0-.1a1.47,1.47,0,0,1,.2,1.08,1.72,1.72,0,0,1-.63.89,6.12,6.12,0,0,1-1.82.92,21.06,21.06,0,0,1-4,.85l.2-.35L147,318.59c1.19,2.5,2.36,5.07,3.66,7.56a4.28,4.28,0,0,1,.49,1,3.29,3.29,0,0,1,0,1.17,3.37,3.37,0,0,1-1.14,2,2.87,2.87,0,0,1-2.19.67l-.29,0a1,1,0,0,1-.22-.08l-.13-.1a4.11,4.11,0,0,1-.42-.41q-.37-.4-.72-.84c-2.6-3.34-4.91-6.8-7.21-10.2h.43a87.19,87.19,0,0,1-5.88,7.94,32,32,0,0,1-3.37,3.51c-.31.26-.64.51-1,.76a10.06,10.06,0,0,1-1,.63,3.65,3.65,0,0,1-1.23.36,3.91,3.91,0,0,1-1.24-.16,16.09,16.09,0,0,1-4.26-2.09c-1.31-.85-2.56-1.76-3.76-2.7-2.4-1.89-4.66-3.86-6.79-5.88h.32C94.3,336.46,80,348.83,69.69,357.41c-5.13,4.29-9.24,7.62-12.12,9.82-1.44,1.1-2.57,1.92-3.36,2.43a6.61,6.61,0,0,1-1.25.69s.44-.21,1.21-.76,1.88-1.36,3.3-2.48c2.85-2.23,6.93-5.6,12-9.92,10.2-8.64,24.51-21.07,41.24-35.84l.17-.14.16.15c2.12,2,4.38,4,6.76,5.83,1.2.93,2.43,1.84,3.73,2.67a15.9,15.9,0,0,0,4.11,2c1.49.56,2.84-.51,4-1.49a33.92,33.92,0,0,0,3.31-3.46,88,88,0,0,0,5.84-7.89l.21-.33.22.33c2.29,3.38,4.61,6.86,7.19,10.16q.33.42.69.81a3.91,3.91,0,0,0,.36.35l.08.06h0s0,0,0,.1,0,.15,0-.09h0l.24,0a2.39,2.39,0,0,0,1.82-.55,2.57,2.57,0,0,0,.5-3.51c-1.33-2.54-2.49-5.09-3.68-7.6l-6.77-14.68-.15-.32.35,0a20.67,20.67,0,0,0,3.89-.82,5.38,5.38,0,0,0,1.66-.83,1.27,1.27,0,0,0,.47-.63,1,1,0,0,0-.14-.71l0,0v-.07a2.08,2.08,0,0,0-1.41-1.35,6.8,6.8,0,0,0-2.16-.36c-.75,0-1.47.08-2.28.06a5.35,5.35,0,0,1-2.25-.6c-1.38-.71-2.43-1.78-3.65-2.52a10.6,10.6,0,0,0-3.93-1.53c-2.76-.51-5.57-.08-8.26.16s-5.29.76-7.8,1.28a98.85,98.85,0,0,0-25,9.52,155,155,0,0,0-14.91,9.23l-3.79,2.74-1,.7C69.18,318.16,69.06,318.23,69.06,318.23Z"/><path class="cls-10" d="M51.49,344.48s-.11-.26-.21-.74a14.67,14.67,0,0,1-.26-2.09,21.78,21.78,0,0,1,.75-6.89,21.38,21.38,0,0,1,2.93-6.29,15.12,15.12,0,0,1,1.3-1.65c.34-.37.54-.56.56-.53s-.63.89-1.55,2.38a24.22,24.22,0,0,0-3.62,13C51.41,343.39,51.57,344.47,51.49,344.48Z"/><path class="cls-3" d="M29.6,240c-.49.33-18.09,5.59-20.86,23.64s-1.11,49.45-1.11,49.45l47.75-3.28L41.69,246.35Z"/><path class="cls-10" d="M131.08,329.73a14.92,14.92,0,0,1,0-1.64,8.62,8.62,0,0,0-3.49-6.62c-.81-.59-1.39-.83-1.36-.91a3.21,3.21,0,0,1,1.56.6,7.79,7.79,0,0,1,3.66,6.94A3.3,3.3,0,0,1,131.08,329.73Z"/><path class="cls-10" d="M135.47,324.38a14.76,14.76,0,0,0-1.63-4.35,14.38,14.38,0,0,0-3.26-3.29c0-.06.56.1,1.3.57a8.28,8.28,0,0,1,3.61,5.65A2.82,2.82,0,0,1,135.47,324.38Z"/><path class="cls-10" d="M135.47,313c0-.05.45.15,1,.64a7.13,7.13,0,0,1,2.27,5.12,2.17,2.17,0,0,1-.19,1.17,10.54,10.54,0,0,0-3.07-6.93Z"/><g class="cls-8"><path class="cls-9" d="M49.56,279.85a.69.69,0,0,1-.25,0l-.72-.08c-.63-.09-1.57-.15-2.78-.19a26.49,26.49,0,0,0-10,1.86,25.23,25.23,0,0,0-11.67,9.25,13.68,13.68,0,0,0-2.57,8.3,9.35,9.35,0,0,0,1.4,4.37,6.85,6.85,0,0,0,3.62,2.88,6.44,6.44,0,0,0,4.6-.23,5.17,5.17,0,0,0,2.8-3.38,8.35,8.35,0,0,0-.17-4.41,12.5,12.5,0,0,0-1.91-3.85,19.07,19.07,0,0,0-12.64-7.48,19.36,19.36,0,0,0-10,1.35,21,21,0,0,0-2.49,1.24l-.62.38C6,289.93,6,290,6,290A14.59,14.59,0,0,1,9.2,288a19.22,19.22,0,0,1,10.13-1.52,19.37,19.37,0,0,1,13,7.55,13.06,13.06,0,0,1,2,4,8.93,8.93,0,0,1,.19,4.68,5.72,5.72,0,0,1-3.08,3.72,6.82,6.82,0,0,1-5,.25,7.26,7.26,0,0,1-3.91-3.09A9.7,9.7,0,0,1,21.08,299a14,14,0,0,1,2.67-8.6,25.54,25.54,0,0,1,11.94-9.33,25.81,25.81,0,0,1,10.12-1.71A19.2,19.2,0,0,1,49.56,279.85Z"/></g><g class="cls-8"><path class="cls-9" d="M47.92,254a6,6,0,0,1-1.21.55,10.37,10.37,0,0,1-1.47.54,19.1,19.1,0,0,1-2,.55,21.94,21.94,0,0,1-2.48.47,27.46,27.46,0,0,1-2.87.27,31.77,31.77,0,0,1-6.6-.45A33.38,33.38,0,0,1,25,254c-.92-.43-1.81-.8-2.6-1.26a23,23,0,0,1-2.15-1.3,19,19,0,0,1-1.68-1.22,11.41,11.41,0,0,1-1.19-1,5.83,5.83,0,0,1-.94-.94c.07-.09,1.44,1.24,4,2.86a22.17,22.17,0,0,0,2.16,1.23c.77.43,1.66.79,2.58,1.19a34.07,34.07,0,0,0,6.25,1.81,33.8,33.8,0,0,0,6.49.48c1-.06,2-.08,2.84-.22s1.7-.25,2.45-.4C46.14,254.62,47.88,253.85,47.92,254Z"/></g><path class="cls-2" d="M51.87,284.55A2.4,2.4,0,0,1,52,285c.06.36.13.82.23,1.39.2,1.28.46,3,.8,5.23.65,4.53,1.56,10.82,2.61,18.12l0,.27-.27,0-11.15.77-25.88,1.71-7.84.45-2.14.1a3.62,3.62,0,0,1-.75,0,4.14,4.14,0,0,1,.74-.1l2.13-.2,7.84-.62,25.87-1.85,11.15-.76-.23.28c-1-7.31-1.82-13.6-2.43-18.14-.27-2.2-.49-4-.65-5.25-.07-.58-.12-1-.16-1.41A1.58,1.58,0,0,1,51.87,284.55Z"/><g class="cls-11"><path d="M28.72,239.49c-.48,1.69.85,3.27,1.73,4.79,1.68,2.92,1.77,6.45,1.92,9.82a68.39,68.39,0,0,0,2.83,18.24c1.92,5.87,5.22,11.41,10.1,15.2s11.43,5.63,17.4,4.07,11-6.84,11.51-13S71,267,68.89,261.24c-1.64-4.42-2.37-9.12-3.31-13.74s-2.14-9.29-4.6-13.32-6.34-7.4-11-8.25-9.94,1.35-11.82,5.68"/></g><path class="cls-7" d="M51.78,158.75v5.32l-.35,79.6c0,9.25,7.88,16.64,17.77,16.61h0c10,0,18.25-7.62,18.44-17,.21-9.8.6-20.11.6-20.11s12.66-1.87,15.57-18.29c1.45-8.17,1.27-21.61.78-32.6a17.39,17.39,0,0,0-18.9-16.55Z"/><path class="cls-10" d="M88.25,223.21a41.9,41.9,0,0,1-22-6.27S71.45,228.35,88,227.1Z"/><path class="cls-10" d="M86.1,201.75a4.08,4.08,0,0,0-3.64-1.59,3.75,3.75,0,0,0-2.61,1.34,2.38,2.38,0,0,0-.23,2.71,2.76,2.76,0,0,0,3,.8,8.53,8.53,0,0,0,2.93-1.68,2.31,2.31,0,0,0,.66-.66.77.77,0,0,0,0-.85"/><path class="cls-2" d="M100.73,182.34a2.11,2.11,0,0,1-2.08,2.1,2,2,0,0,1-2.14-1.95,2.11,2.11,0,0,1,2.07-2.09A2,2,0,0,1,100.73,182.34Z"/><path class="cls-2" d="M101.56,179.26c-.27.27-1.85-.94-4.12-1s-4,1.07-4.2.79c-.12-.12.16-.62.89-1.13a5.79,5.79,0,0,1,3.37-1,5.55,5.55,0,0,1,3.27,1.13C101.46,178.63,101.69,179.14,101.56,179.26Z"/><path class="cls-2" d="M79.2,182a2.11,2.11,0,0,1-2.08,2.09A2,2,0,0,1,75,182.11,2.11,2.11,0,0,1,77.05,180,2,2,0,0,1,79.2,182Z"/><path class="cls-2" d="M79.21,179.28c-.27.28-1.85-.94-4.12-1s-4,1.07-4.2.79c-.12-.13.15-.62.89-1.14a5.87,5.87,0,0,1,3.37-1,5.55,5.55,0,0,1,3.27,1.12C79.11,178.66,79.34,179.16,79.21,179.28Z"/><path class="cls-2" d="M87.16,196.29a14.89,14.89,0,0,1,3.7-.6c.58-.05,1.14-.16,1.24-.55a3,3,0,0,0-.36-1.73L90.11,189c-2.28-6.33-3.91-11.54-3.65-11.63s2.3,5,4.57,11.31l1.57,4.47a3.38,3.38,0,0,1,.26,2.29,1.45,1.45,0,0,1-1,.83,3.7,3.7,0,0,1-1,.12A15,15,0,0,1,87.16,196.29Z"/><path class="cls-2" d="M80.44,197.74c.37,0,.33,2.45,2.41,4.24s4.72,1.57,4.73,1.91c0,.16-.6.47-1.71.48a6.13,6.13,0,0,1-3.94-1.45,5.38,5.38,0,0,1-1.87-3.56C80,198.33,80.27,197.72,80.44,197.74Z"/><path class="cls-2" d="M80,170.39c-.24.61-2.5.28-5.18.55s-4.84,1-5.18.4c-.16-.26.23-.84,1.11-1.42a8.67,8.67,0,0,1,3.86-1.28,8.76,8.76,0,0,1,4,.55C79.57,169.6,80.06,170.1,80,170.39Z"/><path class="cls-2" d="M100.84,172.66c-.41.51-2,0-3.85-.11s-3.48.29-3.84-.26c-.15-.27.11-.78.81-1.25a5.25,5.25,0,0,1,3.15-.79,5.31,5.31,0,0,1,3,1.09C100.81,171.88,101,172.42,100.84,172.66Z"/><path class="cls-2" d="M72.43,153.33c4.46,5.81,0,14.14-5.06,19.47s-11.13,11.52-9.68,18.69c1.69,8.32,13.14,13.55,11.53,21.88-.59,3-3,5.65-2.94,8.75,0,5.59,7.3,8.24,9.43,13.41,2.92,7.08-4.86,14.25-4.9,21.91,0,4.35,2.48,8.39,2.65,12.73.36,8.91-10.11,15.53-18.77,13.43S40,273.12,38.05,264.42s-.66-17.75.65-26.57c-.83,3.76-6.53,4.52-9.34,1.89s-3.2-7-2.6-10.79c1.48-9.54,7.66-17.67,10.55-26.89,2.53-8.05,2.46-16.65,3.52-25s3.56-17.12,9.9-22.7,17.38-6.37,22.61.26"/><g class="cls-8"><path class="cls-1" d="M97.74,145.13a36.59,36.59,0,0,0-4.63.27,61.27,61.27,0,0,0-10.76,3.11c-4.16,1.46-8.16,2.27-11.08,2.08a14,14,0,0,1-3.4-.56,4.3,4.3,0,0,1-1.17-.47,22,22,0,0,0,4.58.66,32.64,32.64,0,0,0,10.9-2.2c4.14-1.45,8-2.7,10.88-3a18.19,18.19,0,0,1,3.44-.09A5.67,5.67,0,0,1,97.74,145.13Z"/><path class="cls-1" d="M49.85,280.42l.21-.33.63-.94a22.34,22.34,0,0,0,1.92-3.88,21.93,21.93,0,0,0,1.32-6.69,20.35,20.35,0,0,0-1.62-8.83c-1.31-3.11-3.62-6-6.06-9.17a45.52,45.52,0,0,1-3.53-5.08,20.07,20.07,0,0,1-2.34-6.15,12.1,12.1,0,0,1,.56-6.89,9.6,9.6,0,0,1,2-3,23.44,23.44,0,0,1,2.83-2.32c2-1.41,4.05-2.85,5.13-5.07a10.65,10.65,0,0,0,.46-7.29c-1.2-5-4.68-8.9-6.91-13.25a16.88,16.88,0,0,1-2.08-6.91,15.27,15.27,0,0,1,1.3-6.8,29.64,29.64,0,0,1,7.75-10.05c3-2.67,5.9-4.94,8.31-7.3a26.47,26.47,0,0,0,5.48-7.17,17.26,17.26,0,0,0,1.87-6.54,11.69,11.69,0,0,0-.43-4.28c-.27-1-.51-1.42-.47-1.44a9,9,0,0,1,.58,1.41,11.93,11.93,0,0,1,.53,4.33,17.43,17.43,0,0,1-1.82,6.65,26.27,26.27,0,0,1-5.49,7.3c-2.41,2.4-5.33,4.69-8.27,7.36a29.39,29.39,0,0,0-7.6,9.92,14.8,14.8,0,0,0-1.24,6.58,16.42,16.42,0,0,0,2,6.7c1.11,2.15,2.51,4.19,3.83,6.34a24.42,24.42,0,0,1,3.13,7,11.12,11.12,0,0,1-.49,7.65c-1.17,2.38-3.37,3.85-5.3,5.25a22.89,22.89,0,0,0-2.77,2.26,9.44,9.44,0,0,0-1.94,2.84,11.66,11.66,0,0,0-.54,6.6,19.72,19.72,0,0,0,2.26,6,48.17,48.17,0,0,0,3.48,5c2.42,3.14,4.74,6.11,6.06,9.28a20.61,20.61,0,0,1,1.57,9,21.41,21.41,0,0,1-1.43,6.75,20.67,20.67,0,0,1-2,3.87c-.29.41-.53.71-.68.91A3.06,3.06,0,0,1,49.85,280.42Z"/></g><path class="cls-2" d="M172.48,299.28l-37.9,66.18-53.67,1.86v5.91H237.7l42.67-69.91a4,4,0,0,0-3.39-6H175.92A4,4,0,0,0,172.48,299.28Z"/><g class="cls-8"><path class="cls-1" d="M220,334.61c-2.38,3.71-6,5.59-8.19,4.22s-1.94-5.5.43-9.2,6.05-5.59,8.19-4.21S222.33,330.91,220,334.61Z"/></g><path class="cls-12" d="M376.43,357.91c-19.42-11.32-25.54-34.79-26.57-56.25-.17-3.58-.87-7.32.57-10.59s5.23-5.74,8.56-4.5c2.75,1,4.16,4,5.85,6.45a21,21,0,0,0,9,7.32c2.37,1,5.25,1.48,7.39.06,2.94-2,3-6.24,2.64-9.79q-.87-9.93-1.75-19.86c-.32-3.55-.63-7.18.2-10.64s3-6.8,6.32-8,7.64.38,8.64,3.8a34,34,0,0,1,.46,4.41c.22,1.47,1,3.05,2.48,3.34s2.79-.82,3.77-1.95c3.37-3.89,5.48-8.71,7.43-13.5s3.82-9.68,6.82-13.86,7.36-7.67,12.42-8.37,10.75,2,12.44,6.88-.8,10.22-3.65,14.54a79.47,79.47,0,0,1-15.22,17.09,6.6,6.6,0,0,0-2.52,3.2c-.58,2.43,1.86,4.6,4.26,5.19,2.73.66,5.58.15,8.37.25s5.9,1.07,7.17,3.61c1.75,3.51-1,7.56-3.76,10.3a68,68,0,0,1-19.15,13.26c-2.54,1.17-5.22,2.24-7.18,4.25s1.85,8.24,3.33,10.64,0,0,2.69-.74,5-2.42,7.56-3.62c4.73-2.24,11.06-2.42,14.54,1.54,2.28,2.61,2.78,6.45,2,9.85a26,26,0,0,1-4.67,9.22c-7.07,9.82-16.48,18-27.49,22.9s-21.41,6.78-33,3.59"/><path class="cls-6" d="M377.45,373.8a156.86,156.86,0,0,1,3.4-29.76,319.63,319.63,0,0,1,9.82-35.32l3.05-9.12c1-3,2-6,3.17-8.81a160.59,160.59,0,0,1,7.58-16c2.66-4.95,5.36-9.56,7.92-13.85s5-8.24,7.45-11.74a125.54,125.54,0,0,1,12.56-15.67c1.62-1.73,2.93-3,3.82-3.9l1-1a3.82,3.82,0,0,1,.37-.32,2,2,0,0,1-.32.37l-1,1c-.86.9-2.13,2.22-3.72,4a134,134,0,0,0-12.37,15.77c-2.38,3.51-4.82,7.46-7.36,11.75s-5.22,8.91-7.86,13.86A163.08,163.08,0,0,0,397.48,291c-1.14,2.83-2.13,5.77-3.14,8.77s-2,6-3,9.12a327.61,327.61,0,0,0-9.86,35.23,159.35,159.35,0,0,0-3.53,29.64"/><path class="cls-6" d="M397.07,290.75a8.34,8.34,0,0,1-.47-1.48c-.26-1-.6-2.38-1-4.13-.79-3.5-1.72-8.36-2.73-13.73s-2-10.21-2.84-13.69c-.42-1.73-.77-3.14-1-4.11a6.36,6.36,0,0,1-.32-1.52,7.3,7.3,0,0,1,.57,1.45c.33,1,.75,2.34,1.22,4.07,1,3.45,2,8.3,3,13.67s1.86,10.1,2.53,13.76c.32,1.66.59,3,.8,4.17A6.22,6.22,0,0,1,397.07,290.75Z"/><path class="cls-6" d="M442.05,278.46a8.62,8.62,0,0,1-1.8.37c-1.16.2-2.85.48-4.92.9-4.15.79-9.84,2.09-16.05,3.8s-11.77,3.52-15.75,4.93c-2,.69-3.6,1.3-4.71,1.71a10.4,10.4,0,0,1-1.75.58,11.16,11.16,0,0,1,1.66-.82c1.08-.49,2.66-1.16,4.64-1.91,3.95-1.53,9.5-3.41,15.74-5.13a162.35,162.35,0,0,1,16.14-3.62c2.09-.36,3.79-.57,5-.69A10.41,10.41,0,0,1,442.05,278.46Z"/><path class="cls-6" d="M381.34,343.15a2.46,2.46,0,0,1-.36-.53c-.24-.43-.55-1-.91-1.59-.79-1.38-1.88-3.41-3.2-5.94-2.63-5-6.05-12.15-9.72-20s-7-15-9.54-20.09l-3-6c-.33-.66-.6-1.2-.81-1.65a2.38,2.38,0,0,1-.25-.6,2.31,2.31,0,0,1,.36.54l.92,1.58c.79,1.39,1.88,3.42,3.2,5.94,2.63,5.06,6.05,12.15,9.71,20s7,15,9.54,20.1c1.24,2.47,2.26,4.51,3,6,.32.66.59,1.2.81,1.64A2.22,2.22,0,0,1,381.34,343.15Z"/><path class="cls-6" d="M440.44,318.6a2.6,2.6,0,0,1-.58.3l-1.72.73c-1.58.67-3.72,1.56-6.32,2.64-5.35,2.24-12.69,5.4-20.8,8.91s-15.49,6.61-20.88,8.73c-2.7,1.06-4.88,1.9-6.41,2.45L382,343a2.55,2.55,0,0,1-.63.17,3.32,3.32,0,0,1,.59-.3l1.71-.73c1.58-.67,3.72-1.56,6.33-2.64,5.34-2.23,12.68-5.4,20.79-8.91s15.49-6.61,20.88-8.73c2.7-1.06,4.89-1.9,6.41-2.45.71-.24,1.29-.45,1.76-.62A2.67,2.67,0,0,1,440.44,318.6Z"/><path class="cls-3" d="M306.05,343.13a18.74,18.74,0,0,0-11.62-1.41c-2.11.35-4.3,1-5.74,2.56s-1.7,4.37-.06,5.73a5.53,5.53,0,0,0,3.62.92c3.07,0,6.48-.58,8.93,1.27,1.4,1.05,2.34,2.81,4,3.32a3.94,3.94,0,0,0,4.35-1.93,6.73,6.73,0,0,0,.49-5A7.61,7.61,0,0,0,306.05,343.13Z"/><path class="cls-13" d="M314.14,327.5c-2.16,3.09-6.36,2.07-8.3.18s-2.77-4.61-3.52-7.22c-1.71-5.94-3.44-12.18-2.17-18.24a10.14,10.14,0,0,1,2.33-5,5.27,5.27,0,0,1,5-1.67c2.12.56,3.44,2.63,4.39,4.6a43.72,43.72,0,0,1,4.3,18.67c0,3-.35,6.16-2.05,8.64"/><g class="cls-11"><path class="cls-13" d="M314.14,327.5c-2.16,3.09-6.36,2.07-8.3.18s-2.77-4.61-3.52-7.22c-1.71-5.94-3.44-12.18-2.17-18.24a10.14,10.14,0,0,1,2.33-5,5.27,5.27,0,0,1,5-1.67c2.12.56,3.44,2.63,4.39,4.6a43.72,43.72,0,0,1,4.3,18.67c0,3-.35,6.16-2.05,8.64"/></g><path class="cls-3" d="M320.08,331.93a11.23,11.23,0,0,1-1.75-10.33,19.93,19.93,0,0,1,6.12-8.88,33.14,33.14,0,0,1,11-6.47,11.66,11.66,0,0,1,4.93-.84,5.19,5.19,0,0,1,4.14,2.51c1.15,2.2,0,4.86-1.15,7a83.14,83.14,0,0,1-7.2,11c-2.16,2.78-4.63,5.53-7.92,6.79s-6.7,1.11-8.44-1.18"/><path class="cls-2" d="M314.29,374.06a7.25,7.25,0,0,1-.19-1.41c-.1-1-.23-2.3-.38-3.82a55.24,55.24,0,0,0-.86-5.62,42,42,0,0,0-2-6.62,24.63,24.63,0,0,0-3.38-6,12.52,12.52,0,0,0-4.28-3.55,12,12,0,0,0-3.6-1.13,6.65,6.65,0,0,1-1.4-.2,7.07,7.07,0,0,1,1.42,0,10.85,10.85,0,0,1,3.76,1,12.67,12.67,0,0,1,4.51,3.58,24.14,24.14,0,0,1,3.51,6.12,40.27,40.27,0,0,1,2,6.73,47.38,47.38,0,0,1,.75,5.69c.12,1.62.17,2.94.19,3.85A6.62,6.62,0,0,1,314.29,374.06Z"/><path class="cls-2" d="M314,371.11a3,3,0,0,1,0-.65V368.6c0-1.62,0-4-.08-6.84-.14-5.77-.64-13.74-1.6-22.49s-2.25-16.64-3.41-22.3c-.28-1.41-.56-2.69-.82-3.8s-.46-2.09-.67-2.87-.32-1.33-.43-1.81a2.48,2.48,0,0,1-.12-.64,2.37,2.37,0,0,1,.23.61l.54,1.78c.24.78.48,1.74.76,2.85s.6,2.38.91,3.8a212,212,0,0,1,3.59,22.31c1,8.78,1.39,16.77,1.43,22.55,0,2.9,0,5.24-.1,6.85-.05.76-.08,1.38-.11,1.86A3.33,3.33,0,0,1,314,371.11Z"/><path class="cls-2" d="M314,355.7a13.09,13.09,0,0,1,0-1.94c.07-1.25.25-3.06.6-5.27a72.64,72.64,0,0,1,4.92-16.75,48.25,48.25,0,0,1,9.42-14.67,23.68,23.68,0,0,1,2.22-2.06c.34-.29.64-.58.95-.81l.86-.59a12.8,12.8,0,0,1,1.63-1.05,58.3,58.3,0,0,0-5.36,4.79A50.79,50.79,0,0,0,320.05,332a71.91,71.91,0,0,0-3.23,9c-.84,2.82-1.4,5.42-1.82,7.6s-.63,4-.77,5.21A13.23,13.23,0,0,1,314,355.7Z"/></svg>