<?xml version="1.0" encoding="utf-8"?>
<!-- Generator: Adobe Illustrator 23.0.5, SVG Export Plug-In . SVG Version: 6.00 Build 0)  -->
<svg version="1.1" id="Layer_1" xmlns="http://www.w3.org/2000/svg" xmlns:xlink="http://www.w3.org/1999/xlink" x="0px" y="0px"
	 viewBox="0 0 405.7 59.9" style="enable-background:new 0 0 405.7 59.9;" xml:space="preserve">
<style type="text/css">
	.st0{fill:#457E62;}
	.st1{fill:#D5DDE3;}
	.st2{fill:#4285F4;}
</style>
<path class="st0" d="M126.5,29.1H13.4c-1.9,0-3.5-1.6-3.5-3.5v0c0-1.9,1.6-3.5,3.5-3.5h113.2c1.9,0,3.5,1.6,3.5,3.5v0
	C130.1,27.5,128.5,29.1,126.5,29.1z"/>
<path class="st1" d="M263,29.1H149.8c-1.9,0-3.5-1.6-3.5-3.5v0c0-1.9,1.6-3.5,3.5-3.5H263c1.9,0,3.5,1.6,3.5,3.5v0
	C266.5,27.5,264.9,29.1,263,29.1z"/>
<path class="st1" d="M397.6,42.1H137.2c-1.9,0-3.5-1.6-3.5-3.5v0c0-1.9,1.6-3.5,3.5-3.5h260.4c1.9,0,3.5,1.6,3.5,3.5v0
	C401.1,40.5,399.5,42.1,397.6,42.1z"/>
<path class="st1" d="M126.5,42.1H13.5c-1.9,0-3.5-1.6-3.5-3.5v0c0-1.9,1.6-3.5,3.5-3.5h113.1c1.9,0,3.5,1.6,3.5,3.5v0
	C130.1,40.5,128.5,42.1,126.5,42.1z"/>
<path class="st1" d="M269.9,55.1H13.5c-1.9,0-3.5-1.6-3.5-3.5v0c0-1.9,1.6-3.5,3.5-3.5h256.4c1.9,0,3.5,1.6,3.5,3.5v0
	C273.4,53.6,271.8,55.1,269.9,55.1z"/>
<g>
	<path class="st2" d="M11.9,12.7v-4L8.5,3.3h2.2L12.9,7l2.1-3.7h2.2l-3.4,5.5v4H11.9z"/>
	<path class="st2" d="M16.8,9.2c0-0.6,0.1-1.2,0.4-1.7s0.7-1,1.2-1.3c0.5-0.3,1.1-0.4,1.8-0.4c1,0,1.9,0.3,2.5,1s1,1.5,1,2.5
		c0,1-0.3,1.9-1,2.6c-0.7,0.7-1.5,1-2.5,1c-0.6,0-1.2-0.1-1.8-0.4c-0.6-0.3-1-0.7-1.3-1.2S16.8,10,16.8,9.2z M18.6,9.3
		c0,0.7,0.2,1.2,0.5,1.6s0.7,0.5,1.2,0.5c0.5,0,0.9-0.2,1.2-0.5s0.5-0.9,0.5-1.6c0-0.7-0.2-1.2-0.5-1.5c-0.3-0.4-0.7-0.5-1.2-0.5
		c-0.5,0-0.9,0.2-1.2,0.5C18.8,8.1,18.6,8.6,18.6,9.3z"/>
	<path class="st2" d="M29.6,12.7v-1c-0.2,0.4-0.6,0.7-1,0.9c-0.4,0.2-0.8,0.3-1.3,0.3c-0.5,0-0.9-0.1-1.2-0.3s-0.6-0.5-0.8-0.8
		s-0.2-0.9-0.2-1.5V5.9h1.8V9c0,1,0,1.5,0.1,1.8c0.1,0.2,0.2,0.4,0.4,0.5c0.2,0.1,0.4,0.2,0.7,0.2c0.3,0,0.6-0.1,0.8-0.3
		s0.4-0.4,0.5-0.6s0.1-0.9,0.1-1.8V5.9h1.8v6.8H29.6z"/>
	<path class="st2" d="M34.8,12.7H33V5.9h1.7v1c0.3-0.5,0.5-0.8,0.8-0.9c0.2-0.1,0.5-0.2,0.8-0.2c0.4,0,0.8,0.1,1.2,0.3l-0.6,1.6
		c-0.3-0.2-0.6-0.3-0.8-0.3c-0.3,0-0.5,0.1-0.6,0.2C35.2,7.7,35,8,34.9,8.3c-0.1,0.4-0.1,1.1-0.1,2.3V12.7z"/>
	<path class="st2" d="M47.7,9.3l1.8,0.6c-0.3,1-0.7,1.8-1.4,2.3c-0.6,0.5-1.5,0.8-2.5,0.8c-1.2,0-2.3-0.4-3-1.3
		c-0.8-0.9-1.2-2-1.2-3.5c0-1.6,0.4-2.8,1.2-3.7c0.8-0.9,1.9-1.3,3.2-1.3c1.1,0,2.1,0.3,2.8,1c0.4,0.4,0.7,1,1,1.7l-1.9,0.5
		c-0.1-0.5-0.3-0.9-0.7-1.2s-0.8-0.4-1.3-0.4C45,4.8,44.4,5,44,5.5S43.4,6.8,43.4,8c0,1.2,0.2,2,0.6,2.5c0.4,0.5,1,0.8,1.7,0.8
		c0.5,0,0.9-0.2,1.3-0.5C47.3,10.5,47.6,10,47.7,9.3z"/>
	<path class="st2" d="M50.7,9.2c0-0.6,0.1-1.2,0.4-1.7s0.7-1,1.2-1.3c0.5-0.3,1.1-0.4,1.8-0.4c1,0,1.9,0.3,2.5,1s1,1.5,1,2.5
		c0,1-0.3,1.9-1,2.6c-0.7,0.7-1.5,1-2.5,1c-0.6,0-1.2-0.1-1.8-0.4c-0.6-0.3-1-0.7-1.3-1.2S50.7,10,50.7,9.2z M52.5,9.3
		c0,0.7,0.2,1.2,0.5,1.6s0.7,0.5,1.2,0.5c0.5,0,0.9-0.2,1.2-0.5s0.5-0.9,0.5-1.6c0-0.7-0.2-1.2-0.5-1.5c-0.3-0.4-0.7-0.5-1.2-0.5
		c-0.5,0-0.9,0.2-1.2,0.5C52.7,8.1,52.5,8.6,52.5,9.3z"/>
	<path class="st2" d="M58.9,5.9h1.6v0.9c0.6-0.7,1.3-1.1,2.1-1.1c0.4,0,0.8,0.1,1.1,0.3c0.3,0.2,0.6,0.5,0.8,0.8
		c0.3-0.4,0.6-0.6,1-0.8s0.7-0.3,1.1-0.3c0.5,0,0.9,0.1,1.3,0.3c0.3,0.2,0.6,0.5,0.8,0.9c0.1,0.3,0.2,0.8,0.2,1.4v4.4h-1.8V8.8
		c0-0.7-0.1-1.1-0.2-1.3c-0.2-0.3-0.4-0.4-0.8-0.4c-0.2,0-0.5,0.1-0.7,0.2C65.2,7.5,65,7.8,64.9,8c-0.1,0.3-0.1,0.8-0.1,1.4v3.3H63
		V9c0-0.7,0-1.1-0.1-1.3c-0.1-0.2-0.2-0.3-0.3-0.4c-0.1-0.1-0.3-0.1-0.5-0.1c-0.3,0-0.5,0.1-0.7,0.2C61.1,7.5,61,7.7,60.9,8
		c-0.1,0.3-0.1,0.8-0.1,1.4v3.3h-1.8V5.9z"/>
	<path class="st2" d="M70.6,5.9h1.7v1c0.2-0.3,0.5-0.6,0.9-0.8c0.4-0.2,0.8-0.3,1.2-0.3c0.8,0,1.4,0.3,2,0.9s0.8,1.5,0.8,2.6
		c0,1.1-0.3,2-0.8,2.7s-1.2,0.9-2,0.9c-0.4,0-0.7-0.1-1-0.2s-0.6-0.4-1-0.8v3.4h-1.8V5.9z M72.3,9.2c0,0.8,0.2,1.3,0.5,1.7
		c0.3,0.4,0.7,0.6,1.1,0.6c0.4,0,0.8-0.2,1-0.5c0.3-0.3,0.4-0.9,0.4-1.7c0-0.7-0.1-1.2-0.4-1.6c-0.3-0.3-0.6-0.5-1.1-0.5
		c-0.4,0-0.8,0.2-1.1,0.5C72.5,8,72.3,8.5,72.3,9.2z"/>
	<path class="st2" d="M79.9,8l-1.6-0.3c0.2-0.7,0.5-1.1,0.9-1.5s1.1-0.5,2-0.5C82,5.8,82.6,5.9,83,6c0.4,0.2,0.7,0.4,0.8,0.7
		C84,7.1,84,7.6,84,8.4l0,2.1c0,0.6,0,1,0.1,1.3s0.2,0.6,0.3,0.9h-1.8c0-0.1-0.1-0.3-0.2-0.5c0-0.1-0.1-0.2-0.1-0.2
		c-0.3,0.3-0.6,0.5-1,0.7c-0.3,0.1-0.7,0.2-1.1,0.2c-0.7,0-1.2-0.2-1.6-0.6s-0.6-0.9-0.6-1.4c0-0.4,0.1-0.7,0.3-1
		c0.2-0.3,0.4-0.5,0.8-0.7c0.3-0.2,0.8-0.3,1.4-0.4c0.8-0.2,1.4-0.3,1.7-0.4V8.1c0-0.3-0.1-0.6-0.3-0.7c-0.2-0.1-0.5-0.2-1-0.2
		c-0.3,0-0.6,0.1-0.7,0.2S80,7.7,79.9,8z M82.3,9.5c-0.2,0.1-0.6,0.2-1.1,0.3c-0.5,0.1-0.8,0.2-1,0.3c-0.2,0.2-0.3,0.4-0.3,0.6
		c0,0.3,0.1,0.5,0.3,0.7c0.2,0.2,0.4,0.3,0.7,0.3c0.3,0,0.6-0.1,0.9-0.3c0.2-0.2,0.4-0.4,0.4-0.6c0-0.2,0.1-0.4,0.1-0.9V9.5z"/>
	<path class="st2" d="M91.9,12.7h-1.8V9.3c0-0.7,0-1.2-0.1-1.4c-0.1-0.2-0.2-0.4-0.4-0.5S89.3,7.1,89,7.1c-0.3,0-0.6,0.1-0.8,0.3
		c-0.2,0.2-0.4,0.4-0.5,0.7c-0.1,0.3-0.1,0.8-0.1,1.6v3.1h-1.8V5.9h1.7v1c0.6-0.8,1.3-1.2,2.2-1.2c0.4,0,0.8,0.1,1.1,0.2
		c0.3,0.1,0.6,0.3,0.7,0.6c0.2,0.2,0.3,0.5,0.3,0.8c0.1,0.3,0.1,0.7,0.1,1.2V12.7z"/>
	<path class="st2" d="M92.9,5.9h1.9l1.6,4.9L98,5.9h1.8l-2.4,6.6L97,13.7c-0.2,0.4-0.3,0.7-0.4,0.9c-0.1,0.2-0.3,0.4-0.5,0.5
		s-0.4,0.2-0.7,0.3c-0.3,0.1-0.6,0.1-0.9,0.1c-0.3,0-0.7,0-1-0.1L93.3,14c0.3,0.1,0.5,0.1,0.8,0.1c0.4,0,0.7-0.1,0.9-0.4
		c0.2-0.2,0.4-0.6,0.5-0.9L92.9,5.9z"/>
	<path class="st2" d="M104.2,8.1c0-1,0.1-1.8,0.4-2.4c0.2-0.5,0.5-0.9,0.9-1.3c0.4-0.4,0.8-0.7,1.2-0.8c0.6-0.2,1.2-0.4,2-0.4
		c1.4,0,2.5,0.4,3.3,1.3c0.8,0.9,1.2,2.1,1.2,3.6c0,1.5-0.4,2.7-1.2,3.6s-1.9,1.3-3.3,1.3c-1.4,0-2.5-0.4-3.3-1.3
		S104.2,9.6,104.2,8.1z M106.2,8c0,1.1,0.2,1.9,0.7,2.4c0.5,0.6,1.1,0.8,1.9,0.8s1.4-0.3,1.8-0.8c0.5-0.5,0.7-1.4,0.7-2.5
		c0-1.1-0.2-1.9-0.7-2.4c-0.5-0.5-1.1-0.8-1.9-0.8s-1.4,0.3-1.9,0.8C106.4,6.1,106.2,6.9,106.2,8z"/>
	<path class="st2" d="M120.8,12.7h-1.8V9.3c0-0.7,0-1.2-0.1-1.4c-0.1-0.2-0.2-0.4-0.4-0.5s-0.4-0.2-0.6-0.2c-0.3,0-0.6,0.1-0.8,0.3
		c-0.2,0.2-0.4,0.4-0.5,0.7c-0.1,0.3-0.1,0.8-0.1,1.6v3.1h-1.8V5.9h1.7v1c0.6-0.8,1.3-1.2,2.2-1.2c0.4,0,0.8,0.1,1.1,0.2
		c0.3,0.1,0.6,0.3,0.7,0.6c0.2,0.2,0.3,0.5,0.3,0.8c0.1,0.3,0.1,0.7,0.1,1.2V12.7z"/>
	<path class="st2" d="M122.6,12.7V3.3h1.8v9.4H122.6z"/>
	<path class="st2" d="M126.3,5V3.3h1.8V5H126.3z M126.3,12.7V5.9h1.8v6.8H126.3z"/>
	<path class="st2" d="M136,12.7h-1.8V9.3c0-0.7,0-1.2-0.1-1.4c-0.1-0.2-0.2-0.4-0.4-0.5s-0.4-0.2-0.6-0.2c-0.3,0-0.6,0.1-0.8,0.3
		c-0.2,0.2-0.4,0.4-0.5,0.7c-0.1,0.3-0.1,0.8-0.1,1.6v3.1h-1.8V5.9h1.7v1c0.6-0.8,1.3-1.2,2.2-1.2c0.4,0,0.8,0.1,1.1,0.2
		c0.3,0.1,0.6,0.3,0.7,0.6c0.2,0.2,0.3,0.5,0.3,0.8C136,7.6,136,8,136,8.5V12.7z"/>
	<path class="st2" d="M141.7,10.6l1.8,0.3c-0.2,0.7-0.6,1.2-1.1,1.5c-0.5,0.3-1.1,0.5-1.9,0.5c-1.2,0-2-0.4-2.6-1.2
		c-0.4-0.6-0.7-1.4-0.7-2.4c0-1.1,0.3-2,0.9-2.7s1.3-1,2.2-1c1,0,1.8,0.3,2.4,1c0.6,0.7,0.9,1.7,0.8,3.1h-4.5c0,0.5,0.2,1,0.4,1.3
		c0.3,0.3,0.6,0.4,1,0.4c0.3,0,0.5-0.1,0.7-0.2S141.6,10.9,141.7,10.6z M141.8,8.7c0-0.5-0.1-0.9-0.4-1.2s-0.6-0.4-0.9-0.4
		c-0.4,0-0.7,0.1-1,0.4c-0.3,0.3-0.4,0.7-0.4,1.2H141.8z"/>
	<path class="st2" d="M151,12.7l-3.3-9.4h2l2.4,7l2.3-7h2l-3.3,9.4H151z"/>
	<path class="st2" d="M157.1,5V3.3h1.8V5H157.1z M157.1,12.7V5.9h1.8v6.8H157.1z"/>
	<path class="st2" d="M160.1,10.8l1.8-0.3c0.1,0.4,0.2,0.6,0.5,0.8c0.2,0.2,0.6,0.3,1,0.3c0.5,0,0.8-0.1,1-0.3
		c0.2-0.1,0.2-0.3,0.2-0.5c0-0.1,0-0.3-0.1-0.3c-0.1-0.1-0.3-0.2-0.6-0.2c-1.4-0.3-2.4-0.6-2.7-0.9c-0.5-0.4-0.8-0.9-0.8-1.5
		c0-0.6,0.2-1.1,0.7-1.5c0.5-0.4,1.2-0.6,2.1-0.6c0.9,0,1.6,0.2,2.1,0.5c0.4,0.3,0.8,0.8,0.9,1.4l-1.7,0.3c-0.1-0.3-0.2-0.5-0.4-0.6
		s-0.5-0.2-0.9-0.2c-0.5,0-0.8,0.1-1,0.2C162,7.3,162,7.5,162,7.6c0,0.1,0.1,0.2,0.2,0.3c0.2,0.1,0.7,0.3,1.7,0.5s1.6,0.5,2,0.8
		c0.4,0.3,0.6,0.8,0.6,1.3c0,0.6-0.3,1.2-0.8,1.6c-0.5,0.5-1.3,0.7-2.3,0.7c-0.9,0-1.6-0.2-2.2-0.6C160.6,12,160.2,11.4,160.1,10.8z
		"/>
	<path class="st2" d="M167.9,5V3.3h1.8V5H167.9z M167.9,12.7V5.9h1.8v6.8H167.9z"/>
	<path class="st2" d="M171.5,12.7V3.3h1.8v3.4c0.6-0.6,1.2-1,2-1c0.8,0,1.5,0.3,2,0.9c0.5,0.6,0.8,1.5,0.8,2.6
		c0,1.2-0.3,2.1-0.8,2.7c-0.5,0.6-1.2,0.9-2,0.9c-0.4,0-0.8-0.1-1.1-0.3c-0.4-0.2-0.7-0.5-1-0.9v1H171.5z M173.2,9.2
		c0,0.7,0.1,1.2,0.3,1.6c0.3,0.5,0.7,0.7,1.2,0.7c0.4,0,0.7-0.2,1-0.5c0.3-0.3,0.4-0.9,0.4-1.6c0-0.8-0.1-1.3-0.4-1.7
		c-0.3-0.3-0.6-0.5-1.1-0.5c-0.4,0-0.8,0.2-1.1,0.5C173.4,8,173.2,8.5,173.2,9.2z"/>
	<path class="st2" d="M179.5,5V3.3h1.8V5H179.5z M179.5,12.7V5.9h1.8v6.8H179.5z"/>
	<path class="st2" d="M183.1,12.7V3.3h1.8v9.4H183.1z"/>
	<path class="st2" d="M186.7,5V3.3h1.8V5H186.7z M186.7,12.7V5.9h1.8v6.8H186.7z"/>
	<path class="st2" d="M193.4,5.9v1.4h-1.2v2.8c0,0.6,0,0.9,0,1c0,0.1,0.1,0.2,0.2,0.2s0.2,0.1,0.3,0.1c0.2,0,0.4-0.1,0.7-0.2
		l0.2,1.4c-0.4,0.2-0.9,0.3-1.4,0.3c-0.3,0-0.6-0.1-0.9-0.2s-0.4-0.3-0.6-0.4s-0.2-0.4-0.3-0.7c0-0.2-0.1-0.6-0.1-1.3v-3h-0.8V5.9
		h0.8V4.6l1.8-1.1v2.4H193.4z"/>
	<path class="st2" d="M193.8,5.9h1.9l1.6,4.9l1.6-4.9h1.8l-2.4,6.6l-0.4,1.2c-0.2,0.4-0.3,0.7-0.4,0.9c-0.1,0.2-0.3,0.4-0.5,0.5
		s-0.4,0.2-0.7,0.3c-0.3,0.1-0.6,0.1-0.9,0.1c-0.3,0-0.7,0-1-0.1l-0.2-1.4c0.3,0.1,0.5,0.1,0.8,0.1c0.4,0,0.7-0.1,0.9-0.4
		c0.2-0.2,0.4-0.6,0.5-0.9L193.8,5.9z"/>
</g>
</svg>
